<svg fill="none" height="82" viewBox="0 0 83 82" width="83" xmlns="http://www.w3.org/2000/svg" xmlns:xlink="http://www.w3.org/1999/xlink"><clipPath id="a"><path d="m0 0h83v82h-83z"/></clipPath><g clip-path="url(#a)" fill="#9d9d9d"><path d="m70.424 59.7959.8373-1.415-1.3114-.7837-.9371 1.5815-.3924-.2355 1.2185-2.0586 3.6315 2.1744-1.1701 1.9784-.3934-.2355.8887-1.5013-1.147-.6873-.8372 1.4151zm2.8084 1.5643-.221-1.0831.227-.3837.3339.8892z"/><path d="m63.6159 70.6493-.4448.3278-2.2273-3.0564-1.4557 1.073-.2703-.3716 1.9005-1.4008z"/><path d="m57.1336 72.1831 1.4213-.8141-.7525-1.3318-1.5908.9115-.226-.3999 2.0689-1.1856 2.0902 3.6939-1.9883 1.1389-.2259-.401 1.508-.8638-.6587-1.1674-1.4223.8152z"/><path d="m52.3157 72.6327c-.1808.0361-.3585.0863-.5316.1502-1.1096.3614-1.503 1.1907-1.1449 2.2799.3107.9654 1.041 1.3805 2.1355 1.0151.2047-.064.4022-.1494.5891-.2548zm1.6978 3.4005c-.3483.1761-.7087.3267-1.0784.4507-.7444.2477-1.3285.2569-1.7885.0437s-.8352-.6091-1.0491-1.2648c-.2138-.6557-.1846-1.2668.0615-1.7602.2462-.4933.807-.9136 1.5888-1.1734.3143-.11.6354-.1989.9614-.266z"/><path d="m48.1304 77.7721-.4226-2.487c-.1584-.9328-.6396-1.2587-1.1964-1.1643-.6113.1015-.9422.5857-.7868 1.5064l.4226 2.486-.5427.0944-.4166-2.4494c-.2189-1.2872.3652-1.9287 1.267-2.081.8524-.1461 1.5777.2274 1.7996 1.5318l.4197 2.4687z"/><path d="m37.3882 75.9409c0 .5929-.007 1.3126-.0383 1.8353h.0131c.1785-.4821.3793-1.008.6254-1.5805l.8635-2.0119.4136.0244.5699 2.0616c.1665.6162.2966 1.1664.3864 1.678h.0121c.0434-.5279.115-1.2313.1896-1.8718l.2189-1.812.5196.0305-.5407 4.2258-.6941-.0406-.6052-2.0952c-.1463-.5319-.2562-1.0059-.343-1.4536h-.0131c-.1372.4213-.3137.8791-.5336 1.4029l-.8696 2.0088-.694-.0416-.0171-4.2583.5386.0315z"/><path d="m33.5258 73.7666c-.8433-.1929-1.4949.4791-1.7078 1.4211-.1846.8233.0484 1.7815.9351 1.9835s1.5131-.5268 1.7149-1.4211c.2017-.874-.1009-1.7876-.9361-1.9784zm.1231-.4314c1.0945.2497 1.6614 1.2709 1.3779 2.5255-.2955 1.3197-1.2962 1.9927-2.3967 1.7419-1.1309-.2578-1.6625-1.2901-1.3851-2.5204.3198-1.4212 1.3528-1.9866 2.3978-1.749z"/><path d="m30.2998 72.4997-1.5454 3.9589-.5599-.2223-.4691-2.5002c-.103-.5154-.1704-1.0374-.2017-1.5622h-.0192c-.1594.5471-.3359 1.0334-.575 1.6434l-.6496 1.6607-.4781-.1898 1.5464-3.9589.5134.2031.4641 2.5011c.1058.5311.1766 1.0685.2118 1.609h.0202c.1664-.5076.345-.9877.6052-1.6455l.6607-1.6901z"/><path d="m25.0896 70.6624c-.1463-.1133-.3011-.2151-.463-.3045-1.0087-.5948-1.8843-.3421-2.4563.6507-.5114.875-.3359 1.6992.6617 2.2819.1838.1113.3785.2031.5811.2741zm-1.3991 3.5336c-.3631-.1427-.7151-.3123-1.0531-.5076-.6769-.3959-1.0713-.8303-1.2176-1.3196s-.1009-1.0334.2451-1.6241c.346-.5908.8191-.9796 1.3497-1.1166.5458-.1411 1.2166 0 1.9257.4182.2902.1641.5695.3468.8363.5471z"/><path d="m18.6366 68.1583 1.2912 1.01.9351-1.209-1.4435-1.1308.2794-.3634 1.8803 1.4719-2.5935 3.3548-1.8057-1.414.2805-.3634 1.3709 1.073.8191-1.0608-1.2912-1.01z"/><path d="m5.80438 53.281-.16644-.5298 3.59418-1.1349-.54069-1.7328.43679-.138.70511 2.2626z"/><path d="m6.45201 46.5956.30566 1.6171 1.49496-.2863-.33994-1.8089.44889-.0863.44385 2.3551-4.15.7927-.42569-2.2616.44889-.0863.32381 1.7166 1.31037-.2508-.30364-1.617z"/><path d="m3.88013 38.9064-.03003.5544 4.21738.2313.03003-.5544z"/><path d="m11.1539 22.8639-.8081 1.4303 1.3225.7582.9059-1.6018.3974.2284-1.1772 2.084-3.67184-2.1023 1.13081-1.9997.39644.2274-.85744 1.5186 1.16006.6638.81007-1.4312z"/><path d="m10.3882 19.9202.3268-.4477 3.0353 2.2434 1.0683-1.4638.3692.2731-1.3951 1.9114z"/><path d="m18.9323 14.0793c-.4156-.4222-.919-.9328-1.265-1.3196l-.0091.0081c.2119.468.4409.9826.6688 1.5633l.807 2.0393-.3086.2771-1.8521-1.0516c-.5498-.3188-1.0309-.6091-1.4526-.9136l-.0091.0081c.34.4061.7838.9522 1.1813 1.4577l1.1187 1.4374-.3884.3471-2.5895-3.3731.5195-.467 1.8975 1.0537c.4761.2751.8877.5309 1.263.7847l.009-.0082c-.2017-.3948-.3944-.8455-.6052-1.3703l-.7969-2.0383.5205-.467 3.0041 2.9996-.4035.3614z"/><path d="m20.1599 10.2219 1.3436 2.1317c.5044.7989 1.0744.9136 1.5495.6091.5245-.335.6456-.9065.1483-1.6942l-1.3437-2.13172.464-.29742 1.3255 2.09714c.6961 1.1024.4035 1.9175-.3712 2.4109-.7293.4679-1.5413.406-2.2485-.7106l-1.3336-2.1124z"/><path d="m26.1245 11.5943-1.7148-3.88474.5507-.24666 2.0982 1.41503c.4362.28904.8521.60785 1.2448.95419l.0152-.01219c-.2744-.49739-.4953-.96535-.7606-1.56526l-.7203-1.63125.4691-.20911 1.7149 3.88479-.5044.2253-2.0952-1.42112c-.4508-.29629-.8815-.62252-1.2892-.97652l-.0141.0132c.2451.47811.456.94302.7415 1.58659l.7323 1.66165z"/><path d="m31.0766 9.14702c.1827-.02744.363-.0685.5397-.12282 1.1257-.30453 1.5625-1.1166 1.2609-2.21899-.2623-.97956-.9694-1.43229-2.0821-1.12472-.209.05302-.4119.12822-.6052.22434zm-1.5202-3.48176c.3567-.15916.7246-.29181 1.1005-.3969.7556-.20301 1.3397-.18576 1.7876.05076.4478.23651.8069.65372.9825 1.31962.1755.6659.12 1.27292-.1513 1.75306-.2714.48013-.8555.86993-1.6463 1.08919-.3197.09335-.6453.16524-.9745.2152z"/><path d="m37.0866 7.94308c.8595-.10151 1.2539-.95013 1.146-1.90837-.1009-.83846-.6315-1.66678-1.5344-1.56324-.9028.10354-1.2548 1.00291-1.1509 1.91751.1008.89023.6799 1.65358 1.5333 1.55715zm.0252.44867c-1.1096.12993-1.9842-.64763-2.1294-1.92867-.1534-1.33992.5699-2.31238 1.6906-2.43622 1.151-.13298 1.9933.6659 2.1356 1.91954.1644 1.4465-.6255 2.32455-1.6897 2.44738z"/><path d="m43.1644 6.68032c-.1298-.00974-.2538-.05794-.3563-.13853-.1026-.08058-.1792-.18994-.2201-.31426-.0408-.12433-.0442-.25805-.0097-.3843.0346-.12625.1056-.23937.204-.32508.0983-.08571.2198-.14017.3489-.15652s.2601.00616.3766.06468c.1164.05852.213.15043.2775.26413.0646.1137.0942.24409.0852.37473-.006.08713-.029.1722-.0678.25033-.0388.07814-.0925.14778-.1582.20495-.0656.05716-.1418.10071-.2242.12815-.0824.02743-.1693.03821-.2559.03172z"/><path d="m47.9661 8.85463.0554-4.38417.5569.15023-.0666 2.20782c-.0172.55018-.0424 1.08412-.0747 1.50031h.0122c.1745-.39183.4317-.84354.7061-1.33688l1.0955-1.92867.5508.1482-.0565 2.21696c-.0162.52379-.0353 1.03539-.0898 1.48508h.0131c.2018-.42735.4398-.85268.7061-1.32977l1.0885-1.92867.5397.14617-2.2475 3.79441-.5508-.14719.0545-2.2606c.0043-.475.0342-.94941.0897-1.42113h-.0111c-.1976.43176-.4216.85078-.6708 1.25465l-1.15 1.98247z"/><path d="m54.8034 10.8005c.7848.3645 1.5616-.1563 1.964-1.03231.3511-.7674.3198-1.75509-.5043-2.13777-.8242-.38269-1.5898.20301-1.9731 1.0364-.3723.81207-.2714 1.76928.5043 2.13168zm-.2098.3969c-1.0189-.473-1.3618-1.5906-.8272-2.75897.5609-1.22522 1.6806-1.67795 2.7035-1.20288 1.0531.48724 1.3618 1.60993.8362 2.75393-.6052 1.32472-1.734 1.66172-2.7065 1.21002z"/><path d="m59.3701 11.1346.4681.3045c.4902.3198.9734.2518 1.2357-.1563.2966-.4609.0948-.8781-.3904-1.1927-.1495-.10268-.3103-.1875-.4792-.2528zm.5831-1.91854c.3247.13489.6364.2997.931.49232.4893.31772.7485.62222.8403.96742.036.1462.0407.2985.0138.4468-.027.1482-.085.289-.1701.4129-.1302.2038-.3223.3596-.5478.4444-.2254.0847-.4721.0937-.7031.0256l-.0101.0163c.2018.271.2018.6293.0575 1.0587-.2017.5735-.3399.9735-.3601 1.1552l-.4741-.3045c.0071-.1391.1261-.4964.3168-1.004.2118-.5613.1361-.8719-.2704-1.1592l-.4307-.2812-.9947 1.548-.4569-.2984z"/><path d="m63.8136 11.8289.4236.3563-2.4099 2.9122 1.3861 1.1613-.2926.3543-1.8107-1.5176z"/><path d="m8.11638 35.6662c.13517-.8598-.57297-1.4708-1.52019-1.6241-.82818-.133-1.7643.1634-1.90754 1.0658-.14325.9024.62038 1.4871 1.52422 1.6313.87862.1411 1.76632-.2142 1.90149-1.0679zm.43578.0965c-.17754 1.1166-1.15401 1.749-2.421 1.5459-1.32348-.2121-2.05987-1.1734-1.88233-2.2941.18359-1.1531 1.17318-1.754 2.41091-1.5541 1.4294.2284 2.05786 1.2313 1.88838 2.2951z"/><path d="m9.61855 29.6507c.08939-.1629.16595-.3326.22898-.5075.44087-1.0851.06557-1.9236-.99261-2.352-.9341-.3837-1.71992-.0893-2.14965.9877-.0826.1989-.14512.4057-.18661.6172zm-3.6769-.8871c.09024-.3805.20825-.7537.35306-1.1166.29254-.7319.66174-1.1867 1.12073-1.4039.45898-.2172 1.00269-.2467 1.63619.0091.63349.2558 1.08137.6761 1.29727 1.1846.2159.5086.1725 1.21-.1332 1.9764-.1193.3135-.2591.6187-.4186.9136z"/><path d="m64.6195 17.6747c.1073.1504.2261.2923.3551.4243.7848.8669 1.6977.8862 2.536.1097.7475-.6832.8211-1.5227.0403-2.3784-.1429-.1608-.3021-.3061-.4751-.4334zm2.3786-2.96c.3035.2465.5887.5148.8534.803.5306.5796.7798 1.1166.7768 1.6241-.0031.5075-.2099 1.0151-.7122 1.483-.5024.468-1.0703.6913-1.6201.67-.5497-.0213-1.16-.3654-1.7148-.9735-.2296-.2423-.4429-.4997-.6386-.7704z"/><path d="m68.926 22.666c-.0026.3453.0907.6846.2693.9795.2905.4802.7061.6091 1.0753.3827.3319-.203.4126-.5187.3027-1.1166-.1453-.7238-.0565-1.279.4468-1.5886.5619-.3431 1.263-.131 1.6897.5745.1761.2709.2803.5826.3026.9055l-.458.1015c-.0082-.282-.0918-.5566-.2421-.7948-.3026-.4954-.7061-.5076-.9542-.3533-.338.2031-.3702.5299-.2603 1.1481.1311.7613.0272 1.2465-.5044 1.5703-.5558.3421-1.2912.2315-1.8097-.6253-.2118-.3512-.3349-.7998-.3238-1.0709z"/><path d="m71.6527 29.0996c-.1705-.136-.4287-.4689-.6396-.9409-.4852-1.0943-.1634-2.22 1.1097-2.7926 1.2105-.5471 2.3917-.0903 2.9253 1.1166.2129.4792.2492.8365.2381.9999l-.462.0558c.0033-.2936-.0599-.5841-.1846-.8496-.4035-.9136-1.2519-1.2526-2.2647-.7979-.9492.4294-1.3113 1.2466-.8887 2.1845.121.2847.3004.5403.5266.7502z"/><path d="m65.8936 62.8655c.0413-.2172.2138-.6009.5295-1.009.7344-.943 1.8743-1.1825 2.9708-.3197 1.0461.8242 1.1944 2.085.3874 3.1234-.3208.4122-.6174.6091-.7657.6791l-.2653-.3857c.259-.135.4845-.3268.6598-.5614.6052-.7846.5174-1.6992-.3571-2.3864-.8191-.6456-1.7048-.5817-2.3343.2284-.1937.2403-.3346.5191-.4136.8181z"/><path d="m63.9478 65.2328c-.6234.6029-.4236 1.5226.2401 2.2169.5831.6091 1.5081.939 2.1618.3045.6536-.6344.3934-1.5622-.2411-2.226-.6164-.6446-1.5374-.8994-2.1567-.3046zm-.2905-.3401c.807-.7836 1.9681-.6984 2.8548.2284.929.9735.9412 2.1865.1291 2.9732-.8362.8121-1.9872.6882-2.8558-.2203-1.0027-1.0496-.9078-2.2332-.1331-2.9772z"/><path d="m15.7214 64.6906c.087.0968.1438.2173.1629.3464.0192.1291.0001.261-.0551.3792-.0551.1182-.1437.2173-.2547.2849s-.2394.1007-.369.095c-.1296-.0056-.2546-.0496-.3594-.1266s-.1846-.1834-.2294-.3059c-.0449-.1225-.0527-.2557-.0225-.3826.0302-.127.097-.2421.192-.331.1283-.1193.2983-.1826.4729-.1759.1745.0067.3393.0827.4582.2115z"/><path d="m12.3854 57.9424c.1897.1096.4963.3969.7778.8313.6506 1.003.5044 2.1662-.6587 2.9306-1.1097.7309-2.3474.4649-3.06361-.6385-.28346-.4395-.37425-.7867-.38938-.9481l.44688-.1289c.04311.2912.15105.5688.31574.8121.54067.8344 1.43037 1.0415 2.35947.4314.8716-.5725 1.0975-1.4353.5387-2.2961-.1637-.262-.3802-.4864-.6355-.6588z"/><path d="m10.7935 55.3387c-.3671-.7867-1.29519-.8933-2.16373-.4832-.75958.3583-1.36887 1.1328-.98252 1.9611.38635.8284 1.34265.8771 2.17083.4863.80702-.3797 1.34162-1.1755.97752-1.9581zm.4126-.1665c.4772 1.0222.0232 2.0992-1.1338 2.6453-1.21051.5725-2.36049.1939-2.83864-.8334-.49126-1.0577-.00908-2.1144 1.12678-2.6493 1.31137-.6182 2.38876-.1442 2.84366.8313z"/><path d="m7.80274 41.3051c.17607.4111.27852.8502.30262 1.2972.0343.6416-.10087 1.1796-.4731 1.6161-.32986.3847-.88064.6415-1.53835.678-1.25791.0681-2.22429-.7582-2.29995-2.1804-.0284-.364.01831-.73.13719-1.075l.45091.1137c-.11578.302-.16033.6269-.13012.9491.05447 1.0324.72932 1.6719 1.78649 1.6151 1.05717-.0569 1.66747-.736 1.614-1.7308-.01916-.3593-.08271-.6019-.15131-.7247l-1.25892.069.0464.8567-.43779.0234-.07465-1.3978z"/><path d="m76.2536 29.9228-1.6998.4913.5639 1.9754 1.6977-.4893.1534.5329-4.0613 1.1714-.1513-.5329 1.9035-.5502-.5629-1.9763-1.9025.5491-.1533-.5329 4.0602-1.1714z"/><path d="m73.8486 36.93c.1089.8618.9603 1.2485 1.9116 1.1267.8322-.1066 1.6473-.6568 1.5333-1.5632-.114-.9065-1.0088-1.2506-1.9167-1.1329-.8826.1127-1.6351.7045-1.5262 1.5612zm-.4449.0314c-.1422-1.1166.6184-2.0058 1.8864-2.1692 1.3295-.1695 2.305.5441 2.4482 1.6698.1463 1.1562-.6365 2.0149-1.8803 2.1733-1.4354.1837-2.3201-.5989-2.4543-1.6688z"/><path d="m74.0999 42.1069c-.0252.87.7556 1.3846 1.7149 1.4131.8393.0243 1.73-.3898 1.7562-1.3034s-.807-1.3937-1.7199-1.4212c-.8887-.0263-1.724.4406-1.7492 1.3044zm-.4448-.0395c.0332-1.1278.9209-1.883 2.198-1.8455 1.3417.0396 2.193.8984 2.1598 2.0302-.0343 1.1653-.9392 1.8891-2.1921 1.8525-1.4475-.0436-2.198-.9562-2.1657-2.0301z"/><path d="m77.6254 46.2049-.0877.5471-3.7193-.5969-.2845 1.7927-.4509-.0721.3702-2.3408z"/><path d="m73.2354 52.671c.0008-.1761.0709-.3446.1951-.4687.1241-.1241.2921-.1935.4671-.1931s.3426.0706.4662.1952c.1236.1247.193.2936.193.4696 0 .1761-.0694.345-.193.4696-.1236.1247-.2912.1949-.4662.1953s-.343-.069-.4671-.1931c-.1242-.1241-.1943-.2926-.1951-.4687z"/><path d="m41.6232 43.0632c-.803 1.3859-1.2042 3.5711-1.2035 6.5554.0007 2.9844.4018 5.1692 1.2035 6.5545.8009 1.3879 2.161 2.0812 4.0803 2.0799 1.9194-.0014 3.2795-.6947 4.0804-2.0799.8023-1.3867 1.2035-3.5715 1.2035-6.5545s-.4012-5.1675-1.2035-6.5534c-.8029-1.388-2.1631-2.0796-4.0804-2.0748-1.9173.0047-3.2774.6973-4.0803 2.0778m-13.5667-24.2606c-.8144.7999-1.2213 1.8008-1.2206 3.0026.0006 1.2019.4075 2.2028 1.2206 3.0027.7934.7708 1.8532 1.2017 2.9561 1.2017s2.1627-.4309 2.9562-1.2017c.8144-.8013 1.2215-1.8039 1.2215-3.0077 0-1.2039-.4071-2.2048-1.2215-3.0027-.7931-.7716-1.8531-1.2029-2.9562-1.2029s-2.1631.4313-2.9561 1.2029m2.4704-5.3668c-4.0242 1.5337-7.6598 3.9474-10.6444 7.0668s-5.2438 6.8667-6.6143 10.9714c1.358-3.6269 3.4308-6.94 6.0938-9.7402 2.663-2.8001 5.8613-5.0294 9.4024-6.5539 3.5412-1.5244 7.3521-2.3125 11.2037-2.3169s7.6643.775 11.2089 2.2914c-1.4093 7.7272-5.0417 14.8681-10.4466 20.5373v4.9739c1.033-.625 2.1319-1.1323 3.2764-1.5125 1.139-.3947 2.3342-.6004 3.5387-.609 1.4558-.0161 2.9.2621 4.2469.8182 1.2528.5164 2.3919 1.2767 3.352 2.2372.9546.9623 1.7045 2.1099 2.2042 3.3732.5346 1.358.8015 2.8078.7858 4.2684 0 1.6857-.3487 3.1969-1.0461 4.5334-.673 1.3044-1.6097 2.4527-2.7498 3.3711-1.1615.9298-2.4836 1.6356-3.8999 2.082-1.4719.4747-3.0087.7145-4.5545.7105-1.85 0-3.8396-.3329-5.9688-.9988-2.025-.6211-3.9743-1.469-5.8114-2.5276.1056-.63.193-1.4012.2623-2.3134s.1217-1.8935.1574-2.9437c.0363-1.0517.0538-2.1219.0524-3.2108v-3.1041l-.0272-16.7094c-1.2872.36-2.8178.6307-4.5918.8121-1.7741.1813-3.7244.3072-5.8508.3776v1.0658c1.6059 0 2.7223.2105 3.3491.6314.6267.4209.9411 1.0875.9431 1.9997v11.501c-5.0635 2.3257-10.5551 3.5581-16.1208 3.6178 3.1594 12.8916 14.7278 22.4568 28.5143 22.4568 16.2238 0 29.3749-13.2317 29.3749-29.5594 0-12.5384-7.7674-23.2456-18.7164-27.5414v.0193c-6.7198-2.6446-14.1783-2.6711-20.9164-.0742"/><path d="m70.7367 14.2144c6.5523 7.3812 10.1682 16.9355 10.1551 26.8329 0 22.2842-17.9558 40.3508-40.0999 40.3508-2.4966.0003-4.9878-.2328-7.4416-.6963 3.2697.8642 6.6364 1.3006 10.0169 1.2983h.1887c21.2392-1.4313 38.0299-19.2147 38.0299-40.9508.0095-6.4968-1.5197-12.9023-4.4607-18.6858-1.7646-2.9855-3.9115-5.7246-6.3854-8.1471"/><path d="m.690919 41.0471c0-19.9891 14.445281-36.57978 33.401781-39.79152 3.0433-.688762 6.1531-1.036012 9.2724-1.035395.7455 0 1.4849.022332 2.2193.058875-1.5921-.1883193-3.1937-.2828839-4.7966-.28321039-22.5285 0-40.79190987 18.37825039-40.79190987 41.04725039-.01275023 9.0867 2.98407987 17.9187 8.51687987 25.1001-2.1324-3.1761-3.82325-6.6306-5.02559-10.2677-1.85415-4.7208-2.802955-9.7522-2.796261-14.8284z"/><path d="m80.5145 12.6135c.4206 0 .8342-.0132.8342-.4892 0-.3908-.3238-.4832-.6587-.4832h-.6284v.9724zm-.4529 1.5369h-.343v-2.8007h1.0672c.6295 0 .9079.2731.9079.7756 0 .5024-.3228.7166-.699.7816l.8291 1.2445h-.4035l-.7837-1.2445h-.576zm-1.5041-1.4008c0 1.1602.8696 2.0799 2.0357 2.0799s2.0326-.9197 2.0326-2.0799c0-1.1603-.8685-2.0789-2.0326-2.0789s-2.0357.9196-2.0357 2.0789zm4.4385 0c.0002.4795-.1409.9484-.4056 1.3472s-.6409.7096-1.0812.8932-.9248.2316-1.3922.138-.8967-.3246-1.2336-.6637c-.3369-.3392-.5663-.7713-.6591-1.2417s-.0448-.9579.1378-1.4008c.1826-.443.4916-.8215.8881-1.0877.3964-.2661.8624-.408 1.3389-.4076.3182-.0056.6342.0532.9293.1729s.5633.2978.7886.5238c.2254.226.4033.4953.5232.7919.1199.2965.1794.6143.1749.9345"/></g></svg>