<svg width="80" height="77" viewBox="0 0 80 77" fill="none" xmlns="http://www.w3.org/2000/svg">
<path d="M70.1744 58.1192L69.9621 57.1193L70.181 56.7664L70.4928 57.5898L70.1744 58.1192ZM67.5208 56.6683L68.3169 55.3612L67.0763 54.6358L66.1874 56.1063L65.8159 55.8841L66.9702 53.9757L70.4065 55.9952L69.2987 57.8251L68.9272 57.6094L69.7697 56.2174L68.6817 55.5638L67.8923 56.8709L67.5208 56.6683Z" fill="white"/>
<path d="M63.3945 59.2694C63.4899 58.9261 63.6597 58.6073 63.8921 58.3348C64.0446 58.117 64.2431 57.9342 64.474 57.7989C64.7049 57.6637 64.9627 57.5792 65.2299 57.5513C65.497 57.5233 65.7671 57.5526 66.0217 57.6371C66.2762 57.7216 66.5093 57.8593 66.7048 58.0407C66.934 58.198 67.1271 58.401 67.2715 58.6366C67.4158 58.8722 67.5082 59.1351 67.5426 59.4082C67.577 59.6813 67.5527 59.9584 67.4712 60.2217C67.3897 60.4849 67.2529 60.7282 67.0697 60.9359C66.8841 61.2068 66.6364 61.4307 66.3466 61.5895L66.0945 61.23C66.3399 61.1074 66.5532 60.9307 66.7181 60.7137C66.8605 60.5535 66.9659 60.3647 67.0269 60.1604C67.088 59.9561 67.1033 59.7412 67.0717 59.5305C67.0402 59.3198 66.9626 59.1184 66.8442 58.9401C66.7259 58.7619 66.5697 58.6111 66.3864 58.4982C66.2342 58.353 66.0517 58.2423 65.8516 58.1736C65.6515 58.1049 65.4387 58.0799 65.2278 58.1005C65.017 58.121 64.8132 58.1865 64.6307 58.2924C64.4481 58.3984 64.2911 58.5422 64.1707 58.7139C63.9887 58.9374 63.8555 59.1955 63.7793 59.472L63.3945 59.2694Z" fill="white"/>
<path d="M61.2717 61.1516C61.4581 60.9795 61.6789 60.8475 61.92 60.7642C62.1611 60.6809 62.4172 60.6481 62.6719 60.6678C62.9266 60.6875 63.1743 60.7592 63.3992 60.8785C63.6242 60.9978 63.8214 61.1621 63.9783 61.3607C64.1795 61.5281 64.3433 61.7347 64.4593 61.9677C64.5753 62.2006 64.641 62.4547 64.6522 62.7139C64.6634 62.9731 64.6199 63.2317 64.5245 63.4735C64.4291 63.7153 64.2837 63.935 64.0977 64.1186C63.9133 64.2928 63.6936 64.4268 63.4531 64.5117C63.2126 64.5966 62.9566 64.6306 62.7018 64.6115C62.447 64.5924 62.1992 64.5206 61.9745 64.4008C61.7498 64.2809 61.5533 64.1158 61.3978 63.916C60.4425 62.9423 60.5354 61.8443 61.2651 61.1516H61.2717ZM61.5503 61.4653C60.9599 62.0273 61.1457 62.8769 61.7759 63.5239C62.4061 64.1709 63.2022 64.3931 63.8257 63.8049C64.4493 63.2168 64.1972 62.3541 63.5936 61.7397C62.9899 61.1254 62.1408 60.9032 61.5503 61.4587V61.4653Z" fill="white"/>
<path d="M61.232 66.4911L60.8141 66.7917L58.6846 63.9553L57.3578 64.9552L57.0991 64.6088L58.9035 63.3018L61.232 66.4911Z" fill="white"/>
<path d="M55.0954 67.9091L56.4222 67.1575L55.7057 65.9223L54.1998 66.7654L53.9875 66.3929L55.9777 65.2949L57.9679 68.7195L56.0838 69.7782L55.8716 69.4057L57.2978 68.6019L56.6743 67.5235L55.3475 68.2751L55.0954 67.9091Z" fill="white"/>
<path d="M52.1369 71.4775C51.8083 71.6437 51.4667 71.7836 51.1153 71.8958C50.5778 72.124 49.9715 72.138 49.4237 71.935C49.1811 71.8236 48.9663 71.661 48.7944 71.4589C48.6224 71.2568 48.4976 71.02 48.4286 70.7652C48.2286 70.2342 48.2501 69.6468 48.4883 69.1313C48.831 68.5933 49.3699 68.205 49.9942 68.0464C50.2916 67.945 50.5951 67.8621 50.903 67.7981L52.1369 71.4775ZM50.5315 68.3275C50.3606 68.3624 50.1922 68.4082 50.0274 68.4647C49.8012 68.5116 49.5886 68.6081 49.4054 68.747C49.2223 68.8859 49.0732 69.0636 48.9693 69.267C48.8655 69.4705 48.8094 69.6943 48.8054 69.922C48.8014 70.1497 48.8494 70.3753 48.946 70.5822C48.9935 70.7895 49.0884 70.9833 49.2233 71.1491C49.3582 71.3149 49.5297 71.4482 49.7247 71.5389C49.9198 71.6296 50.1332 71.6753 50.3489 71.6726C50.5645 71.6699 50.7767 71.6189 50.9694 71.5233C51.1616 71.4608 51.3481 71.3821 51.5266 71.288L50.5315 68.3275Z" fill="white"/>
<path d="M46.5712 73.0919L46.1666 70.7849C46.0206 69.9223 45.5629 69.6216 45.0322 69.7066C44.5015 69.7915 44.1432 70.249 44.2892 71.1052L44.6939 73.4057L44.1764 73.4972L43.785 71.2228C43.5727 70.0334 44.13 69.4386 44.9791 69.2949C45.8282 69.1511 46.4784 69.504 46.684 70.713L47.082 73.007L46.5712 73.0919Z" fill="white"/>
<path d="M36.3948 71.3992C36.3948 71.9481 36.3948 72.6148 36.3616 73.1049C36.5341 72.654 36.7265 72.1704 36.9586 71.6344L37.7746 69.7718H38.166L38.71 71.6802C38.8625 72.2553 38.9886 72.7651 39.0748 73.2422C39.1213 72.752 39.1876 72.0985 39.2606 71.5037L39.4662 69.8241H39.9571L39.4463 73.7454L38.7829 73.7062L38.2124 71.7455C38.0731 71.2489 37.967 70.811 37.8874 70.3992C37.7613 70.7848 37.5888 71.2096 37.3832 71.7063L36.5606 73.5689H35.8972V69.615L36.408 69.6477L36.3948 71.3992Z" fill="white"/>
<path d="M32.8525 68.9745C33.1028 69.0314 33.3382 69.1393 33.5436 69.2914C33.7489 69.4435 33.9196 69.6363 34.0446 69.8574C34.1696 70.0785 34.2462 70.3229 34.2694 70.575C34.2926 70.827 34.2619 71.0811 34.1793 71.3207C34.1488 71.5783 34.0643 71.8268 33.9311 72.0504C33.7979 72.2741 33.6189 72.468 33.4056 72.6198C33.1922 72.7716 32.9491 72.8781 32.6917 72.9323C32.4343 72.9866 32.1683 72.9875 31.9105 72.935C31.6599 72.8798 31.4239 72.7731 31.2181 72.6219C31.0122 72.4707 30.841 72.2784 30.7158 72.0575C30.5906 71.8367 30.5141 71.5923 30.4913 71.3403C30.4686 71.0883 30.5 70.8344 30.5837 70.5953C30.8889 69.2882 31.8641 68.7523 32.8525 68.9745ZM32.7397 69.3797C31.937 69.1967 31.3201 69.8241 31.1211 70.6868C30.9486 71.4514 31.1675 72.3402 32.0034 72.5298C32.8392 72.7193 33.4363 72.0396 33.6287 71.2227C33.821 70.4057 33.5358 69.5627 32.7464 69.3862L32.7397 69.3797Z" fill="white"/>
<path d="M29.6814 68.2033L28.222 71.8697L27.6913 71.6671L27.2402 69.347C27.1448 68.8703 27.0828 68.3877 27.0544 67.9027C26.9018 68.4059 26.736 68.8568 26.5104 69.4254L25.8935 70.9613L25.4424 70.7848L26.9085 67.1184L27.3927 67.3079L27.8306 69.628C27.9318 70.1198 28.0005 70.6176 28.0362 71.1181C28.1888 70.6476 28.3613 70.2032 28.6067 69.5954L29.2303 68.0268L29.6814 68.2033Z" fill="white"/>
<path d="M23.4189 69.7783C23.0763 69.6423 22.7438 69.4829 22.4238 69.3012C21.8941 69.0549 21.4809 68.6173 21.2696 68.0791C21.1947 67.8259 21.1768 67.5598 21.2169 67.2991C21.257 67.0384 21.3542 66.7894 21.5017 66.5694C21.6337 66.3206 21.8151 66.1005 22.035 65.922C22.2549 65.7435 22.5089 65.6103 22.7821 65.5303C23.4179 65.4208 24.0721 65.559 24.6064 65.9159C24.8802 66.0692 25.1439 66.2394 25.3958 66.4256L23.4189 69.7783ZM24.7457 66.5106C24.6086 66.406 24.4621 66.3141 24.3079 66.2361C24.1235 66.0985 23.9099 66.004 23.6831 65.9597C23.4562 65.9154 23.2221 65.9225 22.9985 65.9804C22.7748 66.0383 22.5675 66.1456 22.3921 66.294C22.2167 66.4425 22.0778 66.6283 21.986 66.8374C21.861 67.0101 21.7772 67.2084 21.7411 67.4175C21.705 67.6267 21.7174 67.8411 21.7774 68.0449C21.8374 68.2486 21.9434 68.4363 22.0875 68.5939C22.2317 68.7515 22.4102 68.8749 22.6096 68.9548C22.785 69.056 22.9693 69.1413 23.1602 69.2097L24.7457 66.5106Z" fill="white"/>
<path d="M18.6359 64.2102L19.8632 65.1448L20.7455 64.0272L19.3789 62.9816L19.6443 62.6417L21.4222 64.0076L18.9676 67.1185L17.2561 65.8114L17.5215 65.4781L18.8482 66.4715L19.6244 65.4846L18.4038 64.5501L18.6359 64.2102Z" fill="white"/>
<path d="M15.8763 60.9425C15.9593 61.0322 16.0135 61.1442 16.0319 61.2643C16.0503 61.3843 16.0322 61.5071 15.9799 61.617C15.9276 61.727 15.8433 61.8192 15.7379 61.882C15.6324 61.9448 15.5104 61.9754 15.3872 61.9699C15.2641 61.9644 15.1454 61.9231 15.0461 61.8512C14.9467 61.7793 14.8713 61.68 14.8292 61.5659C14.7871 61.4518 14.7803 61.3279 14.8097 61.21C14.839 61.092 14.9032 60.9853 14.994 60.9033C15.1195 60.8011 15.2788 60.748 15.4415 60.754C15.6042 60.76 15.759 60.8248 15.8763 60.9359V60.9425Z" fill="white"/>
<path d="M12.7185 54.701C13.0148 54.9059 13.2654 55.1684 13.4549 55.4722C13.6152 55.6847 13.727 55.9288 13.7827 56.1878C13.8383 56.4468 13.8364 56.7146 13.7772 56.9728C13.718 57.231 13.6028 57.4736 13.4395 57.6838C13.2762 57.8941 13.0688 58.0671 12.8313 58.191C12.606 58.355 12.3481 58.4704 12.0745 58.5295C11.8009 58.5886 11.5177 58.5901 11.2434 58.534C10.9691 58.4779 10.71 58.3653 10.4829 58.2037C10.2558 58.0421 10.0659 57.8351 9.92565 57.5963C9.73871 57.3351 9.61399 57.0357 9.56079 56.7205L9.98536 56.6029C10.0222 56.8714 10.1246 57.127 10.2839 57.3479C10.3911 57.5332 10.5381 57.6932 10.7147 57.8167C10.8913 57.9402 11.0931 58.0242 11.306 58.0628C11.519 58.1014 11.7379 58.0937 11.9475 58.0402C12.1571 57.9867 12.3523 57.8887 12.5195 57.7531C12.7078 57.6584 12.8729 57.5244 13.0033 57.3603C13.1336 57.1962 13.226 57.0061 13.274 56.8032C13.322 56.6003 13.3245 56.3896 13.2812 56.1856C13.238 55.9817 13.1501 55.7895 13.0237 55.6226C12.8704 55.3789 12.667 55.1697 12.4266 55.0082L12.7185 54.701Z" fill="white"/>
<path d="M11.5842 52.1392C11.6906 52.3681 11.7469 52.6164 11.7497 52.868C11.7524 53.1197 11.7015 53.3691 11.6002 53.6001C11.4989 53.8312 11.3495 54.0387 11.1616 54.2092C10.9737 54.3797 10.7515 54.5095 10.5095 54.59C10.2846 54.7246 10.0337 54.8117 9.77274 54.8456C9.51181 54.8795 9.24657 54.8595 8.99389 54.787C8.7412 54.7145 8.5066 54.5909 8.30499 54.4243C8.10339 54.2576 7.93919 54.0514 7.82283 53.8189C7.71599 53.5876 7.66013 53.3366 7.65895 53.0826C7.65778 52.8285 7.7113 52.577 7.81599 52.3448C7.92068 52.1126 8.07416 51.9049 8.2663 51.7354C8.45844 51.5659 8.68488 51.4385 8.93068 51.3615C10.1712 50.7864 11.1928 51.2243 11.624 52.1327L11.5842 52.1392ZM11.1994 52.2961C10.8479 51.5641 9.97219 51.4661 9.1496 51.8451C8.42651 52.1784 7.82282 52.8973 8.21422 53.662C8.60562 54.4266 9.48792 54.4789 10.2707 54.1129C11.0535 53.747 11.5444 53.0215 11.1994 52.2961Z" fill="white"/>
<path d="M6.4829 50.3811L6.33032 49.891L9.73348 48.8388L9.21604 47.218L9.63397 47.0873L10.2974 49.1852L6.4829 50.3811Z" fill="white"/>
<path d="M7.0998 44.1856L7.38505 45.6887L8.80469 45.4208L8.47964 43.7411L8.9042 43.6627L9.32877 45.8456L5.3949 46.5645L4.99023 44.4666L5.42144 44.3882L5.72659 45.9763L6.96712 45.7475L6.67523 44.2444L7.0998 44.1856Z" fill="white"/>
<path d="M8.38021 39.2775C8.54243 39.6622 8.63882 40.0707 8.66546 40.4865C8.71042 40.7559 8.69452 41.0316 8.61891 41.2942C8.5433 41.5568 8.40983 41.7997 8.22801 42.0057C8.0462 42.2117 7.82051 42.3756 7.56703 42.4858C7.31356 42.596 7.03853 42.6497 6.76155 42.6432C6.4794 42.6704 6.1946 42.6379 5.92624 42.5478C5.65788 42.4577 5.41215 42.3122 5.2055 42.121C4.99885 41.9298 4.83606 41.6973 4.72801 41.4391C4.61997 41.1809 4.56917 40.9029 4.57902 40.6238C4.5528 40.285 4.59796 39.9446 4.71169 39.6238L5.13626 39.7284C5.02832 40.0096 4.98747 40.3115 5.01685 40.6107C5.01107 40.8236 5.05232 41.0353 5.13775 41.231C5.22318 41.4267 5.35075 41.6018 5.51163 41.7441C5.67251 41.8864 5.86287 41.9926 6.06952 42.0554C6.27617 42.1181 6.49419 42.1358 6.70848 42.1073C6.92042 42.1182 7.13223 42.0834 7.32913 42.0054C7.52603 41.9274 7.70328 41.808 7.84854 41.6555C7.9938 41.5031 8.10356 41.3213 8.17018 41.1228C8.2368 40.9243 8.25867 40.7138 8.23426 40.5061C8.23115 40.2808 8.1815 40.0584 8.08832 39.8526L6.90086 39.9179L6.94067 40.6826H6.52937L6.45639 39.3755L8.38021 39.2775Z" fill="white"/>
<path d="M4.65845 37.0553L8.63875 37.271V37.7873L4.65845 37.5716V37.0553Z" fill="white"/>
<path d="M9.08321 34.147C9.04029 34.3946 8.94532 34.6307 8.8044 34.8401C8.66347 35.0495 8.4797 35.2276 8.26487 35.3629C8.05003 35.4983 7.80885 35.5879 7.5568 35.6261C7.30475 35.6643 7.04737 35.6502 6.80117 35.5848C5.54738 35.3822 4.81102 34.4933 5.01667 33.4542C5.05767 33.2056 5.15143 32.9683 5.29184 32.7579C5.43224 32.5474 5.61613 32.3685 5.83149 32.2328C6.04686 32.0971 6.28885 32.0077 6.54167 31.9704C6.79449 31.9331 7.05245 31.9488 7.29871 32.0164C8.62548 32.2255 9.24906 33.1536 9.08984 34.1404L9.08321 34.147ZM8.67191 34.062C8.80459 33.2647 8.12794 32.6961 7.23237 32.5523C6.44958 32.4281 5.56064 32.7092 5.42797 33.5457C5.29529 34.3822 6.01838 34.9181 6.87414 35.0554C7.72991 35.1926 8.54587 34.8593 8.67191 34.0685V34.062Z" fill="white"/>
<path d="M6.61548 27.6508C6.70002 27.2968 6.81088 26.9495 6.94717 26.6116C7.11944 26.0589 7.49898 25.5915 8.00858 25.3045C8.25166 25.193 8.51657 25.1351 8.78474 25.1351C9.05291 25.1351 9.31783 25.193 9.5609 25.3045C9.82994 25.3968 10.0773 25.5415 10.2882 25.7302C10.4991 25.9189 10.6691 26.1475 10.7882 26.4025C10.9903 27.0053 10.945 27.6621 10.6621 28.2324C10.5486 28.5218 10.4156 28.8035 10.2641 29.0755L6.61548 27.6508ZM10.0982 28.4742C10.1799 28.3247 10.2509 28.1696 10.3105 28.0102C10.422 27.8105 10.4862 27.5884 10.4981 27.3607C10.5101 27.133 10.4695 26.9056 10.3795 26.6956C10.2895 26.4856 10.1524 26.2983 9.97846 26.148C9.80451 25.9976 9.59825 25.888 9.37515 25.8274C9.18377 25.7292 8.97218 25.6752 8.75646 25.6696C8.54073 25.6641 8.32656 25.707 8.13021 25.7952C7.93387 25.8834 7.76052 26.0146 7.62334 26.1787C7.48617 26.3428 7.38877 26.5356 7.33856 26.7423C7.2601 26.9279 7.20012 27.1205 7.15945 27.3175L10.0982 28.4742Z" fill="white"/>
<path d="M11.5841 22.1807L10.8212 23.4878L12.0684 24.1936L12.9308 22.71L13.3023 22.9192L12.1878 24.8798L8.71167 22.9192L9.75318 21.0762L10.1247 21.2853L9.31535 22.6904L10.4099 23.344L11.1795 22.0369L11.5841 22.1807Z" fill="white"/>
<path d="M10.8281 19.4554L11.1333 19.0371L14.0124 21.1219L15.0207 19.7625L15.3723 20.0174L14.0455 21.7885L10.8281 19.4554Z" fill="white"/>
<path d="M18.9147 14.0374C18.5233 13.6453 18.0457 13.1747 17.7206 12.8088C17.9262 13.2466 18.1385 13.7237 18.384 14.2596L19.1469 16.1549L18.855 16.4098L17.097 15.436C16.5796 15.1354 16.1218 14.8674 15.7238 14.5864C16.0422 14.9589 16.4668 15.4687 16.8383 15.9327L17.8997 17.2398L17.5348 17.5666L15.0803 14.4361L15.5712 14.0048L17.369 14.9851C17.8201 15.24 18.2115 15.4752 18.5697 15.7105C18.384 15.3445 18.1982 14.9263 17.9926 14.4361L17.1965 12.58L17.6941 12.1487L20.5333 14.9263L20.1552 15.2661L18.9147 14.0374Z" fill="white"/>
<path d="M20.0822 10.4625L21.3492 12.4232C21.8269 13.1617 22.3708 13.2662 22.8219 12.9852C23.273 12.7042 23.4323 12.1487 22.9613 11.4167L21.6876 9.45607L22.1254 9.17505L23.3792 11.1357C24.0426 12.1552 23.7639 12.9133 23.0276 13.3708C22.2912 13.8283 21.5681 13.7433 20.8981 12.7173L19.6377 10.7566L20.0822 10.4625Z" fill="white"/>
<path d="M25.7276 11.737L24.1023 8.13599L24.6264 7.90725L26.6165 9.21434C27.0301 9.48388 27.4247 9.78084 27.7973 10.1032C27.5386 9.63914 27.3263 9.2078 27.0809 8.65229L26.4175 7.1426L26.862 6.94653L28.4873 10.5476L28.0096 10.7567L26.0195 9.44961C25.5911 9.17597 25.1831 8.87238 24.7988 8.54119C25.031 8.9856 25.23 9.41694 25.502 10.0117L26.1654 11.554L25.7276 11.737Z" fill="white"/>
<path d="M28.978 6.23399C29.3152 6.08604 29.6634 5.96369 30.0195 5.86801C30.5686 5.66978 31.1739 5.68615 31.7112 5.91376C31.9479 6.03816 32.1543 6.21197 32.3159 6.42305C32.4774 6.63413 32.5903 6.8774 32.6465 7.13589C32.7336 7.40302 32.7655 7.68461 32.7404 7.96407C32.7153 8.24354 32.6338 8.51525 32.5006 8.76322C32.1345 9.28657 31.5749 9.64785 30.9416 9.76967C30.6395 9.85871 30.3314 9.92642 30.0195 9.97228L28.978 6.23399ZM30.4176 9.46251C30.591 9.44134 30.762 9.40414 30.9284 9.35141C31.1569 9.31647 31.3745 9.23127 31.5649 9.10211C31.7554 8.97295 31.9139 8.80317 32.0287 8.60537C32.1434 8.40758 32.2114 8.18685 32.2276 7.9596C32.2439 7.73236 32.2079 7.50442 32.1225 7.29274C32.0862 7.08123 32.0011 6.88076 31.8736 6.70685C31.7462 6.53294 31.5798 6.39024 31.3874 6.28979C31.1951 6.18934 30.9818 6.13383 30.7642 6.12755C30.5465 6.12128 30.3303 6.16441 30.1323 6.2536C29.9359 6.30255 29.7448 6.37041 29.5618 6.4562L30.4176 9.46251Z" fill="white"/>
<path d="M36.1295 8.76329C35.8775 8.78596 35.6234 8.75672 35.3835 8.67743C35.1435 8.59815 34.923 8.47054 34.7358 8.30274C34.5486 8.13494 34.3989 7.93061 34.2963 7.70273C34.1936 7.47486 34.1401 7.22843 34.1393 6.97911C34.0838 6.72898 34.0813 6.47026 34.1318 6.2191C34.1823 5.96795 34.2849 5.72975 34.433 5.51939C34.5812 5.30903 34.7718 5.13102 34.9929 4.99648C35.214 4.86194 35.4609 4.77376 35.7182 4.73745C35.9725 4.70893 36.23 4.73362 36.4739 4.80992C36.7178 4.88622 36.9427 5.0124 37.1337 5.18021C37.3246 5.34801 37.4775 5.55367 37.5823 5.7837C37.687 6.01374 37.7413 6.26297 37.7415 6.5151C37.8941 7.82219 37.1511 8.6718 36.1428 8.7829L36.1295 8.76329ZM36.1295 8.35156C36.9455 8.26006 37.317 7.46927 37.2174 6.58045C37.1246 5.80273 36.6204 5.03808 35.7646 5.12958C34.9089 5.22107 34.5705 6.05761 34.6701 6.90722C34.7696 7.75683 35.3334 8.44305 36.1229 8.35156H36.1295Z" fill="white"/>
<path d="M41.8678 7.17519C41.7446 7.1671 41.6266 7.12316 41.5287 7.04893C41.4309 6.9747 41.3576 6.87352 41.3182 6.75822C41.2788 6.64293 41.2751 6.5187 41.3074 6.40129C41.3398 6.28388 41.4068 6.17858 41.4999 6.09873C41.5931 6.01888 41.7082 5.96808 41.8307 5.95276C41.9532 5.93745 42.0776 5.95831 42.188 6.01271C42.2985 6.0671 42.3901 6.15259 42.4512 6.25832C42.5122 6.36404 42.5401 6.48526 42.5312 6.6066C42.5261 6.68706 42.5049 6.76574 42.4687 6.83804C42.4325 6.91034 42.3821 6.97483 42.3203 7.02774C42.2586 7.08066 42.1868 7.12095 42.1091 7.14626C42.0314 7.17157 41.9494 7.18141 41.8678 7.17519Z" fill="white"/>
<path d="M46.4119 9.19469L46.4649 5.12964L46.9956 5.26688L46.9293 7.31902C46.9293 7.82878 46.8895 8.31894 46.8563 8.71107C47.0222 8.34509 47.2676 7.92682 47.5197 7.46933L48.5546 5.68515L49.0787 5.8224L49.019 7.88107C49.019 8.36469 49.019 8.84178 48.9394 9.25352C49.1317 8.85485 49.3573 8.46272 49.6027 8.01831L50.6376 6.2276L51.1418 6.36484L49.019 9.88745L48.4949 9.75021L48.5413 7.64579C48.5413 7.11642 48.5811 6.72429 48.6276 6.3387C48.4286 6.73836 48.2072 7.12674 47.9642 7.50201L46.9359 9.31233L46.4119 9.19469Z" fill="white"/>
<path d="M52.714 11.3644C52.4838 11.2563 52.279 11.1019 52.1128 10.9113C51.9466 10.7206 51.8227 10.4979 51.749 10.2573C51.6753 10.0167 51.6534 9.76359 51.6848 9.5142C51.7162 9.2648 51.8001 9.02462 51.9312 8.80905C52.015 8.56295 52.1499 8.33674 52.3273 8.14483C52.5047 7.95291 52.7207 7.7995 52.9616 7.69437C53.2025 7.58923 53.463 7.53468 53.7264 7.53418C53.9899 7.53369 54.2506 7.58726 54.4919 7.69148C54.724 7.7976 54.9308 7.95065 55.099 8.14066C55.2672 8.33067 55.3928 8.55341 55.4679 8.7944C55.543 9.0354 55.5658 9.28926 55.5348 9.53949C55.5038 9.78972 55.4197 10.0307 55.288 10.2468C54.7108 11.4755 53.6428 11.7892 52.7207 11.3709L52.714 11.3644ZM52.913 10.9984C53.656 11.3383 54.3924 10.8546 54.7705 10.0443C55.1487 9.23385 55.0757 8.41692 54.2929 8.08361C53.5101 7.7503 52.7936 8.27314 52.4288 9.04432C52.0639 9.81551 52.1701 10.6847 52.9064 11.005L52.913 10.9984Z" fill="white"/>
<path d="M57.7625 9.52808C58.0695 9.655 58.3647 9.80807 58.6448 9.98556C59.0162 10.1732 59.3009 10.4935 59.4408 10.8809C59.4765 11.0163 59.4819 11.1577 59.4567 11.2954C59.4315 11.433 59.3763 11.5636 59.2949 11.6782C59.1711 11.8674 58.9888 12.0122 58.7748 12.091C58.5609 12.1699 58.3268 12.1787 58.1074 12.1161C58.2029 12.2617 58.2581 12.4295 58.2674 12.6026C58.2767 12.7757 58.2399 12.9482 58.1605 13.103C58.0203 13.449 57.9072 13.8052 57.8222 14.1683L57.3578 13.8872C57.4254 13.5667 57.5254 13.2536 57.6563 12.9527C57.8554 12.4364 57.789 12.1423 57.4043 11.8808L56.993 11.6194L56.031 13.0703L55.5999 12.7893L57.7625 9.52808ZM57.2119 11.3057L57.6563 11.5933C57.7401 11.6658 57.8385 11.7199 57.9452 11.7519C58.0518 11.7839 58.1642 11.7931 58.2747 11.7788C58.3852 11.7646 58.4914 11.7273 58.5861 11.6694C58.6808 11.6114 58.7619 11.5342 58.8239 11.443C59.1092 11.0182 58.9168 10.6326 58.459 10.3385C58.3141 10.2464 58.1609 10.1677 58.0013 10.1032L57.2119 11.3057Z" fill="white"/>
<path d="M61.4244 11.9265L61.8224 12.2533L59.5403 14.959L60.8671 16.0308L60.5885 16.3641L58.877 14.9524L61.4244 11.9265Z" fill="white"/>
<path d="M64.436 14.6257C64.7225 14.8558 64.9929 15.1048 65.2453 15.3708C65.6763 15.761 65.9398 16.2987 65.9817 16.8739C65.9801 17.1376 65.9199 17.3977 65.8053 17.6359C65.6907 17.8742 65.5244 18.0848 65.3183 18.2529C65.1168 18.4506 64.8778 18.6071 64.6148 18.7137C64.3519 18.8202 64.0702 18.8746 63.7859 18.8738C63.1461 18.7916 62.5635 18.4683 62.1606 17.9719C61.9445 17.7447 61.7429 17.5046 61.5569 17.253L64.436 14.6257ZM62.1871 17.3706C62.2873 17.5116 62.3982 17.6448 62.5188 17.7693C62.6554 17.9526 62.8321 18.1032 63.0358 18.2101C63.2395 18.317 63.465 18.3774 63.6956 18.3868C63.9262 18.3962 64.156 18.3544 64.368 18.2645C64.58 18.1746 64.7687 18.0388 64.9202 17.8673C65.0923 17.7395 65.2325 17.5748 65.3303 17.3856C65.4281 17.1965 65.4809 16.9879 65.4848 16.7756C65.4886 16.5634 65.4434 16.3531 65.3524 16.1606C65.2615 15.9682 65.1273 15.7987 64.9601 15.6649C64.8268 15.5124 64.6753 15.3763 64.5089 15.2597L62.1871 17.3706Z" fill="white"/>
<path d="M66.2603 21.9977C66.2589 22.3184 66.3485 22.6331 66.5191 22.9062C66.7911 23.3506 67.1824 23.4747 67.534 23.2656C67.8856 23.0565 67.9254 22.782 67.8193 22.2265C67.68 21.5729 67.7662 21.037 68.2439 20.7495C68.3834 20.6756 68.537 20.6309 68.6948 20.6181C68.8527 20.6053 69.0116 20.6246 69.1615 20.6749C69.3115 20.7251 69.4494 20.8053 69.5665 20.9103C69.6837 21.0153 69.7777 21.143 69.8426 21.2854C70.0099 21.5355 70.1103 21.8233 70.1345 22.1219L69.6967 22.2199C69.6874 21.9608 69.6097 21.7085 69.4711 21.488C69.4355 21.4058 69.3832 21.3317 69.3174 21.2703C69.2516 21.2089 69.1737 21.1614 69.0885 21.1308C69.0033 21.1001 68.9127 21.087 68.8222 21.0923C68.7317 21.0975 68.6432 21.121 68.5623 21.1612C68.2439 21.3507 68.2173 21.6513 68.3168 22.2265C68.4429 22.9323 68.3168 23.3832 67.8392 23.6839C67.6902 23.767 67.525 23.818 67.3545 23.8335C67.184 23.8489 67.0121 23.8285 66.8502 23.7735C66.6884 23.7184 66.5402 23.6301 66.4157 23.5144C66.2911 23.3987 66.1929 23.2582 66.1277 23.1022C65.9407 22.8026 65.8356 22.4603 65.8225 22.1088L66.2603 21.9977Z" fill="white"/>
<path d="M68.8475 27.9644C68.5808 27.7231 68.3723 27.4261 68.2372 27.0952C68.1104 26.8591 68.0369 26.5988 68.0219 26.3321C68.0069 26.0654 68.0507 25.7987 68.1503 25.5503C68.2499 25.3019 68.403 25.0777 68.5989 24.8931C68.7948 24.7085 69.029 24.5679 69.2854 24.481C69.5336 24.354 69.8063 24.28 70.0855 24.2639C70.3647 24.2477 70.6443 24.2897 70.9059 24.3871C71.1676 24.4846 71.4054 24.6352 71.604 24.8293C71.8026 25.0234 71.9574 25.2566 72.0583 25.5136C72.2006 25.8033 72.2776 26.1199 72.2839 26.4416L71.846 26.4939C71.8481 26.2224 71.7868 25.9541 71.6669 25.7096C71.5895 25.5109 71.4692 25.3311 71.3144 25.1827C71.1596 25.0342 70.9739 24.9206 70.7701 24.8498C70.5664 24.7789 70.3495 24.7525 70.1344 24.7723C69.9192 24.7922 69.711 24.8578 69.5242 24.9646C69.3233 25.0294 69.1392 25.1364 68.9845 25.2782C68.8297 25.42 68.7081 25.5932 68.628 25.7859C68.5478 25.9786 68.5112 26.1861 68.5204 26.3941C68.5297 26.6021 68.5847 26.8056 68.6817 26.9906C68.7994 27.2552 68.971 27.4932 69.1858 27.6899L68.8475 27.9644Z" fill="white"/>
<path d="M73.1993 28.7291L71.594 29.1866L72.1247 31.0165L73.7367 30.559L73.876 31.0557L70.035 32.1406L69.8891 31.6505L71.6935 31.1407L71.1628 29.3042L69.3583 29.814L69.2124 29.3173L73.06 28.2324L73.1993 28.7291Z" fill="white"/>
<path d="M70.4994 35.2516C70.4707 35.0012 70.4954 34.7477 70.5719 34.5072C70.6484 34.2668 70.775 34.0448 70.9436 33.8553C71.1122 33.6658 71.319 33.5131 71.551 33.4069C71.7829 33.3007 72.0348 33.2434 72.2905 33.2386C72.5476 33.1778 72.8149 33.1708 73.0749 33.218C73.335 33.2653 73.5821 33.3657 73.8003 33.513C74.0185 33.6602 74.2029 33.8508 74.3417 34.0726C74.4804 34.2944 74.5703 34.5424 74.6057 34.8006C74.6375 35.0505 74.6154 35.3041 74.5409 35.545C74.4664 35.7858 74.3411 36.0085 74.1734 36.1985C74.0056 36.3884 73.799 36.5414 73.5672 36.6474C73.3353 36.7534 73.0834 36.81 72.8279 36.8135C71.5011 36.9835 70.6321 36.258 70.506 35.2712L70.4994 35.2516ZM70.9239 35.2516C71.0301 36.0554 71.8328 36.4149 72.735 36.2972C73.5244 36.1992 74.2939 35.6894 74.1878 34.8464C74.0816 34.0033 73.2259 33.6896 72.3701 33.8007C71.5144 33.9118 70.8178 34.4542 70.9239 35.245V35.2516Z" fill="white"/>
<path d="M70.7383 39.9898C70.7488 39.7383 70.8126 39.4917 70.9256 39.2659C71.0387 39.0402 71.1984 38.8402 71.3946 38.6789C71.5908 38.5176 71.8191 38.3986 72.0648 38.3295C72.3105 38.2603 72.5682 38.2427 72.8213 38.2775C73.0841 38.2566 73.3484 38.2899 73.5975 38.3753C73.8465 38.4606 74.0747 38.5962 74.2676 38.7733C74.4604 38.9504 74.6137 39.1651 74.7176 39.4038C74.8216 39.6426 74.8738 39.9 74.8711 40.1597C74.8625 40.4115 74.8001 40.6587 74.6882 40.8852C74.5763 41.1118 74.4173 41.3126 74.2215 41.4747C74.0257 41.6368 73.7975 41.7565 73.5517 41.826C73.3059 41.8956 73.048 41.9135 72.7948 41.8786C71.4216 41.8393 70.7117 40.9897 70.7383 39.9963V39.9898ZM71.1628 40.0225C71.1628 40.8264 71.8793 41.3296 72.7815 41.3296C73.5776 41.3296 74.42 40.9636 74.4466 40.1205C74.4731 39.2774 73.6837 38.8134 72.8213 38.8134C71.9589 38.8134 71.1827 39.2252 71.1628 40.0225Z" fill="white"/>
<path d="M74.4997 43.8261L74.4201 44.3293L70.8975 43.7803L70.6255 45.4403L70.2009 45.375L70.5525 43.2052L74.4997 43.8261Z" fill="white"/>
<path d="M70.4 49.8647C70.4254 49.7887 70.4659 49.7184 70.5192 49.6581C70.5725 49.5977 70.6376 49.5484 70.7105 49.5131C70.7834 49.4778 70.8627 49.4572 70.9438 49.4525C71.0249 49.4478 71.1061 49.459 71.1828 49.4857C71.3004 49.5233 71.4041 49.5947 71.4805 49.6905C71.5569 49.7864 71.6026 49.9025 71.6119 50.0241C71.6211 50.1456 71.5934 50.2671 71.5324 50.3732C71.4713 50.4792 71.3796 50.5649 71.2689 50.6194C71.1582 50.6739 71.0336 50.6948 70.9109 50.6793C70.7881 50.6638 70.6729 50.6127 70.5797 50.5325C70.4865 50.4523 70.4197 50.3466 70.3877 50.2288C70.3557 50.1111 70.3599 49.9866 70.4 49.8713V49.8647Z" fill="white"/>
<path d="M68.6683 39.0486C68.667 44.7086 66.9621 50.2411 63.7693 54.9466C60.5765 59.6521 56.0391 63.3192 50.7309 65.4843C45.4227 67.6494 39.582 68.2152 33.9473 67.1102C28.3127 66.0052 23.1372 63.279 19.0752 59.2763C15.0132 55.2737 12.2471 50.1743 11.1268 44.623C10.0065 39.0716 10.5821 33.3177 12.781 28.0887C14.9799 22.8597 18.7033 18.3904 23.4803 15.246C28.2573 12.1016 33.8735 10.4233 39.6187 10.4233C43.4341 10.4233 47.2121 11.1638 50.737 12.6024C54.2619 14.0411 57.4646 16.1497 60.1622 18.8079C62.8598 21.4661 64.9994 24.6218 66.4589 28.0947C67.9184 31.5677 68.6692 35.2898 68.6683 39.0486Z" fill="white"/>
<path d="M67.4346 39.029C67.4277 45.7189 64.9375 52.1754 60.4332 57.1819C55.929 62.1883 49.7217 65.399 42.981 66.209C36.2402 67.019 29.4316 65.3724 23.8378 61.5794C18.2441 57.7864 14.2516 52.1089 12.6125 45.6167C17.8808 45.5587 23.0783 44.4144 27.8704 42.2575V31.5916C27.8974 31.2339 27.8297 30.8754 27.6739 30.5512C27.5181 30.227 27.2795 29.9482 26.9814 29.7421C26.3844 29.35 25.3296 29.1539 23.8105 29.1539V28.1671C25.8006 28.1017 27.6714 27.9841 29.3497 27.8207C30.819 27.6894 32.2746 27.438 33.7015 27.0691V42.5581V45.4337C33.7015 46.4467 33.7015 47.4336 33.6485 48.4139C33.5954 49.3942 33.5688 50.2961 33.5025 51.1457C33.4362 51.9953 33.3499 52.7012 33.2504 53.2893C34.991 54.2701 36.838 55.0549 38.7565 55.629C40.5821 56.2181 42.4877 56.531 44.4085 56.5571C45.8716 56.5617 47.3265 56.3412 48.7205 55.9035C50.0623 55.4907 51.3151 54.8371 52.4156 53.9756C53.4954 53.1256 54.3814 52.0612 55.0161 50.8516C55.6936 49.5528 56.0354 48.1094 56.0111 46.6493C56.0246 45.2943 55.7724 43.9496 55.2681 42.6888C54.7938 41.5187 54.0828 40.4559 53.1785 39.5649C52.2873 38.6761 51.2281 37.9678 50.0606 37.4801C48.7863 36.9623 47.4187 36.7044 46.0405 36.722C44.9004 36.7308 43.7692 36.9206 42.6904 37.284C41.6062 37.6384 40.565 38.1096 39.5857 38.6891V34.0751C44.7031 28.8188 48.1442 22.2 49.4834 15.0373C46.1263 13.63 42.5148 12.9061 38.8664 12.9094C35.2179 12.9127 31.6078 13.643 28.2532 15.0564C24.8987 16.4698 21.869 18.537 19.3464 21.1338C16.8238 23.7306 14.8605 26.8032 13.5745 30.1669C14.767 26.685 16.6636 23.4774 19.1495 20.7377C21.6355 17.998 24.6593 15.7831 28.0384 14.2267C31.4174 12.6704 35.0816 11.8048 38.8096 11.6824C42.5376 11.56 46.2522 12.1833 49.7289 13.5146C54.9437 15.518 59.4235 19.025 62.5825 23.5772C65.7414 28.1294 67.4325 33.5147 67.4346 39.029ZM40.4083 53.0998C41.1646 54.4069 42.4516 55.0605 44.2692 55.0605C46.0869 55.0605 47.3739 54.4069 48.1368 53.0998C48.8997 51.7927 49.2711 49.7863 49.2711 47.0218C49.2711 44.2573 48.893 42.2314 48.1368 40.9439C47.3805 39.6564 46.0869 39.0159 44.2692 39.0159C42.4516 39.0159 41.1646 39.6695 40.4083 40.9439C39.6521 42.2183 39.2673 44.2573 39.2673 47.0218C39.2673 49.7863 39.6454 51.7927 40.4083 53.0998ZM33.1576 24.017C33.8982 23.274 34.3131 22.2743 34.3131 21.2329C34.3131 20.1916 33.8982 19.1918 33.1576 18.4488C32.405 17.7363 31.4018 17.3384 30.3581 17.3384C29.3143 17.3384 28.3111 17.7363 27.5586 18.4488C26.818 19.1918 26.403 20.1916 26.403 21.2329C26.403 22.2743 26.818 23.274 27.5586 24.017C28.3087 24.7341 29.3129 25.1351 30.3581 25.1351C31.4033 25.1351 32.4074 24.7341 33.1576 24.017Z" fill="url(#paint0_linear_1738_39300)"/>
<path d="M67.9719 14.1615C72.8429 19.5495 76.0284 26.2102 77.1445 33.341C78.2606 40.4719 77.2597 47.7685 74.2625 54.3518C71.2652 60.935 66.3994 66.5238 60.2516 70.4448C54.1037 74.3658 46.936 76.4516 39.6123 76.4509C37.2485 76.4468 34.8902 76.228 32.5671 75.7974C35.6636 76.5985 38.8521 77.0027 42.0535 76.9999H42.2326C48.6059 76.5688 54.7713 74.5879 60.1773 71.2347C65.5833 67.8814 70.0613 63.2603 73.2106 57.7847C76.36 52.3091 78.0825 46.1497 78.2241 39.8577C78.3657 33.5658 76.9219 27.3373 74.022 21.7296C72.352 18.9557 70.3178 16.411 67.9719 14.1615Z" fill="white"/>
<path d="M1.63341 39.0421C1.62946 30.197 4.80529 21.6363 10.5977 14.8782C16.3901 8.12007 24.4248 3.60132 33.2768 2.12327C36.1602 1.48911 39.1057 1.16913 42.06 1.1691C42.7632 1.1691 43.4664 1.1691 44.163 1.22138C42.6546 1.04831 41.1373 0.961029 39.6188 0.959963C32.3934 0.957736 25.3121 2.95164 19.1792 6.71523C13.0463 10.4788 8.1076 15.8613 4.92392 22.2513C1.74024 28.6413 0.439195 35.7827 1.16856 42.8646C1.89792 49.9465 4.62845 56.685 9.05005 62.3148C7.03057 59.3687 5.42812 56.1652 4.28695 52.7927C2.52847 48.4155 1.62807 43.7496 1.63341 39.0421Z" fill="white"/>
<path d="M79.5944 12.8087C79.5944 13.2533 79.4605 13.688 79.2098 14.0577C78.959 14.4274 78.6026 14.7156 78.1856 14.8857C77.7686 15.0559 77.3098 15.1004 76.8671 15.0137C76.4244 14.9269 76.0178 14.7128 75.6987 14.3984C75.3795 14.084 75.1622 13.6834 75.0741 13.2473C74.9861 12.8111 75.0313 12.3591 75.204 11.9483C75.3767 11.5375 75.6692 11.1864 76.0445 10.9393C76.4198 10.6923 76.861 10.5605 77.3123 10.5605C77.613 10.557 77.9113 10.6127 78.1898 10.7244C78.4683 10.8362 78.7213 11.0017 78.9339 11.2111C79.1465 11.4206 79.3145 11.6698 79.4279 11.9442C79.5413 12.2185 79.5979 12.5124 79.5944 12.8087ZM75.3819 12.8087C75.3871 13.1836 75.5048 13.5487 75.72 13.858C75.9353 14.1673 76.2386 14.407 76.5918 14.547C76.9449 14.6869 77.3322 14.7209 77.7049 14.6445C78.0776 14.5682 78.4191 14.3851 78.6865 14.1181C78.9538 13.8511 79.135 13.5122 79.2074 13.144C79.2797 12.7758 79.24 12.3948 79.0931 12.0488C78.9463 11.7028 78.6989 11.4073 78.382 11.1995C78.0651 10.9916 77.693 10.8807 77.3123 10.8807C77.0558 10.878 76.8013 10.9262 76.5641 11.0225C76.3269 11.1187 76.1119 11.2611 75.9317 11.441C75.7515 11.6209 75.61 11.8347 75.5155 12.0697C75.4211 12.3047 75.3756 12.556 75.3819 12.8087ZM76.8081 14.1157H76.4831V11.5016H77.4914C78.0885 11.5016 78.3538 11.7564 78.3538 12.2205C78.3611 12.4027 78.2959 12.5806 78.1719 12.7161C78.048 12.8517 77.8752 12.9341 77.6904 12.9459L78.4732 14.0961H78.0951L77.3521 12.9459H76.8081V14.1157ZM77.2393 12.691C77.6374 12.691 78.0288 12.691 78.0288 12.2401C78.0288 11.7891 77.7236 11.7891 77.4052 11.7891H76.8081V12.691H77.2393Z" fill="white"/>
<defs>
<linearGradient id="paint0_linear_1738_39300" x1="23.7309" y1="16.6777" x2="54.938" y2="61.923" gradientUnits="userSpaceOnUse">
<stop offset="0.31" stop-color="#2FB4E9"/>
<stop offset="0.33" stop-color="#2DB0E6"/>
<stop offset="0.72" stop-color="#0D63A2"/>
<stop offset="0.9" stop-color="#004587"/>
</linearGradient>
</defs>
</svg>
