<svg fill="none" height="32" viewBox="0 0 109 32" width="109" xmlns="http://www.w3.org/2000/svg"><path clip-rule="evenodd" d="m49.8448 11.403c0 9.9181 19.7124 7.0765 16.0243 12.0631-.436.5866-1.0901.8249-1.7623 1.0266-1.3808.4217-3.1794.44-4.4694.0367-1.4534-.4584-2.1983-1.32-2.1983-3.2083h-9.0841c0-1.4483-1.1083-8.5798-1.399-10.5597l-1.1082-7.86481c-.1817-1.31996-.0182-2.346604-.9993-2.346604-.654 0-.8357 1.301634-2.1802 2.841594-2.598 2.98825-5.4141 5.00487-5.4141 9.67972 0 .6417.1454.7333.1817 1.3017 1.3263-.0184.4542-.275 1.4898-.5684 0 1.3567-.1817 1.87-.1817 3.19 0 1.8882 2.0348 2.1266 2.0348 5.2432.6178-.33.7268-.1834.9266-.935 2.3437 1.5949.5814 6.3432-.2543 8.3414-.2726.6417-.5087.9167-.6723 1.5767h9.0841c-.0726-.7884-.3452-1.7967-.3633-2.6216 1.7078 1.1549 1.6896 1.5949 4.2331 2.4566 5.7775 1.9432 15.6429.6416 19.549-3.3366.8358-.8433 2.2529-2.1633 2.5436-3.4099h.3633c2.0894 9.0564 23.4006 12.1913 30.5954-2.2366.345-.6967.926-1.9983 1.108-2.805h-10.3921c-.5269 2.3283-2.8524 5.0599-5.7411 5.0599-1.508 0-3.0341.1467-4.2332-.9716-.7086-.6784-1.072-1.21-1.29-2.255-.763-3.7216.9811-10.7064 4.6693-12.79632 2.4163-1.37496 7.9031-1.64995 7.9031 4.23492h10.192c0-4.25325-.472-7.44317-3.888-9.9181-3.088-2.236609-6.631-2.6216-10.9369-2.6216-3.6881 0-7.1946 1.42996-9.5928 2.85993-2.3982 1.42996-4.4875 3.55657-6.05 5.86651l-.3088.43999c-.1454-6.37984-5.3778-9.16643-11.5005-9.16643-5.9592 0-12.3362 1.26497-15.3158 6.25151-.7449 1.24663-1.5624 3.24491-1.5624 5.15149zm10.7555-2.43823c0-2.40161 4.8873-2.10828 6.3044-1.31997.7812.43999.9266 1.02664.9266 2.25494h10.0106c-1.4716 2.23666-1.944 5.38986-2.2165 5.99486-1.1991-.8067-1.2899-1.32-3.2521-2.145-1.5261-.6416-2.5617-.9166-4.1787-1.3933-2.271-.6599-7.5943-1.2466-7.5943-3.39153zm-48.5817 22.27443 4.6329-11.0364c.2725-.5866.5087-1.1366.7994-1.8149.2725-.6234.436-1.2467.8721-1.7417l1.2899 14.593h4.2695c2.1984-3.3183 5.5958-4.2166 6.8858-7.8281.3815-1.0817.9084-2.6583.9084-4.1433.9447.0734.8357.5317 1.2354.1284.2544-.2567.3815-1.1.4724-1.5767.6722-4.1065-.0364-5.8115 3.7245-10.10137.3815-.43998.4723-.71498.9265-1.1183.3997-.34833.5996-.47666 1.0175-.84331 1.0719-.95331 2.9432-1.83329 3.9788-4.05156.1817-.36666.654-1.13664-.218-1.13664h-8.7208c-.6903 0-2.7615 4.47322-3.1612 5.2432-.6177 1.19163-4.1787 8.41478-4.8146 9.16638l-.1817-10.85301c0-1.42996-.1817-2.38327-.1817-3.55657h-7.9758c-.545 0-.5814.403322-.7267.76998-.1817.43999-.2362.60498-.436 1.06331l-5.5595 12.72299c-.1635.385-.2725.66-.436 1.0633-.2362.5317-.2181.7517-.6178 1.0633.0135-1.4214-.06542-2.8422-.23615-4.2532-.16351-1.32-.19985-2.8233-.34519-4.32656-.14535-1.37497-.23619-2.78659-.36337-4.32655-.09084-1.2283-.03633-3.758239-.90841-3.758239-9.53829 0-8.15750941-.5683193-7.975828 1.869949l.7994 7.44314c.835738 6.48986 1.253608 13.12636 2.053008 19.61616.27252 2.1449-.56322 1.76 3.63363 1.76h5.35961z" fill="#9d9d9d" fill-rule="evenodd"/></svg>