<svg width="109" height="32" viewBox="0 0 109 32" fill="none" xmlns="http://www.w3.org/2000/svg">
<path fill-rule="evenodd" clip-rule="evenodd" d="M49.8446 11.403C49.8446 21.3211 69.5571 18.4795 65.869 23.4661C65.4329 24.0527 64.7789 24.291 64.1067 24.4927C62.7259 24.9144 60.9272 24.9327 59.6373 24.5294C58.1838 24.071 57.4389 23.2094 57.4389 21.3211H48.3548C48.3548 19.8728 47.2466 12.7413 46.9559 10.7614L45.8476 2.89659C45.666 1.57663 45.8295 0.549986 44.8484 0.549986C44.1943 0.549986 44.0126 1.85162 42.6682 3.39158C40.0702 6.37983 37.2541 8.39645 37.2541 13.0713C37.2541 13.713 37.3994 13.8046 37.4358 14.373C38.762 14.3546 37.89 14.098 38.9256 13.8046C38.9256 15.1613 38.7439 15.6746 38.7439 16.9946C38.7439 18.8828 40.7787 19.1212 40.7787 22.2378C41.3964 21.9078 41.5054 22.0544 41.7053 21.3028C44.049 22.8977 42.2867 27.646 41.4509 29.6442C41.1784 30.2859 40.9422 30.5609 40.7787 31.2209H49.8628C49.7901 30.4325 49.5176 29.4242 49.4994 28.5993C51.2073 29.7542 51.1891 30.1942 53.7326 31.0559C59.5101 32.9991 69.3754 31.6975 73.2816 27.7193C74.1173 26.876 75.5344 25.556 75.8251 24.3094H76.1885C78.2778 33.3658 99.5891 36.5007 106.784 22.0728C107.129 21.3761 107.71 20.0745 107.892 19.2678H97.4998C96.9729 21.5961 94.6474 24.3277 91.7586 24.3277C90.2507 24.3277 88.7245 24.4744 87.5254 23.3561C86.8169 22.6777 86.4535 22.1461 86.2355 21.1011C85.4724 17.3795 87.2166 10.3947 90.9047 8.30478C93.3211 6.92982 98.8079 6.65483 98.8079 12.5397H109C109 8.28645 108.528 5.09653 105.112 2.6216C102.024 0.384991 98.4809 0 94.175 0C90.4869 0 86.9804 1.42996 84.5822 2.85993C82.184 4.28989 80.0947 6.4165 78.5322 8.72644L78.2233 9.16643C78.078 2.78659 72.8456 0 66.7229 0C60.7637 0 54.3867 1.26497 51.4071 6.25151C50.6622 7.49814 49.8446 9.49642 49.8446 11.403ZM60.6002 8.96477C60.6002 6.56316 65.4874 6.85649 66.9046 7.6448C67.6858 8.08479 67.8311 8.67144 67.8311 9.89974H77.8418C76.3702 12.1364 75.8978 15.2896 75.6253 15.8946C74.4262 15.0879 74.3354 14.5746 72.3732 13.7496C70.8471 13.108 69.8115 12.833 68.1945 12.3563C65.9235 11.6964 60.6002 11.1097 60.6002 8.96477ZM12.0185 31.2392L16.6514 20.2028C16.9239 19.6162 17.1601 19.0662 17.4508 18.3879C17.7233 17.7645 17.8868 17.1412 18.3228 16.6462L19.6128 31.2392H23.8823C26.0807 27.9209 29.4781 27.0226 30.768 23.4111C31.1496 22.3294 31.6765 20.7528 31.6765 19.2678C32.6212 19.3412 32.5122 19.7995 32.9119 19.3962C33.1662 19.1395 33.2934 18.2962 33.3843 17.8195C34.0565 13.713 33.3479 12.008 37.1087 7.71813C37.4903 7.27815 37.5811 7.00315 38.0353 6.59983C38.435 6.2515 38.6349 6.12317 39.0527 5.75652C40.1247 4.80321 41.996 3.92323 43.0316 1.70496C43.2132 1.3383 43.6856 0.56832 42.8135 0.56832H34.0928C33.4024 0.56832 31.3313 5.04154 30.9316 5.81152C30.3138 7.00315 26.7529 14.2263 26.117 14.9779L25.9353 4.12489C25.9353 2.69493 25.7536 1.74162 25.7536 0.56832H17.7778C17.2328 0.56832 17.1964 0.971642 17.0511 1.3383C16.8694 1.77829 16.8149 1.94328 16.615 2.40161L11.0556 15.1246C10.8921 15.5096 10.783 15.7846 10.6195 16.1879C10.3833 16.7196 10.4015 16.9396 10.0018 17.2512C10.0153 15.8298 9.93636 14.409 9.76563 12.998C9.60212 11.678 9.56578 10.1747 9.42043 8.67144C9.27509 7.29647 9.18425 5.88485 9.05707 4.34489C8.96623 3.11659 9.02073 0.586651 8.14866 0.586651C-1.38963 0.586651 -0.00885148 0.0183317 0.17283 2.4566L0.97223 9.89974C1.80797 16.3896 2.22583 23.0261 3.02523 29.5159C3.29776 31.6608 2.46202 31.2759 6.65887 31.2759H12.0185V31.2392Z" fill="#7F0217"/>
</svg>
