<svg width="506" height="678" viewBox="0 0 506 678" fill="none" xmlns="http://www.w3.org/2000/svg">
<path d="M248.731 303.651C248.731 303.651 276.182 303.83 283.404 303.651C287.783 303.551 292.148 304.186 296.317 305.53L278.729 397.012L237.04 398.669L248.731 303.651Z" fill="url(#paint0_linear_1535_52325)"/>
<path d="M252.885 300.985C252.885 300.985 280.327 301.164 287.548 300.985C291.931 300.885 296.298 301.52 300.47 302.864L282.916 394.32L241.228 396.029L252.885 300.985Z" fill="url(#paint1_linear_1535_52325)"/>
<path d="M182.446 300.344C182.446 300.344 213.631 300.524 221.836 300.344C226.793 300.235 231.739 300.866 236.51 302.215L216.563 393.697L169.199 395.354L182.446 300.344Z" fill="url(#paint2_linear_1535_52325)"/>
<path d="M187.155 297.653C187.155 297.653 218.34 297.833 226.545 297.653C231.505 297.549 236.453 298.183 241.227 299.533L221.28 391.015L173.908 392.672L187.155 297.653Z" fill="url(#paint3_linear_1535_52325)"/>
<path d="M296.454 314.326H178.738C177.806 314.326 176.903 314.651 176.185 315.245C175.467 315.839 174.98 316.666 174.806 317.581L160.047 395.08C159.935 395.664 159.955 396.265 160.105 396.84C160.254 397.416 160.53 397.95 160.912 398.406C161.294 398.861 161.773 399.226 162.314 399.474C162.854 399.721 163.443 399.846 164.038 399.838L282.566 398.206C283.493 398.194 284.387 397.859 285.095 397.261C285.802 396.663 286.28 395.838 286.446 394.926L300.368 319.05C300.475 318.475 300.453 317.883 300.306 317.317C300.159 316.751 299.889 316.225 299.516 315.774C299.142 315.324 298.675 314.961 298.146 314.71C297.617 314.46 297.039 314.329 296.454 314.326ZM291.207 324.047L279.114 389.989C278.966 390.788 278.544 391.511 277.92 392.032C277.295 392.553 276.508 392.84 275.695 392.842L172.755 394.234C172.239 394.242 171.727 394.135 171.258 393.921C170.788 393.706 170.372 393.39 170.04 392.995C169.708 392.6 169.468 392.136 169.337 391.637C169.207 391.138 169.189 390.616 169.285 390.109L182.105 322.749C182.255 321.952 182.678 321.234 183.303 320.717C183.927 320.201 184.713 319.919 185.523 319.921H287.797C288.308 319.922 288.813 320.036 289.275 320.254C289.737 320.472 290.146 320.79 290.471 321.184C290.797 321.578 291.032 322.038 291.159 322.533C291.286 323.028 291.302 323.545 291.207 324.047Z" fill="#004477"/>
<path d="M233.289 318.64L217.479 396.268H234.169L247.202 316.983C247.202 316.983 246.408 312.781 240.801 312.456C236.058 312.191 233.802 316.12 233.289 318.64Z" fill="#004477"/>
<path d="M240.475 319.588L230.425 318.358L199.12 351.098L180.138 319.588L176.07 327.984L193.556 356.915L166.071 385.658L167.088 395.985L197.829 363.988L217.152 395.985H226.16L203.393 358.197L240.475 319.588Z" fill="#004477"/>
<path d="M296.325 324.134L292.471 318.359L266.405 349.52L249.039 316.984L243.903 319.589L260.628 356.43L229.16 394.048H239.407L263.995 363.844L277.703 394.048L282.523 379.732L270.063 356.387L296.325 324.134Z" fill="#004477"/>
<path d="M252.645 678C392.177 678 505.291 657.67 505.291 632.592C505.291 607.514 392.177 587.185 252.645 587.185C113.113 587.185 0 607.514 0 632.592C0 657.67 113.113 678 252.645 678Z" fill="#004477"/>
<path d="M148.168 253.835C148.168 253.835 181.199 251.58 186.404 250.888C191.609 250.196 244.245 208.384 249.501 204.668C254.296 201.252 257.646 199.219 257.646 199.219L261.714 196.861C261.714 196.861 265.329 189.806 263.748 187.465C262.167 185.125 291.096 175.08 284.78 165.257C279.353 166.316 278.447 170.083 274.832 170.382C271.217 170.681 261.261 176.13 260.133 176.13C259.005 176.13 206.436 208.008 201.556 211.203C196.676 214.397 189.592 219.522 185.045 224.357C176.225 223.315 144.142 223.084 144.142 223.084C144.142 223.084 140.92 248.428 148.168 253.835Z" fill="url(#paint4_linear_1535_52325)"/>
<path d="M144.142 223.067C144.142 223.067 140.92 248.427 148.168 253.817C148.168 253.817 181.199 251.562 186.404 250.87C187.669 250.699 191.745 248.043 197.258 244.037C177.311 242.764 185.045 224.28 185.045 224.28C176.225 223.298 144.142 223.067 144.142 223.067Z" fill="#009DC3"/>
<path d="M297.719 175.03C297.719 175.03 298.573 169.264 299.479 168.888C300.385 168.513 302.676 168.572 303.616 169.392C304.556 170.212 304.06 175.218 303.308 176.79C301.419 177.481 297.719 175.03 297.719 175.03Z" fill="#16304D"/>
<path d="M127.46 556.433C127.46 556.433 124.178 578.402 127.46 582.699C130.741 586.995 143.125 599.107 149.953 600.636C156.782 602.165 167.388 603.668 168.148 606.444C168.909 609.221 163.875 617.549 145.398 616.293C126.921 615.037 107.248 609.221 104.974 607.709C102.701 604.42 104.974 559.465 104.974 559.465C104.974 559.465 125.699 552.111 127.46 556.433Z" fill="#16304D"/>
<path d="M127.459 582.7C124.177 578.429 127.459 556.434 127.459 556.434C125.69 552.163 104.974 559.457 104.974 559.457C104.974 559.457 104.119 576.293 103.982 590.114C112.947 595.751 134.193 608.273 141.107 604.916C142.326 604.371 143.391 603.536 144.211 602.483C145.03 601.43 145.579 600.192 145.808 598.878C138.971 594.991 130.16 586.219 127.459 582.7Z" fill="url(#paint5_linear_1535_52325)"/>
<path d="M87.2917 558.945C87.2917 558.945 89.3172 587.987 87.2917 595.82C85.2662 603.653 54.4398 638.247 51.6623 640.015C48.3805 642.287 49.0984 652.135 67.0456 648.608C84.9928 645.08 92.5648 632.19 98.1199 628.902C103.675 625.613 108.486 621.829 109.495 619.053C110.503 616.277 111.008 561.473 111.008 561.473C111.008 561.473 101.444 552.112 87.2917 558.945Z" fill="url(#paint6_linear_1535_52325)"/>
<path d="M77.6939 360.452C77.6939 360.452 70.6176 362.22 73.6429 417.776C76.6683 473.331 85.2744 562.746 85.2744 562.746L102.709 568.05L113.819 564.01L121.4 558.953L130.749 556.468C130.749 556.468 148.115 414.436 150.457 400.351C153.081 384.557 154.961 366.115 153.764 355.934C147.97 349.673 102.675 345.547 77.6939 360.452Z" fill="#16304D"/>
<path d="M124.63 141.869C124.63 141.869 122.588 156.134 128.416 164.428C134.245 172.722 146.184 192.957 135.553 212.168C124.921 231.378 110.649 234.444 101.615 232.838C92.5819 231.233 86.1807 187.567 86.1807 187.567C86.1807 187.567 108.316 138.375 124.63 141.869Z" fill="#16304D"/>
<path d="M74.9937 229.951C74.9937 229.951 64.5415 186.739 62.8066 181.733C70.6436 179.47 99.5984 199.671 99.5984 199.671C99.5984 199.671 98.0686 227.739 113.529 229.917C118.101 239.928 107.213 262.12 107.213 262.12C107.213 262.12 78.7455 245.233 74.9937 229.951Z" fill="#009DC3"/>
<path d="M120.452 176.943C120.255 170.699 119.358 170.306 119.597 159.484C124.896 127.247 105.641 119.064 105.641 119.064C105.641 119.064 83.7371 114.733 64.2344 133.021C56.7821 140.008 54.6455 148.55 54.9873 156.793C52.8141 156.689 50.6654 157.288 48.8597 158.501C43.2704 162.336 42.8773 169.537 49.1588 177.353C53.7823 183.153 57.8589 185.245 63.2174 183.785C63.2858 183.938 64.1832 186.544 64.2344 186.68C66.8838 193.172 79.7374 207.18 96.83 209.564C115.606 200.894 120.751 186.808 120.452 176.943Z" fill="url(#paint7_linear_1535_52325)"/>
<path d="M91.565 125.246L66.5928 138.768L60.6104 160.028C62.2648 160.789 63.6566 162.022 64.61 163.573C68.1481 173.14 76.985 175.318 84.6937 171.747C87.0098 170.68 90.5907 170.842 90.5907 170.842C90.4454 169.143 90.691 167.434 91.3085 165.845C91.6504 162.428 92.8555 159.105 93.3085 156.731C95.6587 155.27 100.846 155.612 100.145 157.115C93.693 169.219 100.872 178.803 101.701 180.887C102.53 182.971 98.4703 183.8 98.4703 183.8C105.307 184.534 103.991 179.016 102.846 176.966C101.701 174.916 105.282 168.835 108.658 170.765C113.05 175.036 117.084 173.327 120.221 171.986C119.674 169.262 119.537 166.357 119.682 159.515C120.721 153.744 120.876 147.849 120.144 142.031L112.452 130.072L91.565 125.246Z" fill="url(#paint8_linear_1535_52325)"/>
<path d="M62.1488 179.034C62.1488 179.034 62.8069 157.278 47.3467 162.497C56.3032 162.497 56.7476 166.418 56.7476 166.418C56.7476 166.418 51.0301 165.274 50.0046 169.032C53.124 167.494 55.8844 166.914 57.8415 170.364C59.7986 173.815 62.1488 179.034 62.1488 179.034Z" fill="#009DC3"/>
<path d="M102.734 155.323C102.734 155.323 108.956 147.226 117.707 151.599C117.707 151.599 112.323 152.316 108.811 154.589C105.948 156.451 103.529 158.039 102.734 155.323Z" fill="#16304D"/>
<path d="M68.251 155.418C68.251 155.418 75.088 147.423 87.2579 150.293C90.2747 151.096 94.6504 155.23 93.2403 156.725C91.8302 158.219 87.4117 154.965 82.1301 153.513C76.8485 152.061 71.0029 154.478 68.251 155.418Z" fill="#16304D"/>
<path d="M143.596 139.632C140.378 141.029 136.955 141.894 133.46 142.194C139.331 140.998 142.861 131.824 138.588 133.652C133.887 135.643 129.187 134.02 127.751 129.322C126.315 124.624 118.726 105.507 90.5575 99.195C62.389 92.8827 49.0397 111.23 49.0397 111.23C49.0397 111.23 49.0397 104.969 46.4758 102.082C43.9119 99.195 42.8607 110.743 42.5018 114.348C24.452 111.102 41.6472 120.848 41.6472 120.848C41.6472 120.848 32.6137 132.576 34.058 156.724C35.5024 180.871 27.5629 183.297 18.5381 202.242C9.51318 221.188 25.7596 234.001 27.2039 236.341C28.6482 238.681 26.298 245.908 27.2039 252.57C31.7163 278.195 54.7999 276.342 54.7999 276.342C54.7999 276.342 57.5347 275.3 56.0904 272.293C40.7755 271.055 42.3651 259.062 42.9035 255.816C43.442 252.57 43.271 233.078 43.271 233.078C43.271 233.078 46.775 246.062 46.5186 254.552C46.0571 269.696 58.4321 271.157 61.1413 272.233C63.8505 273.31 82.0882 258.165 82.0882 258.165C82.0882 258.165 68.4996 201.004 64.141 186.201C53.3043 187.482 41.8694 174.072 44.6384 165.573C47.4073 157.074 55.0819 156.766 60.6455 160.004C65.1409 160.004 73.653 148.276 75.4563 145.705C73.7471 148.199 66.4912 159.278 72.7386 159.278C79.7807 159.278 91.8737 146.465 97.4716 138.53C89.2158 158.022 104.514 141.417 106.317 137.983C107.761 140.546 116.573 153.862 132.315 150.48C148.057 147.097 143.596 139.632 143.596 139.632ZM28.409 231.66C28.409 231.66 23.717 221.197 22.6317 214.884C21.5463 208.572 31.6651 190.703 31.6651 190.703C32.742 194.487 28.409 231.66 28.409 231.66Z" fill="url(#paint9_linear_1535_52325)"/>
<path d="M143.596 139.632C140.378 141.029 136.955 141.894 133.46 142.194C139.331 140.998 142.861 131.824 138.588 133.652C133.887 135.643 129.187 134.02 127.751 129.322C126.315 124.624 118.726 105.507 90.5575 99.195C62.389 92.8827 49.0397 111.23 49.0397 111.23C49.0397 111.23 49.0397 104.969 46.4758 102.082C43.9119 99.195 42.8607 110.743 42.5018 114.348C24.452 111.102 41.6472 120.848 41.6472 120.848C41.6472 120.848 32.6137 132.576 34.058 156.724C35.5024 180.871 27.5629 183.297 18.5381 202.242C9.51318 221.188 25.7596 234.001 27.2039 236.341C28.6482 238.681 26.298 245.908 27.2039 252.57C31.7163 278.195 54.7999 276.342 54.7999 276.342C54.7999 276.342 57.5347 275.3 56.0904 272.293C47.2364 269.637 42.348 266.989 42.9035 255.816C43.0745 252.528 43.271 233.078 43.271 233.078C43.271 233.078 46.4673 246.053 46.5186 254.552C46.6212 271.84 58.4321 271.157 61.1413 272.233C63.8505 273.31 82.0882 258.165 82.0882 258.165C82.0882 258.165 68.4996 201.004 64.141 186.201C53.3043 187.482 41.8694 174.072 44.6384 165.573C47.4073 157.074 55.0819 156.766 60.6455 160.004C65.1409 160.004 73.653 148.276 75.4563 145.705C73.7471 148.199 66.4912 159.278 72.7386 159.278C79.7807 159.278 91.8737 146.465 97.4716 138.53C89.2158 158.022 104.514 141.417 106.317 137.983C107.761 140.546 116.573 153.862 132.315 150.48C148.057 147.097 143.596 139.632 143.596 139.632ZM28.409 231.66C28.409 231.66 23.717 221.197 22.6317 214.884C21.5463 208.572 31.6651 190.703 31.6651 190.703C32.742 194.487 28.409 231.66 28.409 231.66Z" fill="#90D1DE"/>
<path d="M143.595 139.632C143.595 139.632 140.245 145.218 132.39 143.963C139.8 140.546 142.894 131.842 138.544 133.712C133.843 135.703 127.434 135.421 125.989 130.706C124.545 125.991 117.443 107.985 89.3001 101.664C61.1572 95.343 48.9958 111.29 48.9958 111.29C48.9958 111.29 48.9958 105.029 46.4319 102.142C43.868 99.2551 42.8169 110.804 42.4579 114.408C24.4082 111.162 41.6033 120.908 41.6033 120.908C41.6033 120.908 32.5699 132.636 34.0142 156.784C35.4585 180.931 27.519 183.357 18.4941 202.302C9.46923 221.248 25.7157 234.061 27.1601 236.401C28.6044 238.742 26.2541 245.968 27.1601 252.63C31.6725 278.256 54.7561 276.402 54.7561 276.402C54.7561 276.402 57.4908 275.36 56.0464 272.353C47.1925 269.697 42.3041 267.049 42.8596 255.876C43.0305 252.588 43.227 233.138 43.227 233.138C43.227 233.138 46.4234 246.113 46.4746 254.612C46.5772 271.901 58.3882 271.217 61.0973 272.293C63.8065 273.37 82.0443 258.225 82.0443 258.225C82.0443 258.225 68.4557 201.064 64.0971 186.261C53.2604 187.542 41.8255 174.132 44.5945 165.633C47.3635 157.134 55.038 156.826 60.6017 160.064C65.097 160.064 76.1388 143.672 77.9506 141.101C76.2413 143.595 65.456 159.158 71.7033 159.158C78.7454 159.158 88.7189 146.824 97.4276 138.59C89.1719 158.082 104.871 139.939 106.675 136.506C108.119 139.068 116.563 153.922 132.314 150.54C148.064 147.157 143.595 139.632 143.595 139.632ZM28.4078 231.66C28.4078 231.66 23.7159 221.197 22.6305 214.885C21.5451 208.572 31.664 190.703 31.664 190.703C32.7408 194.487 28.4078 231.66 28.4078 231.66Z" fill="url(#paint10_linear_1535_52325)"/>
<path d="M73.5496 163.583C73.5496 163.583 70.2422 165.633 70.3533 167.504C70.4644 169.374 71.319 173.022 76.5749 173.372C81.8309 173.722 85.8477 172.108 87.8988 169.836C88.3859 169.836 89.2748 169.75 88.0441 167.367C86.8989 164.847 85.5828 158.765 73.5496 163.583Z" fill="#C1E6FB"/>
<path d="M88.7284 168.836C88.7284 168.836 85.0791 157.731 72.2768 164.975C69.824 167.537 71.4221 171.039 71.4221 171.039C71.4221 171.039 67.5763 165.914 71.4221 162.762C76.3534 158.671 86.7285 156.766 88.7284 168.836Z" fill="#16304D"/>
<path d="M68.5405 161.277C68.8975 162.021 69.5338 162.595 70.3115 162.873C71.0891 163.151 71.9453 163.112 72.6939 162.763C71.4932 164.182 70.5241 165.782 69.8224 167.504C69.8224 167.504 66.7799 165.642 68.5405 161.277Z" fill="#16304D"/>
<path d="M73.5664 172.654C73.5664 172.654 81.2581 174.961 87.8985 169.836C86.1893 173.406 77.7883 175.516 73.5664 172.654Z" fill="#16304D"/>
<path d="M80.7364 162.608C76.865 162.608 73.7285 165.461 73.7285 168.989C73.7328 169.787 73.8969 170.576 74.211 171.309C74.5251 172.043 74.9829 172.706 75.5574 173.26C75.8939 173.319 76.2334 173.359 76.5744 173.38C81.6082 173.721 85.5053 172.235 87.6248 170.1C87.7035 169.729 87.7436 169.351 87.7444 168.972C87.7444 165.436 84.6079 162.608 80.7364 162.608Z" fill="#16304D"/>
<path d="M74.4125 170.339C75.6208 170.339 76.6003 169.789 76.6003 169.109C76.6003 168.43 75.6208 167.879 74.4125 167.879C73.2041 167.879 72.2246 168.43 72.2246 169.109C72.2246 169.789 73.2041 170.339 74.4125 170.339Z" fill="#C1E6FB"/>
<path d="M112.368 162.652C112.368 162.652 114.931 164.275 115.025 165.975C115.119 167.675 114.846 171.04 111.111 171.741C107.377 172.441 104.351 171.271 102.668 169.366C102.326 169.366 101.685 169.366 102.343 167.137C103.001 164.907 103.308 159.193 112.368 162.652Z" fill="#C1E6FB"/>
<path d="M101.991 168.519C101.991 168.519 105.248 159.413 113.768 164.641C114.346 165.243 114.734 166 114.886 166.819C115.038 167.639 114.946 168.485 114.623 169.253C114.623 169.253 116.896 164.333 113.871 161.754C109.914 158.414 100.855 161.378 101.991 168.519Z" fill="#16304D"/>
<path d="M115.742 160.209C115.742 160.209 115.152 162.643 112.913 161.849C113.924 163.093 114.761 164.47 115.4 165.94C115.4 165.94 117.391 164.035 115.742 160.209Z" fill="#16304D"/>
<path d="M113.196 170.868C111.473 171.61 109.578 171.863 107.72 171.597C105.862 171.332 104.114 170.56 102.667 169.365C104.222 172.474 110.436 173.764 113.196 170.868Z" fill="#16304D"/>
<path d="M114.05 167.401C113.984 166.743 113.788 166.105 113.475 165.522C113.162 164.94 112.736 164.425 112.224 164.006C111.711 163.588 111.12 163.275 110.487 163.086C109.853 162.896 109.187 162.833 108.529 162.9C107.87 162.967 107.231 163.163 106.648 163.478C106.065 163.792 105.55 164.218 105.132 164.731C104.714 165.244 104.401 165.834 104.211 166.469C104.021 167.103 103.958 167.768 104.025 168.426C104.143 169.437 104.566 170.388 105.239 171.151C107.103 171.929 109.159 172.122 111.136 171.706C111.819 171.592 112.472 171.336 113.05 170.955C113.822 169.94 114.179 168.67 114.05 167.401Z" fill="#16304D"/>
<path d="M104.637 168.736C105.369 168.662 105.917 168.145 105.859 167.582C105.802 167.018 105.161 166.622 104.429 166.697C103.696 166.772 103.149 167.289 103.207 167.852C103.264 168.415 103.904 168.811 104.637 168.736Z" fill="#C1E6FB"/>
<path d="M101.616 180.887C101.616 180.887 91.36 181.741 90.0524 182.006C88.7448 182.271 89.7191 184.568 91.9241 184.756C94.129 184.944 94.2401 188.369 95.5306 188.173C96.8211 187.977 96.3852 186.226 96.7527 185.491C97.2071 184.842 97.7575 184.266 98.385 183.783C98.385 183.783 102.257 183.048 101.616 180.887Z" fill="#009DC3"/>
<path d="M68.2914 202.062C66.6334 196.083 65.3173 188.797 63.2149 183.774C52.3953 185.022 46.242 175.361 46.2078 166.383C46.2078 158.995 52.4722 157.15 57.4974 158.696H57.6428C56.7112 145.661 68.5563 139.673 68.5563 139.673C56.9761 138.478 46.8658 146.72 42.0628 158.696C37.2598 170.671 43.396 187.029 40.3536 189.156C37.3111 191.283 36.6274 176.343 36.6274 176.343C35.2315 180.257 33.4957 184.041 31.4398 187.652C16.9624 204.275 16.3556 215.063 21.7227 229.908C24.2097 233.257 26.6454 235.46 27.1667 236.298C28.611 238.646 26.2608 245.864 27.1667 252.527C31.6791 278.152 54.7626 276.298 54.7626 276.298C54.9891 276.205 55.2019 276.082 55.3951 275.931C54.7331 275.346 54.021 274.82 53.267 274.359C45.4129 273.428 39.8921 268.551 40.5245 257.677C41.0971 247.914 43.943 238.091 43.2336 233.035C44.1652 234.504 49.3187 247.837 48.6606 254.756C48.0026 261.675 54.4635 263.298 54.4635 263.298L76.9574 229.251C74.9404 221.187 70.1972 209.348 68.2914 202.062ZM28.4059 231.659C28.4059 231.659 23.7139 221.196 22.6286 214.883C21.5432 208.571 31.662 190.702 31.662 190.702C32.7389 194.486 28.4059 231.659 28.4059 231.659Z" fill="#16304D"/>
<path d="M91.5654 183.869C91.5654 183.869 94.719 182.879 95.189 183.417C95.6591 183.955 93.7191 184.818 91.5654 183.869Z" fill="#16304D"/>
<path d="M85.0771 192.813C85.0771 192.813 89.9998 198.28 96.9223 197.503C103.845 196.726 103.674 192.011 103.674 192.011C103.674 192.011 97.2897 192.011 96.7599 192.813C94.3925 192.301 94.1277 191.105 85.0771 192.813Z" fill="#009DC3"/>
<path d="M86.1807 192.837C86.1807 192.837 86.3345 186.277 95.7012 188.942C103.393 187.148 103.983 189.377 102.726 192.008C101.427 192.068 97.8208 192.119 96.6329 193.076C94.4792 191.889 91.1119 190.864 86.1807 192.837Z" fill="#009DC3"/>
<path d="M82.8311 191.18C83.2506 191.643 83.7704 192.005 84.351 192.238C84.9315 192.47 85.5574 192.567 86.1811 192.521C88.1724 192.282 92.8644 189.762 96.488 192.521C98.7613 191.094 101.616 191.026 102.846 191.667C104.077 192.307 104.556 189.796 104.556 189.796C104.694 190.381 104.603 190.996 104.3 191.516C103.998 192.036 103.509 192.42 102.932 192.589C101.12 192.384 99.2314 191.914 97.3597 193.273C97.1629 193.419 96.9271 193.503 96.6822 193.515C96.4372 193.528 96.1942 193.467 95.9838 193.341C93.9498 192.119 91.7106 191.633 86.2154 193.273C84.7283 193.196 82.8396 192.119 82.8311 191.18Z" fill="#005689"/>
<path d="M71.37 214.261L73.8741 220.488C73.8741 220.488 90.471 225.203 93.7015 228.526C96.932 231.849 96.385 236.658 97.6841 239.066C98.9831 241.475 101.41 242.577 103.248 243.337C105.085 244.097 106.581 252.733 106.581 252.733C106.581 252.733 111.649 242.013 109.145 240.168C106.641 238.323 104.35 228.885 103.718 226.501C103.085 224.118 101.726 217.558 101.726 217.558L100.513 212.502C100.513 212.502 106.786 211.459 108.085 213.356C109.384 215.252 112.76 225.408 113.469 226.886C114.178 228.364 119.221 233.232 119.221 233.232L152.107 231.686V258.499L138.433 262.18C138.433 262.18 142.133 276.624 142.133 282.347C142.133 288.07 139.86 315.446 139.86 315.446C139.86 315.446 160.26 350.382 163.037 352.603C164.328 356.669 146.022 371.087 127.143 368.875C108.264 366.663 75.0706 362.956 70.4043 364.809C76.4636 350.203 86.9585 333.563 80.788 320.99C74.6176 308.417 70.4043 309.886 70.4043 309.886C70.4043 309.886 60.5504 315.25 53.5254 312.448C51.8161 285.644 50.9615 264.017 53.5254 257.918C56.0893 251.819 69.7633 235.709 69.7633 235.709C69.7633 235.709 71.37 223.136 69.7633 220.924C68.1566 218.711 69.148 216.115 71.37 214.261Z" fill="url(#paint11_linear_1535_52325)"/>
<path d="M139.799 315.422C139.799 315.422 142.927 289.532 142.072 282.322C141.218 275.113 138.372 262.155 138.372 262.155L152.046 258.474V231.661L113.408 226.861L114.571 234.548L129.441 248.121C129.578 248.245 129.671 248.41 129.706 248.591C132.937 263.71 132.757 272.226 129.843 276.343C124.348 284.09 117.134 279.76 113.605 282.425C96.7174 295.118 88.1112 268.647 85.026 265.23C81.9408 261.814 78.3941 250.863 66.4122 251.145C66.4122 251.145 80.3341 254.357 82.7783 271.773C85.2226 289.19 87.1626 304.779 87.1626 304.779C87.1626 304.779 64.9423 303.591 53.4219 312.466C59.7632 315.584 80.6845 321.008 80.6845 321.008C80.6845 321.008 75.1893 353.919 70.3008 364.827C81.7166 364.683 93.131 365.205 104.486 366.39C112.759 367.184 116.75 352.125 131.091 331.489C134.466 326.403 137.381 321.026 139.799 315.422Z" fill="url(#paint12_linear_1535_52325)"/>
<path d="M114.591 234.573C114.591 234.573 126.427 245.182 142.093 240.809C154.057 236.769 156.621 227.142 164.663 229.704C166.014 225.997 184.038 210.34 196.669 214.381L198.02 218.421C198.02 218.421 201.053 216.405 202.566 216.713C204.079 217.02 229.35 226.476 246.033 196.844C252.434 195.333 284.944 181.751 292.524 183.238C293.875 185.399 290.67 189.071 293.2 189.763C295.729 190.455 304.147 190.284 308.694 193.061C313.241 195.837 314.428 195.913 314.428 197.553C314.428 199.193 317.121 199.373 319.146 198.408C321.171 197.442 321.71 193.582 321.838 191.95C321.966 190.319 319.479 187.175 319.479 187.175C319.479 187.175 318.804 181.444 315.77 179.061C312.736 176.677 309.369 174.79 308.532 175.336C307.694 175.883 305.968 177.694 305.164 177.19C304.361 176.686 302.13 173.825 301.626 173.654C301.122 173.483 296.567 175.823 293.704 172.381C286.123 172.475 242.324 172.133 242.324 172.133C242.324 172.133 240.836 167.803 234.068 167.521C227.838 167.264 222.958 169.118 218.454 171.732C210.198 171.826 195.114 172.022 195.114 172.022L190.781 179.061L170.902 180.914C170.902 180.914 161.792 177.019 159.613 177.019C157.433 177.019 143.605 180.914 143.605 180.914L120.941 185.817C119.329 191.054 116.645 195.9 113.059 200.045C109.474 204.19 105.065 207.545 100.113 209.896C100.154 210.759 100.272 211.617 100.464 212.459C105.463 212.168 108.454 213.501 110.223 218.284C111.993 223.068 114.591 234.573 114.591 234.573Z" fill="url(#paint13_linear_1535_52325)"/>
<path d="M193.069 187.149C193.069 187.149 187.027 195.648 194.479 198.449C188.317 199.15 175.677 204.668 175.677 204.668L170.908 180.888L190.787 179.034L193.069 187.149Z" fill="#16304D"/>
<path d="M246.031 196.86L243.391 183.253L288.438 180.887C288.438 180.887 290.293 183.313 292.523 183.253C283.105 184.509 251.963 195.186 246.031 196.86Z" fill="url(#paint14_linear_1535_52325)"/>
<path d="M162.499 217.575C162.499 217.575 164.08 205.147 188.283 199.151C199.137 196.212 196.197 203.311 193.035 204.677C194.214 207.47 196.633 214.372 196.633 214.372C196.633 214.372 182.702 209.153 164.627 229.696L162.499 217.575Z" fill="#004477"/>
<path d="M148.055 218.421C142.286 221.197 119.767 236.188 105.469 206.812C103.769 207.978 101.98 209.009 100.119 209.896C100.16 210.759 100.277 211.616 100.47 212.459C105.469 212.168 108.46 213.501 110.229 218.284C111.998 223.067 114.588 234.513 114.588 234.513C114.588 234.513 126.425 245.122 142.09 240.749C154.055 236.709 156.619 227.082 164.661 229.645L162.533 217.524C162.533 217.524 153.824 215.645 148.055 218.421Z" fill="url(#paint15_linear_1535_52325)"/>
<path d="M145.842 239.229C130.458 241.279 131.74 231.226 131.544 224.537C117.306 209.82 142.389 202.739 146.62 199.22C150.85 195.701 154.14 195.649 154.14 195.649L151.79 190.687H130.963L115.306 197.153C111.409 202.617 106.182 206.998 100.119 209.88C100.16 210.743 100.277 211.6 100.47 212.442C105.469 212.152 108.46 213.484 110.229 218.268C111.998 223.051 114.588 234.497 114.588 234.497C114.588 234.497 126.425 245.106 142.09 240.733C143.375 240.322 144.629 239.82 145.842 239.229Z" fill="#16304D"/>
<path d="M202.564 216.729C204.085 217.071 229.348 226.493 246.031 196.861C246.031 196.861 244.407 184.049 243.39 183.254C240.219 186.492 226.425 204.694 207.88 202.542C201.769 201.414 193.514 204.66 193.069 204.677C194.309 208.094 198.009 218.344 198.018 218.412C198.018 218.412 201.052 216.422 202.564 216.729Z" fill="url(#paint16_linear_1535_52325)"/>
<path d="M116.819 204.677C117.203 205.08 117.668 205.397 118.184 205.606C118.7 205.815 119.254 205.912 119.811 205.89C121.451 205.668 151.645 194.786 151.645 194.786C151.645 194.786 154.696 196.204 156.166 195.862C157.636 195.52 159.226 193.829 158.209 190.737C156.397 187.517 152.321 183.758 151.081 183.827C149.842 183.895 147.911 185.936 147.911 185.936C147.911 185.936 148.594 183.459 146.107 184.587C143.62 185.714 140.45 189.327 140.45 189.327L119.178 196.673C119.178 196.673 114.332 201.773 116.819 204.677Z" fill="#16304D"/>
<path d="M157.859 194.71C153.714 194.71 152.868 192.634 151.723 192.515C150.578 192.395 122.666 202.466 116.846 204.704C117.227 205.101 117.689 205.412 118.201 205.617C118.712 205.821 119.261 205.915 119.811 205.891C121.452 205.669 151.646 194.787 151.646 194.787C151.646 194.787 154.697 196.205 156.167 195.863C156.852 195.695 157.452 195.285 157.859 194.71Z" fill="#004477"/>
<path d="M121.828 198.484C121.828 198.484 143.493 194.948 143.253 178.215C143.253 173.739 137.271 174.414 133.938 179.069C130.605 183.724 121.298 184.33 121.298 184.33C121.298 184.33 117.435 198.484 105.47 206.846C105.41 210.144 110.598 213.159 112.991 212.236C115.384 211.314 121.828 198.484 121.828 198.484Z" fill="#16304D"/>
<path d="M139.801 179.034C139.801 179.034 139.194 186.722 132.964 189.779C126.733 192.837 123.563 193.341 121.529 193.495C119.495 193.649 113.521 204.121 112.367 205.915C111.213 207.709 107.487 206.769 107.487 206.769C107.487 206.769 109.47 208.896 111.624 208.477C113.777 208.059 118.461 196.613 121.879 194.699C126.469 193.358 139.596 192.829 139.801 179.034Z" fill="#004477"/>
<path d="M193.069 187.149L288.437 180.888C288.749 179.701 289.498 178.676 290.535 178.018C291.572 177.361 292.819 177.119 294.026 177.343C294.552 175.699 294.436 173.917 293.702 172.355L191.949 170.843C191.949 170.843 187.001 183.51 193.069 187.149Z" fill="#16304D"/>
<path d="M289.77 178.616L190.386 183.254C190.545 184.051 190.864 184.808 191.326 185.478C191.787 186.148 192.381 186.716 193.069 187.149L288.437 180.888C288.679 180.029 289.138 179.246 289.77 178.616Z" fill="#004477"/>
<path d="M109.512 619.062C109.888 618.028 110.195 609.82 110.426 599.911C107.238 603.67 99.7859 611.725 86.7699 621.838C74.0359 630.474 67.763 628.748 64.7803 625.989C58.345 633.369 52.7557 639.323 51.6447 640.023C48.3629 642.296 49.0808 652.144 67.028 648.616C84.9752 645.089 92.5472 632.199 98.1023 628.911C103.657 625.622 108.52 621.838 109.512 619.062Z" fill="#16304D"/>
<path d="M131.569 549.49L133.971 551.292L132.766 559.39L116.365 564.694L115.032 556.468L120.134 557.989L130.997 554.376L131.569 549.49Z" fill="#009DC3"/>
<path d="M84.6771 556.468L100.624 562.883L113.136 559.671V555.084C113.136 555.084 117.085 557.647 117.256 558.211C117.427 558.774 117.256 567.214 117.256 567.214L99.0691 571.536L82.8311 566.342C82.8311 566.342 80.5919 556.784 84.6771 556.468Z" fill="#009DC3"/>
<path d="M145.818 370.89L128.401 390.365L113.137 559.679L100.634 562.891L102.001 384.744L145.818 370.89Z" fill="url(#paint17_linear_1535_52325)"/>
<path d="M319.477 187.149C319.477 187.149 318.802 181.418 315.768 179.035C312.734 176.651 309.366 174.764 308.529 175.31C307.691 175.857 305.965 177.668 305.162 177.164C304.358 176.66 302.128 173.799 301.624 173.628C301.119 173.457 296.564 175.797 293.701 172.355C293.701 172.355 294.855 175.772 294.026 177.343C294.026 177.343 297.231 178.514 300.265 179.752C302.965 180.307 304.871 178.215 307.102 179.035C309.332 179.855 315.862 183.305 316.195 185.133C316.528 186.961 316.759 186.688 317.656 187.149C319.454 188.331 320.894 189.982 321.818 191.924C322.006 190.301 319.477 187.149 319.477 187.149Z" fill="url(#paint18_linear_1535_52325)"/>
<path d="M299.132 183.219C299.388 182.489 298.645 181.564 297.474 181.154C296.302 180.744 295.145 181.004 294.889 181.734C294.633 182.464 295.376 183.389 296.547 183.799C297.719 184.209 298.876 183.949 299.132 183.219Z" fill="#16304D"/>
<path d="M312.895 188.026C313.151 187.296 312.409 186.372 311.237 185.962C310.066 185.552 308.909 185.811 308.653 186.541C308.397 187.272 309.139 188.196 310.311 188.606C311.482 189.016 312.64 188.757 312.895 188.026Z" fill="#16304D"/>
<path d="M301.94 183.776C301.94 183.776 299.248 186.663 299.035 187.953C298.821 189.242 298.71 193.769 301.513 194.846C304.53 195.597 305.786 188.926 305.932 187.953C306.077 186.979 306.248 181.965 301.94 183.776Z" fill="#16304D"/>
<path d="M175.199 197.57L170.926 180.888C170.926 180.888 171.157 172.107 172.421 172.115C173.686 172.124 176.037 177.061 176.43 179.999C176.823 182.938 175.199 197.57 175.199 197.57Z" fill="#16304D"/>
<path d="M302.453 188.413C301.445 186.833 300.445 186.517 299.676 186.611C299.38 187.014 299.162 187.469 299.035 187.952C298.821 189.242 298.71 193.769 301.513 194.845C301.944 194.929 302.389 194.88 302.792 194.707C303.194 194.533 303.535 194.242 303.769 193.871C303.931 191.958 303.47 190.043 302.453 188.413Z" fill="#004477"/>
<path d="M148.397 186.859L147.944 186.142L170.771 171.68H170.9L293.71 172.364L293.701 173.218L171.019 172.535L148.397 186.859Z" fill="white"/>
<path d="M148.389 188.55L147.953 187.815L171.977 173.602H172.096L293.71 174.183L293.701 175.037L172.207 174.456L148.389 188.55Z" fill="white"/>
<path d="M148.816 190.156L148.397 189.404L173.028 175.695H293.701V176.549H173.25L148.816 190.156Z" fill="white"/>
<path d="M148.364 192.898L147.979 192.138L173.729 178.881L293.001 176.882L293.018 177.736L173.943 179.727L148.364 192.898Z" fill="white"/>
<path d="M92.4192 229.695C92.4192 229.695 88.8554 230.062 88.6759 234.265C88.6477 239.085 88.9074 243.902 89.4536 248.692C89.6416 249.384 69.7032 235.734 69.7032 235.734L68.2588 237.442C68.2588 237.442 90.2484 255.431 92.4192 254.423C94.5899 253.415 94.3848 244.053 96.2052 244.053C97.6308 244.202 99.0048 244.669 100.225 245.42C101.446 246.171 102.482 247.187 103.256 248.393C104.897 251.194 110.366 272.079 110.366 272.079L106.546 250.878C106.546 250.878 107.7 244.045 100.128 240.406C96.9402 236.725 96.6154 229.328 92.4192 229.695Z" fill="url(#paint19_linear_1535_52325)"/>
<path d="M102.693 257.61C103.737 257.61 104.582 256.765 104.582 255.722C104.582 254.68 103.737 253.835 102.693 253.835C101.65 253.835 100.805 254.68 100.805 255.722C100.805 256.765 101.65 257.61 102.693 257.61Z" fill="#004477"/>
<path d="M104.581 264.042C105.624 264.042 106.47 263.197 106.47 262.155C106.47 261.112 105.624 260.267 104.581 260.267C103.538 260.267 102.692 261.112 102.692 262.155C102.692 263.197 103.538 264.042 104.581 264.042Z" fill="#004477"/>
<path d="M106.479 270.473C107.522 270.473 108.367 269.628 108.367 268.585C108.367 267.543 107.522 266.698 106.479 266.698C105.435 266.698 104.59 267.543 104.59 268.585C104.59 269.628 105.435 270.473 106.479 270.473Z" fill="#004477"/>
<path d="M109.102 240.176C109.102 240.176 104.171 221.239 104.966 219.394C105.76 217.549 106.162 215.524 107.453 216.276C108.743 217.028 113.657 234.316 113.657 234.316C113.657 234.316 111.709 229.131 110.358 230.712C109.008 232.292 109.102 240.176 109.102 240.176Z" fill="#004477"/>
<path d="M109.717 241.193L105.444 249.632L106.513 254.817C106.513 254.817 111.846 243.055 109.717 241.193Z" fill="#004477"/>
<path d="M244.133 185.33C244.133 185.33 255.525 187.107 255.423 188.183C255.32 189.26 254.568 194.163 254.568 194.163L246.022 196.853C246.022 196.853 239.416 207.573 235.143 210.443C245.723 203.251 249.526 204.652 249.526 204.652L256.278 199.928C256.278 199.928 261.405 202.192 263.448 201.936C262.219 199.867 261.095 197.737 260.081 195.555C260.081 195.555 260.474 191.207 260.867 190.353C261.26 189.499 256.192 182.93 256.192 182.93L243.817 183.784L244.133 185.33Z" fill="#16304D"/>
<path d="M256.251 199.944C256.251 199.944 261.951 202.557 263.421 201.951C264.891 201.345 264.712 196.826 266.78 197.569C268.848 198.312 272.566 200.653 273.617 195.399C279.309 196.433 279.309 194.016 279.599 191.129C283.138 191.684 283.872 190.095 283.565 187.285C286.983 187.72 287.838 187.883 288.573 187.285C289.308 186.687 290.47 186.499 290.282 184.842C290.094 183.185 286.488 178.863 285.154 177.804C283.821 176.744 277.976 175.301 278.77 180.366C276.523 179.204 275.489 179.7 272.643 178.265C269.711 176.48 266.6 175.361 265.652 178.205C263.139 174.882 261.25 173.123 259.011 174.412C256.772 175.702 258.063 178.589 258.063 178.589C258.063 178.589 254.174 178.145 255.815 184.816C256.935 188.643 259.695 188.532 259.695 189.753C259.695 190.975 256.935 191.539 258.917 194.878C259.259 197.321 256.251 199.944 256.251 199.944Z" fill="url(#paint20_linear_1535_52325)"/>
<path d="M269.711 192.505C269.711 192.505 266.771 188.499 264.045 186.585C261.319 184.672 258.063 178.607 258.063 178.607C258.063 178.607 255.319 178.607 255.499 180.88C256.097 182.135 257.028 183.058 258.011 182.477L258.994 181.896C258.994 181.896 261.831 186.534 263.729 187.44C265.626 188.345 269.711 192.505 269.711 192.505Z" fill="url(#paint21_linear_1535_52325)"/>
<path d="M275.695 188.636C275.695 188.636 273.311 185.176 270.696 184.288C268.08 183.4 264.807 177.779 264.337 177.788C263.867 177.796 262.474 180.188 260.466 179.035C259.905 178.754 259.421 178.341 259.055 177.833C258.689 177.324 258.451 176.734 258.363 176.114C258.363 176.114 259.432 174.713 260.654 174.713C261.26 174.448 260.654 174.029 260.654 174.029C260.654 174.029 262.508 173.952 265.628 178.232C266.004 177.463 267.063 175.601 269.123 176.908C270.713 178.078 271.174 179.342 270.567 180.043C269.961 180.743 268.14 180.897 268.14 180.897C268.14 180.897 269.448 182.913 270.986 183.391C272.524 183.869 275.746 187.141 275.695 188.636Z" fill="url(#paint22_linear_1535_52325)"/>
<path d="M282.753 185.57C281.658 183.679 280.323 181.939 278.779 180.393C278.497 178.685 278.924 175.456 284.385 177.31C285.564 178.813 286.094 181.529 284.667 181.862C283.24 182.196 280.787 181.102 280.787 181.102C280.787 181.102 283.129 183.622 282.753 185.57Z" fill="url(#paint23_linear_1535_52325)"/>
<path d="M235.142 2.49463C236.839 5.31439 237.39 8.67721 236.681 11.8905C235.484 17.2804 162.559 264.025 162.559 264.025L157.884 265.238L235.142 2.49463Z" fill="#C1E6FB"/>
<path d="M229.64 0.128082L154.142 264.068L157.859 265.28L235.143 2.49413C235.143 2.49413 232.802 -0.666299 229.64 0.128082Z" fill="#16304D"/>
<path d="M87.2154 304.803L91.5654 319.777C91.5654 319.777 131.049 288.078 133.955 283.047C136.339 267.988 137.373 258.37 138.45 254.859C139.527 251.349 144.142 247.65 145.792 245.532C145.792 245.532 161.893 232.19 164.371 228.192C167.679 229.593 164.303 238.442 159.585 241.235C158.202 242.959 157.053 244.857 156.167 246.881C156.167 246.881 158.833 246.335 159.585 246.608C160.337 246.881 165.619 251.186 166.055 252.049C166.491 252.912 166.055 256.38 164.636 257.627C164.753 260.017 164.139 262.385 162.876 264.418C163.559 266.186 164.217 269.748 163.021 270.482C161.824 271.217 157.15 275.248 156.688 277.17C154.304 277.17 152.612 275.599 153.124 272.686C151.475 282.381 150.372 287.412 144.698 289.88C139.023 292.349 120.349 352.457 83.1644 352.09C75.2933 344.958 60.568 316.736 58.0469 309.672C62.2516 307.972 71.4902 303.786 87.2154 304.803Z" fill="url(#paint24_linear_1535_52325)"/>
<path d="M71.0961 335.093C76.6768 318.488 91.6072 319.76 91.6072 319.76L87.2315 304.804C71.5063 303.787 62.2678 307.973 58.1143 309.664C60.6183 316.728 71.0534 335.093 71.0961 335.093Z" fill="#009DC3"/>
<path d="M164.66 257.619L158.985 251.52L151.251 253.015C152.747 253.536 158.524 253.109 158.524 253.109L164.66 257.619Z" fill="url(#paint25_linear_1535_52325)"/>
<path d="M162.9 264.408C162.9 264.408 159.302 259.881 157.431 259.667C155.559 259.454 150.867 262.153 150.867 262.153C150.867 262.153 156.926 260.812 157.961 261.23C159.662 262.202 161.311 263.263 162.9 264.408Z" fill="url(#paint26_linear_1535_52325)"/>
<path d="M133.98 283.047C133.98 283.047 140.775 286.301 141.92 288.283C145.262 288.283 151.466 267.253 148.603 266.254C144.518 264.836 143.903 261.846 143.903 259.668C141.057 259.668 141.604 256.362 141.193 255.397C140.715 254.244 138.877 253.868 138.877 253.868C138.877 253.868 137.715 250.887 133.98 283.047Z" fill="url(#paint27_linear_1535_52325)"/>
<path d="M153.151 272.679C153.151 272.679 153.518 267.623 153.518 266.982C154.126 267.948 154.514 269.035 154.655 270.168L159.167 269.613L155.791 272.175C155.791 272.175 153.749 276.6 156.714 277.198C156.714 277.164 152.604 277.642 153.151 272.679Z" fill="url(#paint28_linear_1535_52325)"/>
<path d="M54.0728 256.689C54.0728 256.689 73.678 238.452 82.831 271.799C86.1128 296.22 87.2153 304.804 87.2153 304.804C87.2153 304.804 72.943 301.84 53.4746 312.492C52.6798 298.834 49.6885 266.982 54.0728 256.689Z" fill="url(#paint29_linear_1535_52325)"/>
<path d="M161.423 231.618C161.423 231.618 162.44 232.737 164.072 231.618C165.705 230.499 165.337 229.679 165.337 229.679L164.397 228.184L161.423 231.618Z" fill="#C1E6FB"/>
<path d="M89.1377 195.862C91.0373 196.994 93.2108 197.585 95.4225 197.57C97.6342 197.555 99.7996 196.935 101.684 195.777C98.342 201.115 94.9321 203.541 89.1377 195.862Z" fill="url(#paint30_linear_1535_52325)"/>
<path d="M307.94 395.088C307.94 395.088 312.077 443.195 315.914 457.955C319.751 472.715 321.521 496.333 322.119 501.057C322.717 505.78 337.69 583.997 337.69 583.997C337.69 583.997 357.851 589.258 372.909 580.281L375.277 588.421C375.277 588.421 397.805 601.96 416.666 585.748C417.213 564.812 415.88 526.733 411.086 500.758C406.291 474.782 404.513 445.851 405.103 429.007C405.693 412.163 398.266 385.906 398.266 385.906L307.94 395.088Z" fill="url(#paint31_linear_1535_52325)"/>
<path d="M365.276 410.943C368.441 416.379 372.875 420.969 378.2 424.32C383.525 427.672 389.582 429.685 395.855 430.187C396.12 419.818 390.3 401.906 390.3 401.906C390.3 401.906 371.737 411.173 365.276 410.943Z" fill="url(#paint32_linear_1535_52325)"/>
<path d="M427.1 289.205C427.1 289.205 438.851 286.788 440.056 284.935C440.176 281.672 440.911 274.07 441.142 272.865C437.518 271.652 433.339 274.915 434.826 278.896C433.233 278.441 431.525 278.615 430.057 279.383C430.057 279.383 425.724 287.788 427.1 289.205Z" fill="url(#paint33_linear_1535_52325)"/>
<path d="M443.672 306.886H446.851C446.851 306.886 446.45 304.11 448.279 303.239C450.108 302.368 452.483 302.923 452.962 305.067C453.441 307.211 453.201 312.208 452.244 312.686C451.287 313.164 447.723 314.505 446.689 310.696C445.501 310.542 443.271 310.542 443.271 310.542L443.672 306.886Z" fill="#16304D"/>
<path d="M345.278 164.513C345.278 164.513 339.655 204.07 337.193 210.459C338.638 222.187 341.535 238.647 360.046 237.511C378.557 236.375 379.865 219.155 379.865 219.155L383.48 191.924C383.48 191.924 356.106 162.053 345.278 164.513Z" fill="#009DC3"/>
<path d="M341.229 190.796L339.451 200.867C339.971 203.637 341.299 206.191 343.269 208.208C345.238 210.225 347.76 211.615 350.518 212.202C355.826 215.559 354.885 230.516 358.364 233.556C361.842 236.597 373.85 231.728 380.764 212.202C395.728 214.833 408.727 220.684 414.949 234.411C421.171 248.137 418.239 315.83 418.239 315.83L397.839 314.182L408.095 391.911C408.095 391.911 363.654 437.285 295.54 393.551C301.215 354.396 309.453 285.242 305.428 259.626C296.822 266.023 282.909 273.711 282.909 273.711C282.909 273.711 265.884 246.266 266.252 235.273C287.669 222.102 304.71 211.177 306.71 209.503C310.68 206.641 315.373 204.949 320.256 204.617C326.119 204.352 331.238 204.617 331.238 204.617C331.238 204.617 333.383 198.467 334.144 196.648C334.904 194.828 335.46 190.677 341.229 190.796Z" fill="#16304D"/>
<path d="M355.296 216.183C355.296 216.183 352.732 227.962 356.398 232.737C360.064 237.512 368.123 242.714 374.747 244.96C381.37 247.207 383.216 251.401 382.088 253.835C380.96 256.27 377.644 260.037 383.481 262.582C383.404 266.759 383.908 270.116 390.028 273.686C396.147 277.257 405.924 279.486 409.684 281.63C413.444 283.774 424.965 270.885 424.965 270.885C424.965 270.885 420.384 249.616 418.897 245.464C417.41 241.313 418.367 232.361 415.863 229.696C413.359 227.031 391.446 226.322 391.446 226.322L355.296 216.183Z" fill="url(#paint34_linear_1535_52325)"/>
<path d="M356.396 232.736C360.046 237.511 368.122 242.713 374.745 244.96C381.369 247.206 383.215 251.4 382.086 253.835C381.907 254.21 381.676 254.62 381.437 255.056L385.65 249.436C384.953 246.583 384.431 243.691 384.086 240.774C383.65 236.606 375.677 232.309 371.062 230.627C367.865 229.465 363.37 222.145 360.857 217.729L355.294 216.174C355.294 216.174 352.739 227.962 356.396 232.736Z" fill="url(#paint35_linear_1535_52325)"/>
<path d="M398.855 262.223C398.855 262.223 388.642 256.355 388.266 255.389C386.825 257.897 385.226 260.31 383.48 262.616C383.403 266.793 383.908 270.15 390.027 273.72C396.146 277.29 405.923 279.52 409.683 281.664L413.102 270.389L398.855 262.223Z" fill="url(#paint36_linear_1535_52325)"/>
<path d="M360.337 210.443C360.337 210.443 355.295 213.006 355.295 216.166C355.295 219.327 356.508 219.352 356.508 221.291C356.508 223.23 362.722 232.515 368.473 233.25C374.225 233.984 379.857 234.617 382.062 240.083C384.267 245.55 383.224 260.114 397.787 263.607C401.573 264.82 411.282 271.935 418.802 271.944C426.323 271.952 434.066 266.34 434.673 262.693C435.28 259.046 432.844 250.256 421.768 244.943C415.538 240.237 410.23 234.796 415.845 229.628C414.931 225.673 410.837 225.972 411.743 221.727C412.649 217.482 414.632 213.834 411.29 211.716C407.949 209.598 374.028 201.398 360.337 210.443Z" fill="url(#paint37_linear_1535_52325)"/>
<path d="M397.813 241.867C397.813 241.867 395.762 255.534 388.677 252.647C391.659 258.942 399.283 262.7 401.411 263.187C403.539 263.674 414.991 269.483 414.991 269.483L397.813 241.867Z" fill="#004477"/>
<path d="M384.609 224.527C384.609 224.527 368.371 212.859 365.465 226.731C362.534 225.945 359.688 225.134 358.628 222.546C357.568 219.958 354.115 215.08 358.474 211.587C363.448 209.024 382.002 207.734 383.438 206.624C384.874 205.514 387.634 206.829 387.634 206.829L391.053 207.085C391.053 207.085 385.925 210.169 387.634 214.277C389.343 218.386 384.609 224.527 384.609 224.527Z" fill="#004477"/>
<path d="M404.94 164.429C414.418 133.593 399.633 119.875 399.633 119.875C399.633 119.875 377.276 107.567 361.174 116.655C352.577 121.507 349.167 130.672 347.56 140.99C344.355 138.129 340.356 136.882 336.655 138.035C330.288 140.025 327.254 148.285 329.818 156.596C332.305 164.557 339.134 169.554 345.321 168.119L345.27 168.666C343.347 187.381 364.191 206.634 377.865 208.581C391.539 210.529 402.88 193.206 404.966 186.595C407.051 179.983 402.855 175.192 404.94 164.429Z" fill="url(#paint38_linear_1535_52325)"/>
<path d="M369.422 116.526L354.646 132.038C354.646 132.038 349.68 143.825 356.868 152.658C365.047 152.803 366.44 156.929 367.722 163.215C370.362 173.568 378.729 172.372 379.524 173.243C380.319 174.114 380.84 176.72 383.481 176.908C382.626 174.123 386.677 172.79 386.677 172.79C386.677 172.79 384.447 161.575 386.677 158.218C390.899 153.871 389.574 148.942 388.831 146.584C393.172 144.227 400.932 146.678 401.411 147.891C402.095 149.6 400.71 151.308 399.223 153.17C397.736 155.032 394.377 164.676 396.787 171.39C400.061 179.47 394.753 179.299 394.753 179.299C401.949 179.778 399.471 175.968 401.411 176.113C402.567 176.207 403.721 175.906 404.684 175.259C404.156 171.666 404.243 168.009 404.941 164.445C411.453 143.279 406.522 130.176 402.795 124.043C401.283 123.018 399.804 122.078 398.522 121.258C392.89 117.765 369.422 116.526 369.422 116.526Z" fill="url(#paint39_linear_1535_52325)"/>
<path d="M334.161 141.963C334.161 141.963 347.322 138.059 345.006 162.198C343.126 155.689 342.118 148.173 335.024 149.77C335.46 147.891 340.665 147.746 340.665 147.746C340.665 147.746 341.682 144.671 334.161 141.963Z" fill="url(#paint40_linear_1535_52325)"/>
<path d="M435.04 90.4837C429.972 87.0671 423.143 85.427 416.785 87.4856C415.571 87.8785 415.733 87.1439 415.469 85.8968C413.973 78.9012 408.085 73.7761 401.025 73.7761C398.389 73.7975 395.808 74.5283 393.552 75.8916C391.296 77.2549 389.449 79.2003 388.206 81.5235C388.017 81.8716 387.734 82.1599 387.39 82.3561C387.046 82.5523 386.653 82.6485 386.257 82.6339H385.967C384.611 82.6323 383.276 82.9731 382.087 83.6247C381.734 83.8097 381.337 83.8925 380.94 83.8639C380.543 83.8352 380.161 83.6961 379.839 83.4624C376.805 81.3014 373.002 79.277 368.789 79.277C359.123 79.277 351.166 86.7254 351.166 95.028C351.167 96.0498 351.29 97.0678 351.534 98.0603C351.596 98.3411 351.601 98.6316 351.547 98.9143C351.494 99.197 351.385 99.4661 351.225 99.7054C351.066 99.9447 350.859 100.149 350.619 100.307C350.378 100.465 350.108 100.572 349.825 100.623C346.804 101.147 344.061 102.707 342.067 105.035C340.074 107.363 338.955 110.312 338.902 113.376C338.902 115.242 339.323 117.084 340.133 118.765C340.133 118.765 332.937 130.51 336.646 138.061C340.065 137.66 350.645 136.788 350.32 152.685C352.491 153.838 355.944 152.403 355.944 152.403V139.94C355.944 139.94 368.669 133.004 369.678 131.271C370.686 129.537 368.233 122.592 368.233 122.592C368.233 122.592 387.804 118.082 400.06 126.359C401.734 127.504 403.151 128.985 404.222 130.706C405.294 132.428 405.995 134.354 406.281 136.361C406.862 140.231 407.136 144.092 407.136 144.092C407.136 144.092 427.493 145.082 426.938 129.861C439.8 130.767 453.217 102.664 435.04 90.4837Z" fill="#90D1DE"/>
<path d="M436.057 91.6521C430.981 88.2354 425.443 85.7583 419.084 87.8169C418.797 87.905 418.495 87.9318 418.197 87.8953C417.899 87.8588 417.612 87.76 417.355 87.6053C417.097 87.4505 416.876 87.2434 416.704 86.9972C416.532 86.7511 416.414 86.4716 416.358 86.1768C414.871 79.2239 408.974 74.022 401.915 74.022C399.28 74.0444 396.7 74.7746 394.444 76.1361C392.189 77.4977 390.341 79.4404 389.095 81.7608C388.906 82.1091 388.623 82.3981 388.279 82.5957C387.935 82.7932 387.543 82.8916 387.147 82.8797H386.856C385.5 82.8825 384.167 83.223 382.976 83.8706C382.625 84.0595 382.227 84.1446 381.829 84.1159C381.431 84.0871 381.049 83.9458 380.728 83.7083C377.694 81.5472 374.669 81.607 370.422 81.5558C359.987 81.4533 354.363 87.3471 353.406 93.6509C353.03 96.1536 353.585 101.928 352.38 102.15C346.15 103.337 344.407 106.096 342.774 112.195C342.298 114.509 342.425 116.906 343.142 119.156C343.142 119.156 334.766 127.186 336.612 138.042C340.031 137.641 350.611 136.77 350.287 152.666C352.457 153.819 356.799 152.666 356.799 152.666V140.229C356.799 140.229 366.986 132.857 367.994 131.123C369.003 129.389 367.336 123.017 367.336 123.017C367.336 123.017 388.702 118.362 400.915 126.639C402.588 127.785 404.005 129.266 405.076 130.987C406.147 132.709 406.849 134.634 407.136 136.641C407.718 140.511 407.991 144.38 407.991 144.38C407.991 144.38 428.348 145.362 427.793 130.141C440.689 131.047 454.226 103.833 436.057 91.6521Z" fill="#16304D"/>
<path d="M369.158 145.722C369.158 145.722 383.909 141.963 388.814 146.576C392.284 144.551 391.258 137.761 387.866 136.172C384.473 134.583 373.046 137.154 369.141 141.715C366.705 144.133 369.158 145.722 369.158 145.722Z" fill="#16304D"/>
<path d="M401.411 147.892C401.411 147.892 407.129 148.234 407.667 151.966C409.804 152.223 411.615 146.15 408.103 143.989C404.59 141.827 401.411 141.819 401.411 147.892Z" fill="#16304D"/>
<path d="M377.063 168.673C382.377 168.673 386.686 163.996 386.686 158.226C386.686 152.457 382.377 147.78 377.063 147.78C371.748 147.78 367.439 152.457 367.439 158.226C367.439 163.996 371.748 168.673 377.063 168.673Z" fill="#16304D"/>
<path d="M377.063 170.844C382.377 170.844 386.686 166.167 386.686 160.397C386.686 154.628 382.377 149.951 377.063 149.951C371.748 149.951 367.439 154.628 367.439 160.397C367.439 166.167 371.748 170.844 377.063 170.844Z" fill="#C1E6FB"/>
<path d="M374.747 170.843C378.801 170.843 382.088 166.021 382.088 160.072C382.088 154.123 378.801 149.301 374.747 149.301C370.692 149.301 367.405 154.123 367.405 160.072C367.405 166.021 370.692 170.843 374.747 170.843Z" fill="#16304D"/>
<path d="M381.283 160.694C383.237 160.694 384.821 159.834 384.821 158.772C384.821 157.711 383.237 156.851 381.283 156.851C379.329 156.851 377.745 157.711 377.745 158.772C377.745 159.834 379.329 160.694 381.283 160.694Z" fill="white"/>
<path d="M410.844 166.522C411.693 161.581 409.979 157.163 407.017 156.655C404.054 156.146 400.964 159.74 400.115 164.681C399.266 169.622 400.98 174.04 403.942 174.548C406.905 175.057 409.995 171.463 410.844 166.522Z" fill="#16304D"/>
<path d="M407.065 166.027C407.922 161.11 406.227 156.708 403.279 156.195C400.331 155.682 397.246 159.252 396.389 164.169C395.533 169.086 397.228 173.488 400.176 174.001C403.124 174.514 406.208 170.944 407.065 166.027Z" fill="#C1E6FB"/>
<path d="M404.565 165.308C405.449 160.238 404.344 155.81 402.098 155.419C399.852 155.028 397.315 158.822 396.432 163.892C395.548 168.963 396.653 173.39 398.899 173.781C401.145 174.172 403.682 170.378 404.565 165.308Z" fill="#16304D"/>
<path d="M406.276 164.463C406.434 163.557 405.684 162.669 404.6 162.481C403.517 162.292 402.51 162.874 402.352 163.78C402.194 164.686 402.945 165.574 404.028 165.762C405.112 165.951 406.118 165.369 406.276 164.463Z" fill="white"/>
<path d="M375.678 184.655C375.678 184.655 381.361 181.161 385.523 181.699C389.685 182.238 395.343 181.563 396.001 187.132C395.851 187.431 395.643 187.697 395.388 187.913C395.133 188.129 394.836 188.291 394.517 188.389C394.197 188.488 393.861 188.52 393.528 188.484C393.196 188.449 392.874 188.346 392.582 188.183C391.155 187.644 387.856 188.029 387.856 188.029C387.856 188.029 381.216 186.321 380.165 186.218C379.113 186.116 376.575 186.209 375.678 184.655Z" fill="#009DC3"/>
<path d="M375.43 185.903C375.43 185.903 375.609 195.077 385.061 195.615C394.514 196.153 395.189 188.03 395.189 188.03H388.676C387.882 188.03 382.609 186.595 382.609 186.595C382.609 186.595 376.224 185.937 375.43 185.903Z" fill="#009DC3"/>
<path d="M373.269 182.878C373.269 182.878 375.149 187.44 378.883 187.149C382.618 186.859 387.498 188.858 387.498 188.858C389.464 188.608 391.454 188.608 393.421 188.858C395.814 189.319 396.839 185.859 396.839 185.859C396.839 185.859 395.002 188.422 393.797 188.012C392.592 187.602 389.959 186.022 387.566 187.269C384.871 185.996 381.903 185.409 378.926 185.561C376.157 185.74 373.269 182.878 373.269 182.878Z" fill="#005689"/>
<path d="M397.813 176.463C397.813 176.463 385.771 176.164 383.48 174.977C383.48 176.907 383.48 178.325 386.121 178.615C388.762 178.906 387.07 181.639 387.489 181.639C387.907 181.639 389.531 183.066 390.984 180.204C392.069 178.897 394.753 179.299 394.753 179.299C395.143 179.327 395.535 179.274 395.904 179.145C396.274 179.015 396.612 178.811 396.899 178.545C397.186 178.279 397.415 177.957 397.572 177.599C397.729 177.241 397.811 176.854 397.813 176.463Z" fill="#009DC3"/>
<path d="M386.634 178.616C387.767 178.616 388.685 178.237 388.685 177.77C388.685 177.303 387.767 176.925 386.634 176.925C385.501 176.925 384.583 177.303 384.583 177.77C384.583 178.237 385.501 178.616 386.634 178.616Z" fill="#16304D"/>
<path d="M363.62 202.047C363.62 202.047 354.612 202.141 358.492 211.588C362.855 211.548 367.182 212.394 371.209 214.073C374.251 215.269 379.858 216.636 382.063 215.269C384.267 213.903 384.558 208.043 384.558 208.043C384.558 208.043 375.123 210.665 363.62 202.047Z" fill="#16304D"/>
<path d="M418.827 272.013C426.348 272.013 434.091 266.409 434.697 262.762C435.278 259.268 434.321 251.658 423.091 245.678C433.347 255.758 433.843 263.189 424.972 267.571C416.101 271.953 402.862 262.275 401.845 261.763C400.828 261.25 390.633 259.012 388.676 248.318C386.719 237.624 380.984 232.311 372.805 230.09C357.533 225.939 357.533 212.366 357.533 212.366C356.334 213.313 355.535 214.676 355.294 216.184C355.13 218.103 355.499 220.03 356.362 221.753C357.798 225.084 362.72 232.567 368.498 233.327C374.275 234.087 379.881 234.694 382.086 240.16C384.291 245.627 383.249 260.191 397.812 263.684C401.598 264.889 411.306 272.004 418.827 272.013Z" fill="#16304D"/>
<path d="M385.062 224.529L399.453 220.412V219.387L391.437 213.074L383.48 216.833L385.062 224.529Z" fill="#16304D"/>
<path d="M404.358 231.958C404.358 231.958 399.017 233.556 397.82 234.623C396.624 235.691 397.675 240.432 397.82 241.867C397.966 243.302 431.211 300.984 431.211 300.984L439.458 296.047L408.358 236.161L404.358 231.958Z" fill="#16304D"/>
<path d="M396.344 217.193L395.589 217.593L437.754 296.986L438.509 296.586L396.344 217.193Z" fill="white"/>
<path d="M393.641 218.18L392.892 218.591L436.443 297.867L437.192 297.456L393.641 218.18Z" fill="white"/>
<path d="M391.788 218.162L391.036 218.567L434.427 299.01L435.18 298.604L391.788 218.162Z" fill="white"/>
<path d="M389.039 219.168L388.293 219.585L433.097 299.808L433.843 299.391L389.039 219.168Z" fill="white"/>
<path d="M387.488 211.63C387.488 211.63 378.557 215.551 385.061 224.528C388.676 219.403 399.444 219.403 399.444 219.403C399.444 219.403 397.923 209.341 387.488 211.63Z" fill="#16304D"/>
<path d="M437.731 291.914C437.731 291.914 430.339 290.479 431.21 300.968C429.45 304.385 429.929 306.469 431.151 309.1C432.373 311.731 432.091 317.471 432.937 321.613C433.783 325.756 434.817 325.466 436.133 328.293C437.449 331.12 437.355 334.964 442.534 335.126C447.713 335.289 450.534 333.341 450.534 330.992C450.534 328.643 449.406 325.91 452.32 324.407C455.234 322.903 453.824 318.479 453.174 317.069C452.525 315.66 450.354 314.344 444.517 314.626C444.969 309.806 444.652 304.945 443.577 300.225C443.304 299.251 440.441 297.526 440.158 296.808C439.876 296.091 437.731 291.914 437.731 291.914Z" fill="url(#paint41_linear_1535_52325)"/>
<path d="M431.964 294.911C433.195 297.371 435.493 302.342 435.955 305.862C436.587 310.696 437.536 316.573 437.536 316.573C437.536 316.573 440.792 314.865 442.621 316.095C443.416 315.505 444.527 314.651 444.527 314.651C444.979 309.831 444.662 304.97 443.587 300.25C443.313 299.276 440.45 297.55 440.168 296.833C439.886 296.115 437.75 291.947 437.75 291.947C436.594 291.743 435.403 291.923 434.359 292.458C433.314 292.993 432.473 293.854 431.964 294.911Z" fill="url(#paint42_linear_1535_52325)"/>
<path d="M434.57 325.756C435.179 326.553 435.704 327.412 436.134 328.318C437.45 331.137 437.356 334.99 442.535 335.152C447.715 335.314 450.535 333.367 450.535 331.018C450.535 330.907 450.535 330.787 450.535 330.676C449.219 332.06 446.783 333.298 442.706 331.18C442.706 331.18 446.441 332.444 445.569 326.055C444.698 319.666 442.151 316.924 440.57 317.248C440.023 317.387 439.51 317.633 439.06 317.974C438.611 318.314 438.234 318.74 437.952 319.228C437.67 319.716 437.488 320.256 437.418 320.815C437.348 321.374 437.391 321.942 437.544 322.484C438.254 325.542 439.536 329.284 434.57 325.756Z" fill="url(#paint43_linear_1535_52325)"/>
<path d="M424.972 300.464C424.972 300.464 421.819 300.063 421.733 302.172C421.648 304.282 423.007 310.108 424.118 310.825C425.707 311.543 427.135 312.012 427.69 310.825C428.099 309.593 428.34 308.312 428.408 307.015C428.408 307.015 431.391 306.443 431.963 305.973C432.536 305.504 432.715 302.369 431.963 301.651C431.211 300.934 427.776 301.651 427.776 301.651C427.776 301.651 426.135 299.986 424.972 300.464Z" fill="#16304D"/>
<path d="M433.964 317.266C433.964 317.266 431.186 313.14 429.203 313.508C427.22 313.875 423.17 315.259 424.075 317.266C424.981 319.273 426.938 319.034 428.443 319.273C429.947 319.513 432.972 321.733 433.921 320.384C434.869 319.034 433.964 317.266 433.964 317.266Z" fill="#16304D"/>
<path d="M409.41 210.971C409.41 210.971 412.632 212.68 411.119 219.385C409.607 226.09 412.692 225.62 413.854 226.474C411.427 223.912 412.094 222.357 413.162 219.983C414.23 217.608 415.469 211.364 409.41 210.971Z" fill="#004477"/>
<path d="M385.917 223.528C385.917 223.528 393.455 218.36 399.446 220.402C399.873 216.729 395.839 211.313 391.985 211.407C394.651 212.893 397.856 217.318 398.301 218.48C393.686 218.36 387.763 220.359 385.917 223.528Z" fill="#004477"/>
<path d="M380.54 308.074C380.54 308.074 377.284 327.165 379.523 330.872C381.762 334.579 392.052 344.001 396.855 343.599C401.658 343.198 412.068 332.854 414.025 311.585C414.517 301.703 415.539 291.854 417.084 282.082L402.094 276.367C402.094 276.367 394.608 297.722 392.693 301.685C391.268 304.552 389.661 307.325 387.882 309.987L380.54 308.074Z" fill="url(#paint44_linear_1535_52325)"/>
<path d="M400.564 273.873C400.564 273.873 399 281.355 401.837 282.559C404.675 283.764 405.632 282.807 406.11 283.653C406.589 284.498 407.683 287.992 410.46 286.788C410.7 291.614 411.366 294.125 417.075 291.844C418.784 294.407 418.861 296.687 421.724 295.722C424.587 294.757 425.673 291.289 427.091 289.205C428.51 287.121 431.228 280.663 431.954 278.22C432.681 275.777 432.954 273.531 432.45 272.01C432.358 271.675 432.2 271.362 431.983 271.09C431.767 270.818 431.497 270.593 431.191 270.429C430.885 270.264 430.549 270.163 430.202 270.133C429.856 270.102 429.507 270.142 429.177 270.251C428.698 266.629 429.587 265.322 428.476 265.254C427.365 265.186 424.468 264.699 424.468 264.699C424.468 264.699 424.297 260.001 422.57 260.103C420.844 260.206 418.144 261.641 416.656 261.051C414.802 259.625 413.828 258.181 411.708 259.497C409.589 260.812 406.58 265.544 405.025 267.714L400.564 273.873Z" fill="url(#paint45_linear_1535_52325)"/>
<path d="M387.882 309.987L380.54 308.074C380.54 308.074 377.284 327.165 379.523 330.872C381.762 334.579 392.052 344.001 396.855 343.599C382.762 336.8 387.882 309.987 387.882 309.987Z" fill="#009DC3"/>
<path d="M421.213 281.628L429.187 270.251L429.075 266.458C429.075 266.458 421.452 278.775 421.213 281.628Z" fill="#005689"/>
<path d="M414.99 276.367L424.477 264.699L424.186 262.41C424.186 262.41 416.238 271.943 414.99 276.367Z" fill="#005689"/>
<path d="M409.41 272.012C409.41 272.012 414.076 263.974 414.991 263.009C415.905 262.044 416.7 261.053 416.7 261.053L414.991 259.695C414.991 259.695 409.436 268.578 409.41 272.012Z" fill="#005689"/>
<path d="M383.48 274.044L375.678 308.074L387.882 309.996L389.702 307.135L380.549 304.213L383.48 274.044Z" fill="#004477"/>
<path d="M288.644 270.474C288.644 270.474 290.071 242.936 272.85 231.259L268.714 233.822C268.714 233.822 282.772 255.774 282.926 273.754L288.644 270.474Z" fill="#004477"/>
<path d="M348.679 214.072C348.679 214.072 344.594 214.542 343.91 217.412C343.227 220.282 342.586 232.112 342.586 232.112C342.586 232.112 334.381 215.977 332.108 208.938C331.202 220.043 340.962 234.41 343.457 235.623C346.175 232.753 345.722 220.991 346.406 219.394C347.09 217.796 352.969 220.965 352.969 220.965C353.066 219.512 352.703 218.065 351.934 216.829C351.164 215.592 350.026 214.628 348.679 214.072Z" fill="#004477"/>
<path d="M355.142 244.772C356.336 244.772 357.304 243.514 357.304 241.962C357.304 240.41 356.336 239.152 355.142 239.152C353.948 239.152 352.979 240.41 352.979 241.962C352.979 243.514 353.948 244.772 355.142 244.772Z" fill="#004477"/>
<path d="M355.142 253.929C356.336 253.929 357.304 252.671 357.304 251.119C357.304 249.567 356.336 248.309 355.142 248.309C353.948 248.309 352.979 249.567 352.979 251.119C352.979 252.671 353.948 253.929 355.142 253.929Z" fill="#004477"/>
<path d="M355.142 263.077C356.336 263.077 357.304 261.819 357.304 260.267C357.304 258.714 356.336 257.456 355.142 257.456C353.948 257.456 352.979 258.714 352.979 260.267C352.979 261.819 353.948 263.077 355.142 263.077Z" fill="#004477"/>
<path d="M344.372 588.885C344.372 588.885 330.194 616.791 315.896 620.344C301.598 623.897 302.171 636.061 318.178 639.084C334.185 642.108 366.815 634.925 375.729 629.133C384.643 623.342 386.668 597.119 386.668 597.119L344.372 588.885Z" fill="#16304D"/>
<path d="M357.876 605.813L338.783 598.441C338.783 598.441 331.886 601.32 332.049 607.786C337.86 610.058 349.851 612.535 353.073 612.142C356.295 611.749 360.593 609.802 357.876 605.813Z" fill="#90D1DE"/>
<path d="M324.689 615.415C324.689 615.415 339.081 620.378 343.961 621.292C347.944 622.035 352.961 618.729 348.696 615.526C344.431 612.323 332.048 607.788 332.048 607.788C332.048 607.788 326.33 610.897 324.689 615.415Z" fill="#90D1DE"/>
<path d="M333.509 631.815C321.869 631.994 312.511 627.364 307.871 624.486C302.948 629.542 306.307 636.837 318.203 639.083C334.219 642.107 366.84 634.924 375.754 629.132C378.608 627.279 380.753 623.324 382.351 618.814C370.37 623.213 345.936 631.627 333.509 631.815Z" fill="#009DC3"/>
<path d="M375.37 599.45C375.37 599.45 364.345 628.732 350.526 633.831C336.706 638.93 338.561 650.914 354.85 652.213C377.293 656.074 409.401 639.4 415.289 630.517C421.921 620.574 417.776 597.648 417.776 597.648L375.37 599.45Z" fill="#16304D"/>
<path d="M390.686 614.791L370.901 609.555C370.901 609.555 364.355 613.176 365.226 619.583C371.252 621.197 383.447 622.35 386.592 621.607C389.737 620.864 393.797 618.455 390.686 614.791Z" fill="#90D1DE"/>
<path d="M358.722 627.971C358.722 627.971 373.575 631.327 378.532 631.695C382.566 632.002 387.189 628.167 382.592 625.451C377.994 622.734 365.2 619.583 365.2 619.583C365.2 619.583 359.858 623.298 358.722 627.971Z" fill="#90D1DE"/>
<path d="M369.321 643.302C357.766 644.755 347.955 641.184 343.007 638.835C338.665 644.396 341.229 650.657 353.263 652.391C378.124 655.995 403.737 641.176 415.001 633.599C417.821 631.694 418.573 628.064 418.522 623.494C407.053 629.14 381.628 641.799 369.321 643.302Z" fill="url(#paint46_linear_1535_52325)"/>
<path d="M350.578 454.548C349.176 445.015 328.426 435.491 328.426 435.491C328.426 435.491 326.187 442.777 330.853 455.667C335.519 468.556 337.118 487.895 337.69 499.665C338.109 508.267 328.614 509.061 323.486 508.899C327.307 529.775 337.69 583.998 337.69 583.998C337.69 583.998 357.851 589.259 372.91 580.282C370.551 572.133 359.235 515.075 358.817 510.026C358.398 504.978 351.98 464.072 350.578 454.548Z" fill="url(#paint47_linear_1535_52325)"/>
<path d="M336.416 577.301C336.416 577.301 355.132 588.089 371.455 574.166C373.541 582.357 376.583 593.718 376.583 593.718C376.583 593.718 349.962 603.114 335.561 593.718C334.142 587.551 332.553 577.617 332.553 577.617L335.535 572.697L336.416 577.301Z" fill="url(#paint48_linear_1535_52325)"/>
<path d="M416.778 575.312V578.686C416.778 578.686 396.267 590.815 374.619 586.433L373.85 583.512C373.85 583.512 369.987 584.059 369.628 587.39C369.269 590.721 370.867 603.021 375.303 605.575C379.738 608.129 407.898 605.994 418.307 598.904C423.393 591.097 418.658 577.089 418.658 577.089C418.658 577.089 418.684 576.03 416.778 575.312Z" fill="url(#paint49_linear_1535_52325)"/>
<path d="M281.652 263.802C281.652 263.802 252.68 279.878 235.117 274.052C226.528 265.288 227.349 256.712 230.614 252.51C233.878 248.307 252.971 222.947 255.509 219.394C257.389 214.269 261.124 214.269 263.423 214.269C266.209 213.209 267.089 208.827 274.242 213.056C281.396 217.284 289.882 221.751 291.335 223.519C293.292 226.509 292.54 231.856 292.506 233.769C292.472 235.683 281.618 235.213 278.832 236.682C276.046 238.151 274.251 243.797 274.251 243.797C274.251 243.797 280.515 256.653 281.652 263.802Z" fill="url(#paint50_linear_1535_52325)"/>
<path d="M268.712 233.812L264.216 234.667C264.216 234.667 261.84 245.164 261.165 248.333C260.49 251.502 259.507 259.856 252.414 267.732C247.158 272.643 242.851 274.036 235.116 274.036C252.679 279.87 281.651 263.785 281.651 263.785C281.061 260.113 280.446 254.39 278.694 250.247C275.977 244.421 272.63 238.91 268.712 233.812Z" fill="#009DC3"/>
<path d="M258.218 226.861C258.218 226.861 372.456 243.304 474.653 238.452C474.653 238.452 478.217 242.842 477.217 244.517C476.217 246.191 474.798 248.343 474.798 248.343C474.798 248.343 470.602 249.138 470.525 248.343C472.867 246.225 477.063 243.005 472.234 241.706C464.637 242.996 321.683 242.62 290.309 236.752C273.473 232.951 266.303 235.36 266.303 235.36C266.303 235.36 261.047 236.496 258.218 233.848C255.389 231.2 254.552 227.211 258.218 226.861Z" fill="#16304D"/>
<path d="M474.303 245.626C474.303 245.626 328.161 241.868 288.669 237.571C287.319 238.323 288.959 240.057 288.959 240.057C288.959 240.057 388.353 247.352 470.508 248.308C472.07 247.933 473.428 246.973 474.303 245.626Z" fill="white"/>
<path d="M258.363 221.853C258.363 221.853 256.577 227.329 264.251 230.148C264.738 233.94 263.593 236.426 264.251 238.45C264.909 240.474 266.208 247.692 270.943 244.062C273.883 247.325 277.472 244.549 277.78 244.062C279.25 245.155 283.292 245.249 283.762 244.771C284.617 243.917 285.472 241.226 285.472 241.226C285.472 241.226 288.497 242.311 290.232 241.226C291.967 240.141 292.967 237.57 292.967 237.57C292.967 237.57 293.65 229.421 292.48 226.466C291.309 223.511 290.104 222.195 285.164 219.376C279.882 216.344 271.302 208.921 266.892 211.817C262.482 214.713 260.149 217.198 258.363 221.853Z" fill="url(#paint51_linear_1535_52325)"/>
<path d="M287.549 225.715C287.549 225.715 284.07 229.132 284.771 231.259C285.472 233.386 285.515 241.227 285.515 241.227L287.549 241.671C287.549 241.671 287.104 233.924 286.54 232.156C285.976 230.388 286.027 228.936 287.549 225.715Z" fill="#004477"/>
<path d="M275.693 229.499C276.743 230.397 277.505 231.586 277.881 232.915C278.736 235.367 278.736 244.507 278.736 244.507L277.838 244.054C277.838 244.054 277.292 233.966 276.984 232.864C276.676 231.762 275.693 229.499 275.693 229.499Z" fill="#004477"/>
<path d="M269.857 228.867C269.857 228.867 271.497 231.523 271.25 233.351C271.002 235.179 270.942 244.062 270.942 244.062L269.865 244.729C269.865 244.729 269.506 235.657 270.173 233.291C270.559 231.822 270.448 230.266 269.857 228.867Z" fill="#004477"/>
<path d="M296.522 315.642H180.634C179.717 315.642 178.828 315.962 178.121 316.547C177.414 317.132 176.934 317.945 176.763 318.845L162.234 395.157C162.125 395.732 162.145 396.324 162.293 396.89C162.441 397.455 162.713 397.981 163.089 398.429C163.465 398.877 163.937 399.236 164.469 399.48C165.001 399.723 165.58 399.846 166.165 399.838L282.882 398.232C283.795 398.221 284.675 397.893 285.372 397.304C286.069 396.715 286.54 395.901 286.702 395.004L300.376 320.298C300.48 319.731 300.458 319.149 300.313 318.592C300.167 318.035 299.901 317.516 299.534 317.073C299.167 316.629 298.707 316.271 298.186 316.024C297.666 315.777 297.098 315.647 296.522 315.642ZM291.351 325.201L279.446 390.118C279.305 390.899 278.896 391.607 278.29 392.12C277.683 392.633 276.917 392.919 276.122 392.928L174.686 394.312C174.177 394.321 173.672 394.216 173.208 394.006C172.745 393.795 172.334 393.483 172.007 393.094C171.679 392.704 171.442 392.246 171.315 391.753C171.187 391.261 171.171 390.746 171.268 390.246L183.89 323.936C184.038 323.152 184.456 322.445 185.071 321.936C185.686 321.427 186.459 321.15 187.258 321.152H287.976C288.48 321.149 288.978 321.258 289.435 321.471C289.891 321.683 290.296 321.994 290.618 322.381C290.941 322.768 291.174 323.221 291.3 323.709C291.427 324.196 291.445 324.706 291.351 325.201Z" fill="#16304D"/>
<path d="M182.294 319.87L228.315 396.267H219.308L178.226 328.267L182.294 319.87Z" fill="#16304D"/>
<path d="M246.056 319.87L279.856 394.329L284.676 380.013L251.192 317.265L246.056 319.87Z" fill="#16304D"/>
<path d="M168.225 385.941L232.57 318.641L242.629 319.871L169.242 396.268L168.225 385.941Z" fill="#16304D"/>
<path d="M294.624 318.641L231.313 394.329H241.56L298.479 324.415L294.624 318.641Z" fill="#16304D"/>
<path d="M235.143 318.64L219.332 396.268H235.997L249.03 316.983C249.03 316.983 248.236 312.781 242.629 312.456C237.886 312.191 235.63 316.12 235.143 318.64Z" fill="#16304D"/>
<path d="M214.63 396.268C214.63 396.268 211.853 408.807 217.451 410.012C223.049 411.216 232.62 411.515 234.142 410.012C235.663 408.508 239.15 398.489 234.142 396.268C226.151 395.986 214.63 396.268 214.63 396.268Z" fill="#16304D"/>
<path d="M217.476 410.011C217.476 410.011 213.4 406.355 215.853 402.118C217.75 401.452 218.528 402.118 218.528 402.118L216.818 398.701H220.006C220.006 398.701 221.468 409.464 217.476 410.011Z" fill="#004477"/>
<path d="M222.733 407.68L212.623 602.918L161.721 650.051C161.515 650.242 161.354 650.477 161.251 650.738C161.148 651 161.104 651.281 161.124 651.561C161.143 651.841 161.226 652.114 161.365 652.358C161.504 652.602 161.695 652.812 161.926 652.972C162.246 653.204 162.63 653.328 163.024 653.328C163.419 653.328 163.803 653.204 164.123 652.972L210.854 617.84L211.589 664.734C211.595 665.228 211.797 665.7 212.148 666.047C212.5 666.394 212.975 666.588 213.469 666.588H217.494C217.981 666.588 218.449 666.4 218.8 666.062C219.151 665.724 219.357 665.264 219.374 664.777L221.22 616.457L264.892 655.023C265.259 655.346 265.739 655.513 266.227 655.487C266.716 655.462 267.176 655.246 267.507 654.886L269.216 653.032C269.55 652.671 269.729 652.194 269.716 651.703C269.704 651.212 269.5 650.745 269.148 650.401L220.22 602.961L229.16 407.68H222.733Z" fill="#16304D"/>
<defs>
<linearGradient id="paint0_linear_1535_52325" x1="286.549" y1="316.267" x2="267.308" y2="345.045" gradientUnits="userSpaceOnUse">
<stop offset="0.1" stop-color="#90D1DE"/>
<stop offset="1" stop-color="#009DC3"/>
</linearGradient>
<linearGradient id="paint1_linear_1535_52325" x1="283.361" y1="303.863" x2="245.46" y2="411.288" gradientUnits="userSpaceOnUse">
<stop offset="0.1" stop-color="#90D1DE"/>
<stop offset="1" stop-color="#009DC3"/>
</linearGradient>
<linearGradient id="paint2_linear_1535_52325" x1="223.348" y1="311.389" x2="203.331" y2="341.337" gradientUnits="userSpaceOnUse">
<stop offset="0.1" stop-color="#90D1DE"/>
<stop offset="1" stop-color="#009DC3"/>
</linearGradient>
<linearGradient id="paint3_linear_1535_52325" x1="220.118" y1="299.31" x2="181.269" y2="409.426" gradientUnits="userSpaceOnUse">
<stop offset="0.1" stop-color="#90D1DE"/>
<stop offset="1" stop-color="#009DC3"/>
</linearGradient>
<linearGradient id="paint4_linear_1535_52325" x1="212.145" y1="216.089" x2="206.365" y2="258.499" gradientUnits="userSpaceOnUse">
<stop offset="0.25" stop-color="#90D1DE"/>
<stop offset="1" stop-color="#009DC3"/>
</linearGradient>
<linearGradient id="paint5_linear_1535_52325" x1="144.261" y1="643.004" x2="101.484" y2="535.704" gradientUnits="userSpaceOnUse">
<stop offset="0.25" stop-color="#90D1DE"/>
<stop offset="1" stop-color="#009DC3"/>
</linearGradient>
<linearGradient id="paint6_linear_1535_52325" x1="80.3436" y1="620.198" x2="82.7596" y2="540.632" gradientUnits="userSpaceOnUse">
<stop offset="0.25" stop-color="#90D1DE"/>
<stop offset="1" stop-color="#009DC3"/>
</linearGradient>
<linearGradient id="paint7_linear_1535_52325" x1="83.3098" y1="202.337" x2="81.4487" y2="92.7299" gradientUnits="userSpaceOnUse">
<stop offset="0.25" stop-color="#90D1DE"/>
<stop offset="1" stop-color="#009DC3"/>
</linearGradient>
<linearGradient id="paint8_linear_1535_52325" x1="91.7444" y1="108.632" x2="89.3711" y2="205.53" gradientUnits="userSpaceOnUse">
<stop offset="0.02" stop-color="#004477"/>
<stop offset="0.03" stop-color="#004578"/>
<stop offset="0.26" stop-color="#006B98"/>
<stop offset="0.48" stop-color="#0087B0"/>
<stop offset="0.66" stop-color="#0097BE"/>
<stop offset="0.81" stop-color="#009DC3"/>
</linearGradient>
<linearGradient id="paint9_linear_1535_52325" x1="81.5071" y1="262.855" x2="77.5288" y2="44.6389" gradientUnits="userSpaceOnUse">
<stop offset="0.25" stop-color="#004578"/>
<stop offset="0.42" stop-color="#006B98"/>
<stop offset="0.57" stop-color="#0087B0"/>
<stop offset="0.71" stop-color="#0097BE"/>
<stop offset="0.81" stop-color="#009DC3"/>
</linearGradient>
<linearGradient id="paint10_linear_1535_52325" x1="82.1554" y1="157.544" x2="94.0991" y2="50.5061" gradientUnits="userSpaceOnUse">
<stop offset="0.25" stop-color="#004578"/>
<stop offset="0.42" stop-color="#006B98"/>
<stop offset="0.57" stop-color="#0087B0"/>
<stop offset="0.71" stop-color="#0097BE"/>
<stop offset="0.81" stop-color="#009DC3"/>
</linearGradient>
<linearGradient id="paint11_linear_1535_52325" x1="77.9507" y1="91.2858" x2="122.789" y2="418.21" gradientUnits="userSpaceOnUse">
<stop offset="0.25" stop-color="#004578"/>
<stop offset="0.42" stop-color="#006B98"/>
<stop offset="0.57" stop-color="#0087B0"/>
<stop offset="0.71" stop-color="#0097BE"/>
<stop offset="0.81" stop-color="#009DC3"/>
</linearGradient>
<linearGradient id="paint12_linear_1535_52325" x1="128.749" y1="218.721" x2="31.4195" y2="464.365" gradientUnits="userSpaceOnUse">
<stop offset="0.25" stop-color="#004578"/>
<stop offset="0.42" stop-color="#006B98"/>
<stop offset="0.57" stop-color="#0087B0"/>
<stop offset="0.71" stop-color="#0097BE"/>
<stop offset="0.81" stop-color="#009DC3"/>
</linearGradient>
<linearGradient id="paint13_linear_1535_52325" x1="87.4819" y1="262.795" x2="250.173" y2="175.922" gradientUnits="userSpaceOnUse">
<stop offset="0.25" stop-color="#004578"/>
<stop offset="0.42" stop-color="#006B98"/>
<stop offset="0.57" stop-color="#0087B0"/>
<stop offset="0.71" stop-color="#0097BE"/>
<stop offset="0.81" stop-color="#009DC3"/>
</linearGradient>
<linearGradient id="paint14_linear_1535_52325" x1="248.262" y1="210.86" x2="278.008" y2="169.119" gradientUnits="userSpaceOnUse">
<stop offset="0.25" stop-color="#004578"/>
<stop offset="0.42" stop-color="#006B98"/>
<stop offset="0.57" stop-color="#0087B0"/>
<stop offset="0.71" stop-color="#0097BE"/>
<stop offset="0.81" stop-color="#009DC3"/>
</linearGradient>
<linearGradient id="paint15_linear_1535_52325" x1="140.62" y1="255.671" x2="129.888" y2="207.801" gradientUnits="userSpaceOnUse">
<stop offset="0.25" stop-color="#004578"/>
<stop offset="0.42" stop-color="#006B98"/>
<stop offset="0.57" stop-color="#0087B0"/>
<stop offset="0.71" stop-color="#0097BE"/>
<stop offset="0.81" stop-color="#009DC3"/>
</linearGradient>
<linearGradient id="paint16_linear_1535_52325" x1="228.357" y1="227.466" x2="213.706" y2="178.578" gradientUnits="userSpaceOnUse">
<stop offset="0.25" stop-color="#004578"/>
<stop offset="0.42" stop-color="#006B98"/>
<stop offset="0.57" stop-color="#0087B0"/>
<stop offset="0.71" stop-color="#0097BE"/>
<stop offset="0.81" stop-color="#009DC3"/>
</linearGradient>
<linearGradient id="paint17_linear_1535_52325" x1="47.6896" y1="440.881" x2="156.403" y2="478.355" gradientUnits="userSpaceOnUse">
<stop offset="0.11" stop-color="#004477" stop-opacity="0"/>
<stop offset="0.19" stop-color="#00477A" stop-opacity="0.06"/>
<stop offset="0.34" stop-color="#004F81" stop-opacity="0.21"/>
<stop offset="0.52" stop-color="#005C8E" stop-opacity="0.45"/>
<stop offset="0.73" stop-color="#006E9E" stop-opacity="0.79"/>
<stop offset="0.85" stop-color="#007AA9"/>
</linearGradient>
<linearGradient id="paint18_linear_1535_52325" x1="294.351" y1="188.396" x2="325.351" y2="173.923" gradientUnits="userSpaceOnUse">
<stop offset="0.25" stop-color="#004578"/>
<stop offset="0.42" stop-color="#006B98"/>
<stop offset="0.57" stop-color="#0087B0"/>
<stop offset="0.71" stop-color="#0097BE"/>
<stop offset="0.81" stop-color="#009DC3"/>
</linearGradient>
<linearGradient id="paint19_linear_1535_52325" x1="89.0434" y1="241.722" x2="90.1532" y2="297.397" gradientUnits="userSpaceOnUse">
<stop offset="0.25" stop-color="#004578"/>
<stop offset="0.42" stop-color="#006B98"/>
<stop offset="0.57" stop-color="#0087B0"/>
<stop offset="0.71" stop-color="#0097BE"/>
<stop offset="0.81" stop-color="#009DC3"/>
</linearGradient>
<linearGradient id="paint20_linear_1535_52325" x1="262.661" y1="163.898" x2="279.302" y2="208.577" gradientUnits="userSpaceOnUse">
<stop offset="0.25" stop-color="#90D1DE"/>
<stop offset="1" stop-color="#009DC3"/>
</linearGradient>
<linearGradient id="paint21_linear_1535_52325" x1="252.328" y1="171.21" x2="287.999" y2="225.169" gradientUnits="userSpaceOnUse">
<stop offset="0.25" stop-color="#004578"/>
<stop offset="0.42" stop-color="#006B98"/>
<stop offset="0.57" stop-color="#0087B0"/>
<stop offset="0.71" stop-color="#0097BE"/>
<stop offset="0.81" stop-color="#009DC3"/>
</linearGradient>
<linearGradient id="paint22_linear_1535_52325" x1="257.842" y1="167.563" x2="293.513" y2="221.53" gradientUnits="userSpaceOnUse">
<stop offset="0.25" stop-color="#004578"/>
<stop offset="0.42" stop-color="#006B98"/>
<stop offset="0.57" stop-color="#0087B0"/>
<stop offset="0.71" stop-color="#0097BE"/>
<stop offset="0.81" stop-color="#009DC3"/>
</linearGradient>
<linearGradient id="paint23_linear_1535_52325" x1="269.164" y1="160.081" x2="304.844" y2="214.04" gradientUnits="userSpaceOnUse">
<stop offset="0.25" stop-color="#004578"/>
<stop offset="0.42" stop-color="#006B98"/>
<stop offset="0.57" stop-color="#0087B0"/>
<stop offset="0.71" stop-color="#0097BE"/>
<stop offset="0.81" stop-color="#009DC3"/>
</linearGradient>
<linearGradient id="paint24_linear_1535_52325" x1="130.092" y1="253.595" x2="51.8988" y2="400.428" gradientUnits="userSpaceOnUse">
<stop offset="0.25" stop-color="#90D1DE"/>
<stop offset="1" stop-color="#009DC3"/>
</linearGradient>
<linearGradient id="paint25_linear_1535_52325" x1="156.712" y1="253.86" x2="185.241" y2="282.405" gradientUnits="userSpaceOnUse">
<stop offset="0.11" stop-color="#004477"/>
<stop offset="0.12" stop-color="#004578"/>
<stop offset="0.33" stop-color="#006B98"/>
<stop offset="0.52" stop-color="#0087B0"/>
<stop offset="0.7" stop-color="#0097BE"/>
<stop offset="0.83" stop-color="#009DC3"/>
</linearGradient>
<linearGradient id="paint26_linear_1535_52325" x1="155.884" y1="262.144" x2="178.502" y2="284.783" gradientUnits="userSpaceOnUse">
<stop offset="0.11" stop-color="#004477"/>
<stop offset="0.12" stop-color="#004578"/>
<stop offset="0.33" stop-color="#006B98"/>
<stop offset="0.52" stop-color="#0087B0"/>
<stop offset="0.7" stop-color="#0097BE"/>
<stop offset="0.83" stop-color="#009DC3"/>
</linearGradient>
<linearGradient id="paint27_linear_1535_52325" x1="136.126" y1="300.352" x2="149.888" y2="231.768" gradientUnits="userSpaceOnUse">
<stop offset="0.25" stop-color="#90D1DE"/>
<stop offset="1" stop-color="#009DC3"/>
</linearGradient>
<linearGradient id="paint28_linear_1535_52325" x1="160.535" y1="267.682" x2="139.784" y2="284.529" gradientUnits="userSpaceOnUse">
<stop offset="0.25" stop-color="#004477"/>
<stop offset="0.35" stop-color="#005B8B" stop-opacity="0.74"/>
<stop offset="0.48" stop-color="#0078A3" stop-opacity="0.42"/>
<stop offset="0.61" stop-color="#008CB5" stop-opacity="0.19"/>
<stop offset="0.72" stop-color="#0099BF" stop-opacity="0.05"/>
<stop offset="0.81" stop-color="#009DC3" stop-opacity="0"/>
</linearGradient>
<linearGradient id="paint29_linear_1535_52325" x1="28.9809" y1="292.282" x2="115.539" y2="266.179" gradientUnits="userSpaceOnUse">
<stop offset="0.25" stop-color="#004477"/>
<stop offset="0.35" stop-color="#005B8B" stop-opacity="0.74"/>
<stop offset="0.48" stop-color="#0078A3" stop-opacity="0.42"/>
<stop offset="0.61" stop-color="#008CB5" stop-opacity="0.19"/>
<stop offset="0.72" stop-color="#0099BF" stop-opacity="0.05"/>
<stop offset="0.81" stop-color="#009DC3" stop-opacity="0"/>
</linearGradient>
<linearGradient id="paint30_linear_1535_52325" x1="95.2397" y1="189.362" x2="95.6666" y2="205.728" gradientUnits="userSpaceOnUse">
<stop offset="0.11" stop-color="#004477"/>
<stop offset="0.12" stop-color="#004578"/>
<stop offset="0.33" stop-color="#006B98"/>
<stop offset="0.52" stop-color="#0087B0"/>
<stop offset="0.7" stop-color="#0097BE"/>
<stop offset="0.83" stop-color="#009DC3"/>
</linearGradient>
<linearGradient id="paint31_linear_1535_52325" x1="468.602" y1="440.393" x2="346.79" y2="498.545" gradientUnits="userSpaceOnUse">
<stop offset="0.25" stop-color="#90D1DE"/>
<stop offset="1" stop-color="#009DC3"/>
</linearGradient>
<linearGradient id="paint32_linear_1535_52325" x1="407.529" y1="371.992" x2="347.105" y2="480.944" gradientUnits="userSpaceOnUse">
<stop offset="0.02" stop-color="#004477"/>
<stop offset="0.03" stop-color="#004578"/>
<stop offset="0.26" stop-color="#006B98"/>
<stop offset="0.48" stop-color="#0087B0"/>
<stop offset="0.66" stop-color="#0097BE"/>
<stop offset="0.81" stop-color="#009DC3"/>
</linearGradient>
<linearGradient id="paint33_linear_1535_52325" x1="441.919" y1="260.181" x2="428.532" y2="301.262" gradientUnits="userSpaceOnUse">
<stop offset="0.25" stop-color="#90D1DE"/>
<stop offset="1" stop-color="#009DC3"/>
</linearGradient>
<linearGradient id="paint34_linear_1535_52325" x1="399.574" y1="216.551" x2="365.763" y2="313.263" gradientUnits="userSpaceOnUse">
<stop offset="0.11" stop-color="#004477"/>
<stop offset="0.12" stop-color="#004578"/>
<stop offset="0.33" stop-color="#006B98"/>
<stop offset="0.52" stop-color="#0087B0"/>
<stop offset="0.7" stop-color="#0097BE"/>
<stop offset="0.83" stop-color="#009DC3"/>
</linearGradient>
<linearGradient id="paint35_linear_1535_52325" x1="393.248" y1="245.318" x2="342.79" y2="224.936" gradientUnits="userSpaceOnUse">
<stop offset="0.25" stop-color="#004477"/>
<stop offset="0.35" stop-color="#005B8B" stop-opacity="0.74"/>
<stop offset="0.48" stop-color="#0078A3" stop-opacity="0.42"/>
<stop offset="0.61" stop-color="#008CB5" stop-opacity="0.19"/>
<stop offset="0.72" stop-color="#0099BF" stop-opacity="0.05"/>
<stop offset="0.81" stop-color="#009DC3" stop-opacity="0"/>
</linearGradient>
<linearGradient id="paint36_linear_1535_52325" x1="432.151" y1="258.533" x2="318.624" y2="292.639" gradientUnits="userSpaceOnUse">
<stop offset="0.25" stop-color="#004477"/>
<stop offset="0.35" stop-color="#005B8B" stop-opacity="0.74"/>
<stop offset="0.48" stop-color="#0078A3" stop-opacity="0.42"/>
<stop offset="0.61" stop-color="#008CB5" stop-opacity="0.19"/>
<stop offset="0.72" stop-color="#0099BF" stop-opacity="0.05"/>
<stop offset="0.81" stop-color="#009DC3" stop-opacity="0"/>
</linearGradient>
<linearGradient id="paint37_linear_1535_52325" x1="362.781" y1="202.602" x2="436.681" y2="267.285" gradientUnits="userSpaceOnUse">
<stop offset="0.11" stop-color="#004477"/>
<stop offset="0.12" stop-color="#004578"/>
<stop offset="0.33" stop-color="#006B98"/>
<stop offset="0.52" stop-color="#0087B0"/>
<stop offset="0.7" stop-color="#0097BE"/>
<stop offset="0.83" stop-color="#009DC3"/>
</linearGradient>
<linearGradient id="paint38_linear_1535_52325" x1="370.721" y1="203.892" x2="366.956" y2="108.387" gradientUnits="userSpaceOnUse">
<stop offset="0.25" stop-color="#90D1DE"/>
<stop offset="1" stop-color="#009DC3"/>
</linearGradient>
<linearGradient id="paint39_linear_1535_52325" x1="383.66" y1="108.523" x2="373.51" y2="223.299" gradientUnits="userSpaceOnUse">
<stop offset="0.02" stop-color="#004477"/>
<stop offset="0.03" stop-color="#004578"/>
<stop offset="0.26" stop-color="#006B98"/>
<stop offset="0.48" stop-color="#0087B0"/>
<stop offset="0.66" stop-color="#0097BE"/>
<stop offset="0.81" stop-color="#009DC3"/>
</linearGradient>
<linearGradient id="paint40_linear_1535_52325" x1="343.485" y1="138.615" x2="328.569" y2="190.16" gradientUnits="userSpaceOnUse">
<stop offset="0.02" stop-color="#004477"/>
<stop offset="0.03" stop-color="#004578"/>
<stop offset="0.26" stop-color="#006B98"/>
<stop offset="0.48" stop-color="#0087B0"/>
<stop offset="0.66" stop-color="#0097BE"/>
<stop offset="0.81" stop-color="#009DC3"/>
</linearGradient>
<linearGradient id="paint41_linear_1535_52325" x1="431.997" y1="293.58" x2="457.997" y2="355.184" gradientUnits="userSpaceOnUse">
<stop offset="0.11" stop-color="#004477"/>
<stop offset="0.12" stop-color="#004578"/>
<stop offset="0.33" stop-color="#006B98"/>
<stop offset="0.52" stop-color="#0087B0"/>
<stop offset="0.7" stop-color="#0097BE"/>
<stop offset="0.83" stop-color="#009DC3"/>
</linearGradient>
<linearGradient id="paint42_linear_1535_52325" x1="441.946" y1="318.35" x2="431.744" y2="267.37" gradientUnits="userSpaceOnUse">
<stop offset="0.22" stop-color="#004477"/>
<stop offset="0.83" stop-color="#009DC3"/>
</linearGradient>
<linearGradient id="paint43_linear_1535_52325" x1="445.475" y1="320.358" x2="435.161" y2="349.565" gradientUnits="userSpaceOnUse">
<stop offset="0.22" stop-color="#004477"/>
<stop offset="0.83" stop-color="#009DC3"/>
</linearGradient>
<linearGradient id="paint44_linear_1535_52325" x1="426.4" y1="343.334" x2="374.08" y2="274.734" gradientUnits="userSpaceOnUse">
<stop offset="0.25" stop-color="#90D1DE"/>
<stop offset="1" stop-color="#009DC3"/>
</linearGradient>
<linearGradient id="paint45_linear_1535_52325" x1="424.758" y1="252.04" x2="404.583" y2="309.191" gradientUnits="userSpaceOnUse">
<stop offset="0.25" stop-color="#90D1DE"/>
<stop offset="1" stop-color="#009DC3"/>
</linearGradient>
<linearGradient id="paint46_linear_1535_52325" x1="438.153" y1="620.385" x2="327.711" y2="655.243" gradientUnits="userSpaceOnUse">
<stop offset="0.25" stop-color="#90D1DE"/>
<stop offset="1" stop-color="#009DC3"/>
</linearGradient>
<linearGradient id="paint47_linear_1535_52325" x1="375.593" y1="446.322" x2="270.126" y2="707.106" gradientUnits="userSpaceOnUse">
<stop offset="0.02" stop-color="#004477"/>
<stop offset="0.03" stop-color="#004578"/>
<stop offset="0.26" stop-color="#006B98"/>
<stop offset="0.48" stop-color="#0087B0"/>
<stop offset="0.66" stop-color="#0097BE"/>
<stop offset="0.81" stop-color="#009DC3"/>
</linearGradient>
<linearGradient id="paint48_linear_1535_52325" x1="387.898" y1="564.514" x2="301.869" y2="615.036" gradientUnits="userSpaceOnUse">
<stop offset="0.02" stop-color="#004477"/>
<stop offset="0.03" stop-color="#004578"/>
<stop offset="0.26" stop-color="#006B98"/>
<stop offset="0.48" stop-color="#0087B0"/>
<stop offset="0.66" stop-color="#0097BE"/>
<stop offset="0.81" stop-color="#009DC3"/>
</linearGradient>
<linearGradient id="paint49_linear_1535_52325" x1="451.236" y1="560.723" x2="305.738" y2="640.824" gradientUnits="userSpaceOnUse">
<stop offset="0.02" stop-color="#004477"/>
<stop offset="0.03" stop-color="#004578"/>
<stop offset="0.26" stop-color="#006B98"/>
<stop offset="0.48" stop-color="#0087B0"/>
<stop offset="0.66" stop-color="#0097BE"/>
<stop offset="0.81" stop-color="#009DC3"/>
</linearGradient>
<linearGradient id="paint50_linear_1535_52325" x1="286.566" y1="192.641" x2="232.191" y2="309.283" gradientUnits="userSpaceOnUse">
<stop offset="0.25" stop-color="#90D1DE"/>
<stop offset="1" stop-color="#009DC3"/>
</linearGradient>
<linearGradient id="paint51_linear_1535_52325" x1="270.533" y1="221.324" x2="292.523" y2="254.844" gradientUnits="userSpaceOnUse">
<stop offset="0.25" stop-color="#90D1DE"/>
<stop offset="1" stop-color="#009DC3"/>
</linearGradient>
</defs>
</svg>
