<svg width="323" height="321" viewBox="0 0 323 321" fill="none" xmlns="http://www.w3.org/2000/svg">
<mask id="mask0_1960_59007" style="mask-type:alpha" maskUnits="userSpaceOnUse" x="48" y="11" width="238" height="310">
<rect x="48.0137" y="11.8472" width="237.517" height="308.982" rx="118.758" fill="white"/>
</mask>
<g mask="url(#mask0_1960_59007)">
<path d="M290.446 -56.1196H47.1748V582.5H290.446V-56.1196Z" fill="url(#paint0_linear_1960_59007)"/>
<path d="M238.967 271.874H268.482C263.86 243.551 239.279 221.936 209.649 221.936C204.674 221.932 199.718 222.551 194.896 223.777C217.625 229.567 235.139 248.421 238.967 271.874Z" fill="url(#paint1_linear_1960_59007)"/>
<path d="M274.976 202.661C275.467 202.661 275.865 202.263 275.865 201.772C275.865 201.281 275.467 200.883 274.976 200.883C274.485 200.883 274.087 201.281 274.087 201.772C274.087 202.263 274.485 202.661 274.976 202.661Z" fill="url(#paint2_linear_1960_59007)"/>
<path d="M275.154 215.888C275.644 215.888 276.042 215.49 276.042 214.999C276.042 214.509 275.644 214.111 275.154 214.111C274.663 214.111 274.265 214.509 274.265 214.999C274.265 215.49 274.663 215.888 275.154 215.888Z" fill="url(#paint3_linear_1960_59007)"/>
<path d="M235.631 197.897C236.122 197.897 236.52 197.499 236.52 197.008C236.52 196.517 236.122 196.119 235.631 196.119C235.14 196.119 234.742 196.517 234.742 197.008C234.742 197.499 235.14 197.897 235.631 197.897Z" fill="url(#paint4_linear_1960_59007)"/>
<path d="M161.834 209.5C162.325 209.5 162.723 209.102 162.723 208.611C162.723 208.12 162.325 207.722 161.834 207.722C161.343 207.722 160.945 208.12 160.945 208.611C160.945 209.102 161.343 209.5 161.834 209.5Z" fill="url(#paint5_linear_1960_59007)"/>
<path d="M296.221 -52.5342H50.333V154.439H296.221V-52.5342Z" fill="url(#paint6_linear_1960_59007)"/>
<path d="M210.242 -38.3166C205.267 -38.3198 200.31 -37.7012 195.488 -36.4751C221.275 -29.9079 240.345 -6.53221 240.345 21.2987C240.345 49.1297 221.275 72.5054 195.488 79.0717C200.31 80.2978 205.267 80.9164 210.242 80.9132C243.167 80.9132 269.857 54.2225 269.857 21.2987C269.857 -11.625 243.167 -38.3166 210.242 -38.3166Z" fill="url(#paint7_linear_1960_59007)"/>
<path d="M185.134 113.835H257.34C261.233 113.835 264.966 115.382 267.719 118.134C270.472 120.887 272.018 124.621 272.018 128.513V149.014H185.135V113.835H185.134Z" fill="url(#paint8_linear_1960_59007)"/>
<path d="M114.11 4.70862L108.72 22.9778L94.7496 21.3003L89.2188 13.6957L89.5648 153.001H117.912C117.912 153.001 112.381 4.70862 114.11 4.70862Z" fill="url(#paint9_linear_1960_59007)"/>
<path d="M248.871 65.5391V61.9016C249.506 61.6931 250.052 61.2758 250.419 60.7177C251.197 59.5337 252.194 57.8352 252.926 56.5547C255.216 55.7733 256.667 54.6149 256.667 53.3216C256.667 51.9984 255.147 50.8153 252.763 50.0339C252.299 48.1933 250.577 46.7016 248.314 46.1178C248.998 45.6688 249.43 45.0122 249.43 44.279C249.43 43.5459 248.984 42.8692 248.281 42.4193L247.917 34.5069C248.07 34.3517 248.19 34.1663 248.268 33.9626C248.346 33.7589 248.381 33.5411 248.371 33.3231C248.361 33.1051 248.306 32.8915 248.209 32.6959C248.113 32.5002 247.976 32.3268 247.809 32.1864L247.466 24.7539C247.614 24.6306 247.733 24.4762 247.815 24.3016C247.897 24.1271 247.939 23.9366 247.939 23.7439V23.3195C247.938 23.1028 247.884 22.8895 247.781 22.6988C247.678 22.5081 247.529 22.3459 247.348 22.2266L247.237 19.8333C247.398 19.7188 247.53 19.5675 247.62 19.3919C247.71 19.2163 247.758 19.0217 247.757 18.8242V18.4225C247.757 18.2016 247.698 17.9847 247.586 17.7943C247.474 17.6039 247.313 17.4469 247.12 17.3397L246.451 2.88641C246.447 2.81538 246.416 2.74858 246.365 2.69973C246.313 2.65087 246.244 2.62366 246.173 2.62366C246.102 2.62366 246.034 2.65087 245.982 2.69973C245.93 2.74858 245.899 2.81538 245.895 2.88641L245.349 17.3524C245.163 17.4619 245.009 17.6179 244.902 17.8051C244.795 17.9923 244.738 18.2042 244.738 18.4198V18.8214C244.738 19.0184 244.785 19.2125 244.875 19.3876C244.965 19.5628 245.096 19.714 245.256 19.8287L245.165 22.3633C245.033 22.4858 244.929 22.634 244.857 22.7987C244.786 22.9634 244.749 23.1409 244.749 23.3204V23.7448C244.749 24.0659 244.867 24.3758 245.081 24.6155L244.808 31.9723C244.548 32.0968 244.328 32.2898 244.17 32.5304C244.012 32.7711 243.923 33.0502 243.912 33.3378C243.901 33.6254 243.969 33.9104 244.109 34.1622C244.248 34.414 244.453 34.6229 244.703 34.7665L244.424 42.1843C243.474 42.6151 242.84 43.3929 242.84 44.279C242.84 45.0203 243.282 45.6834 243.98 46.1333C241.812 46.7134 240.15 48.125 239.633 49.8755C236.948 50.6505 235.201 51.9073 235.201 53.3253C235.201 54.7187 236.886 55.9564 239.492 56.7341C240.108 58.2122 241.141 59.7833 241.897 60.8388C242.268 61.3558 242.796 61.7391 243.403 61.9317V65.5427C243.403 65.8351 243.487 66.1214 243.645 66.3676C243.803 66.6137 244.028 66.8095 244.294 66.9316C243.957 80.0224 242.007 146.339 237.022 149.034H254.872C249.901 146.347 247.95 80.4158 247.603 67.049C247.958 66.9874 248.28 66.802 248.513 66.5257C248.745 66.2494 248.872 65.9 248.871 65.5391Z" fill="url(#paint10_linear_1960_59007)"/>
<path d="M78.1905 153.658V50.441L74.0485 9.82252C74.0485 9.82252 74.6004 5.37179 69.6297 5.64957H58.0316C58.0316 5.64957 54.9943 5.64957 53.6136 10.379C53.8868 10.6577 49.4707 65.744 49.4707 65.744V153.658H78.1905Z" fill="url(#paint11_linear_1960_59007)"/>
<path d="M100.28 39.8911H80.3975V153.657H100.28V39.8911Z" fill="url(#paint12_linear_1960_59007)"/>
<path d="M222.881 89.8729V82.9587H221.713V79.3112H220.067L215.732 73.6219H215.317L214.564 61.0739L213.552 36.4614L212.814 61.0739V73.6219H212.667L208.101 79.3112H206.394V82.9587H205.372V89.8729H204.687V149.904H223.846V89.8729H222.881Z" fill="url(#paint13_linear_1960_59007)"/>
<path d="M191.733 52.2454H164.391V152.889H191.733V52.2454Z" fill="url(#paint14_linear_1960_59007)"/>
<path d="M289.577 139.91H164.293V153.659H289.577V139.91Z" fill="url(#paint15_linear_1960_59007)"/>
<path d="M287.74 152.468H165.323V166.216H287.74V152.468Z" fill="url(#paint16_linear_1960_59007)"/>
<path d="M272.732 156.536V153.186H178.975C176.105 153.29 166.545 153.186 166.545 153.186C164.023 153.055 161.672 153.657 159.077 153.657C156.482 153.657 154.008 153.384 151.505 153.186H141.831L138.663 151.584C138.383 151.441 138.072 151.366 137.758 151.366C137.372 151.368 136.994 151.479 136.669 151.686C136.344 151.894 136.084 152.189 135.919 152.538C135.829 152.727 135.768 152.929 135.737 153.136C129.971 152.944 124.661 152.841 124.661 152.841C124.661 152.841 124.648 152.959 124.622 153.186H101.308V152.901H81.4255V153.186H79.2161V152.901H50.4972V153.186H50.1611V160.868H50.4972V242.352C50.4972 242.352 50.897 247.422 51.448 254.519H79.2161V160.868H81.4255V254.519H115.679C116.643 219.547 118.131 176.935 118.702 160.868H123.869C122.399 177.132 119.572 215.745 121.606 254.519H154.277C155.158 236.631 155.404 217.197 154.91 199.929C158.409 200.554 162.004 200.373 165.421 199.398V254.519H192.764V192.598H205.714V217.163H206.402V224.249H207.423V227.983H209.131L209.028 228.283L213.697 233.816H213.843V246.678L214.072 254.511H215.279L215.593 246.678L216.346 233.816H216.761L221.096 227.983H222.742V224.249H223.91V217.163H224.874V192.598H243.306C244.542 212.17 245.149 233.734 245.323 240.68C245.055 240.809 244.829 241.011 244.671 241.263C244.514 241.516 244.431 241.807 244.432 242.105V245.806C243.822 246.007 243.293 246.401 242.926 246.929C242.17 248.011 241.138 249.622 240.521 251.136C237.984 251.913 236.32 253.14 236.235 254.519H257.694C257.615 253.238 256.182 252.095 253.96 251.317C253.232 250.004 252.23 248.261 251.455 247.05C251.091 246.479 250.543 246.05 249.902 245.833V242.105C249.906 241.738 249.781 241.382 249.549 241.099C249.317 240.816 248.992 240.624 248.632 240.556C248.814 233.484 249.417 212.051 250.645 192.595H258.371C266.476 192.595 273.05 185.855 273.05 177.548V156.536H272.732ZM159.886 160.868L158.465 161.596L157.025 160.868H159.886ZM165.419 194.995C161.998 196.204 158.303 196.42 154.764 195.617C154.292 182.764 153.386 171.35 151.999 163.013L156.416 165.246V179.227C156.416 180.387 157.333 181.327 158.465 181.327C159.597 181.327 160.514 180.387 160.514 179.227V165.239L165.415 162.727L165.419 194.995Z" fill="url(#paint17_linear_1960_59007)"/>
<path opacity="0.62" d="M295.444 154.129H43.5439V252.852H295.444V154.129Z" fill="url(#paint18_linear_1960_59007)"/>
<path d="M296.43 152.927H40.2178V159.128H296.43V152.927Z" fill="url(#paint19_linear_1960_59007)"/>
<path d="M296.913 247.977H42.0566V271.183H296.913V247.977Z" fill="url(#paint20_linear_1960_59007)"/>
<path d="M300.485 254.619H41.0225V261.018H300.485V254.619Z" fill="url(#paint21_linear_1960_59007)"/>
<path d="M300.485 270.326H41.0225V276.726H300.485V270.326Z" fill="url(#paint22_linear_1960_59007)"/>
<path d="M274.976 97.402C275.467 97.402 275.865 97.004 275.865 96.5131C275.865 96.0222 275.467 95.6243 274.976 95.6243C274.485 95.6243 274.087 96.0222 274.087 96.5131C274.087 97.004 274.485 97.402 274.976 97.402Z" fill="url(#paint23_linear_1960_59007)"/>
<path d="M236.216 107.881C236.707 107.881 237.105 107.483 237.105 106.992C237.105 106.501 236.707 106.103 236.216 106.103C235.725 106.103 235.327 106.501 235.327 106.992C235.327 107.483 235.725 107.881 236.216 107.881Z" fill="url(#paint24_linear_1960_59007)"/>
<path d="M160.395 91.0655C160.886 91.0655 161.284 90.6675 161.284 90.1766C161.284 89.6857 160.886 89.2877 160.395 89.2877C159.904 89.2877 159.506 89.6857 159.506 90.1766C159.506 90.6675 159.904 91.0655 160.395 91.0655Z" fill="url(#paint25_linear_1960_59007)"/>
<path d="M275.154 67.21C275.644 67.21 276.042 66.812 276.042 66.3211C276.042 65.8302 275.644 65.4323 275.154 65.4323C274.663 65.4323 274.265 65.8302 274.265 66.3211C274.265 66.812 274.663 67.21 275.154 67.21Z" fill="url(#paint26_linear_1960_59007)"/>
<path d="M264.193 170.09H224.737C224.308 170.09 223.96 170.438 223.96 170.867C223.96 171.296 224.308 171.643 224.737 171.643H264.193C264.622 171.643 264.97 171.296 264.97 170.867C264.97 170.438 264.622 170.09 264.193 170.09Z" fill="url(#paint27_linear_1960_59007)"/>
<path d="M123.6 160.717H84.144C83.715 160.717 83.3672 161.064 83.3672 161.493C83.3672 161.922 83.715 162.27 84.144 162.27H123.6C124.029 162.27 124.377 161.922 124.377 161.493C124.377 161.064 124.029 160.717 123.6 160.717Z" fill="url(#paint28_linear_1960_59007)"/>
<path d="M175.738 160.717H136.282C135.853 160.717 135.505 161.064 135.505 161.493C135.505 161.922 135.853 162.27 136.282 162.27H175.738C176.167 162.27 176.515 161.922 176.515 161.493C176.515 161.064 176.167 160.717 175.738 160.717Z" fill="url(#paint29_linear_1960_59007)"/>
<path d="M227.874 160.717H188.417C187.988 160.717 187.641 161.064 187.641 161.493C187.641 161.922 187.988 162.27 188.417 162.27H227.874C228.303 162.27 228.651 161.922 228.651 161.493C228.651 161.064 228.303 160.717 227.874 160.717Z" fill="url(#paint30_linear_1960_59007)"/>
<path d="M248.056 175.427H208.599C208.17 175.427 207.822 175.774 207.822 176.203C207.822 176.632 208.17 176.98 208.599 176.98H248.056C248.485 176.98 248.832 176.632 248.832 176.203C248.832 175.774 248.485 175.427 248.056 175.427Z" fill="url(#paint31_linear_1960_59007)"/>
<path d="M273.436 180.894H233.98C233.551 180.894 233.203 181.242 233.203 181.671C233.203 182.1 233.551 182.448 233.98 182.448H273.436C273.865 182.448 274.213 182.1 274.213 181.671C274.213 181.242 273.865 180.894 273.436 180.894Z" fill="url(#paint32_linear_1960_59007)"/>
<path d="M133.889 199.379H94.4321C94.0031 199.379 93.6553 199.727 93.6553 200.156C93.6553 200.585 94.0031 200.933 94.4321 200.933H133.889C134.318 200.933 134.665 200.585 134.665 200.156C134.665 199.727 134.318 199.379 133.889 199.379Z" fill="url(#paint33_linear_1960_59007)"/>
<path d="M146.389 205.627H106.932C106.503 205.627 106.155 205.975 106.155 206.404C106.155 206.833 106.503 207.181 106.932 207.181H146.389C146.818 207.181 147.165 206.833 147.165 206.404C147.165 205.975 146.818 205.627 146.389 205.627Z" fill="url(#paint34_linear_1960_59007)"/>
<path d="M113.452 223.852H73.9956C73.5666 223.852 73.2188 224.2 73.2188 224.629C73.2188 225.058 73.5666 225.406 73.9956 225.406H113.452C113.881 225.406 114.229 225.058 114.229 224.629C114.229 224.2 113.881 223.852 113.452 223.852Z" fill="url(#paint35_linear_1960_59007)"/>
<path d="M303.67 273.551H29.8076V280.689H303.67V273.551Z" fill="url(#paint36_linear_1960_59007)"/>
<path d="M148.97 153.068C155.649 133.311 155.437 62.906 150.701 23.6919H150.731L150.697 23.6263C150.691 23.4787 150.687 23.4013 150.687 23.4013H150.582L149.408 21.1245L148.307 23.2574L147.205 21.1245L146.113 23.2611L145.012 21.1282L143.911 23.2611L142.807 21.1282L141.706 23.2611L140.605 21.1282L139.503 23.2611L138.402 21.1282L137.301 23.2611L136.2 21.1282L135.099 23.2611L134 21.1282L132.899 23.2611L131.796 21.1282L130.696 23.2611L129.595 21.1282L128.494 23.2611L127.393 21.1282L126.329 23.1882H126.251L125.19 21.1282L124.231 22.9869C123.957 22.9387 123.783 22.8859 123.725 22.8276C115.1 80.7499 123.634 154.439 123.634 154.439C123.634 154.439 150.692 153.929 148.97 153.068Z" fill="url(#paint37_linear_1960_59007)"/>
<path d="M177.14 148.346L173.622 146.586C173.981 146.267 174.333 145.937 174.677 145.594C177.976 142.295 180.222 138.093 181.132 133.517C182.042 128.941 181.575 124.199 179.789 119.889C178.004 115.579 174.98 111.895 171.102 109.303C167.223 106.712 162.662 105.328 157.997 105.328C153.332 105.328 148.772 106.712 144.893 109.303C141.014 111.895 137.99 115.579 136.205 119.889C134.42 124.199 133.952 128.941 134.862 133.517C135.772 138.093 138.018 142.295 141.317 145.594C141.513 145.789 141.711 145.98 141.912 146.167L135.827 149.173C135.356 149.423 135.001 149.847 134.838 150.354C134.674 150.862 134.715 151.413 134.952 151.891C135.188 152.369 135.601 152.736 136.104 152.914C136.606 153.092 137.159 153.067 137.643 152.845L145.536 148.95C149.182 151.212 153.374 152.439 157.663 152.501C161.953 152.562 166.178 151.456 169.887 149.299L175.309 152.011C175.55 152.132 175.812 152.204 176.08 152.223C176.349 152.242 176.618 152.208 176.874 152.123C177.129 152.038 177.365 151.903 177.568 151.727C177.772 151.551 177.938 151.336 178.059 151.095C178.179 150.855 178.251 150.592 178.27 150.324C178.289 150.056 178.255 149.786 178.17 149.531C178.085 149.275 177.95 149.039 177.774 148.836C177.598 148.633 177.383 148.466 177.142 148.346H177.14ZM144.215 142.699C141.399 139.887 139.511 136.281 138.805 132.364C138.099 128.448 138.608 124.409 140.265 120.79C141.921 117.172 144.645 114.147 148.071 112.122C151.496 110.097 155.46 109.168 159.429 109.462C163.397 109.755 167.181 111.256 170.272 113.762C173.363 116.269 175.613 119.662 176.719 123.484C177.826 127.307 177.736 131.377 176.462 135.147C175.187 138.917 172.79 142.207 169.592 144.574L159.494 139.525V125.877C159.494 125.334 159.278 124.812 158.894 124.428C158.51 124.044 157.989 123.828 157.445 123.828C156.902 123.828 156.38 124.044 155.996 124.428C155.612 124.812 155.396 125.334 155.396 125.877V139.515L145.901 144.199C145.311 143.73 144.748 143.229 144.215 142.696V142.699ZM157.997 148.403C155.259 148.408 152.551 147.835 150.05 146.72L157.439 143.077L165.271 146.993C162.959 147.926 160.49 148.405 157.997 148.403Z" fill="url(#paint38_linear_1960_59007)"/>
</g>
<mask id="mask1_1960_59007" style="mask-type:alpha" maskUnits="userSpaceOnUse" x="0" y="0" width="323" height="321">
<path fill-rule="evenodd" clip-rule="evenodd" d="M315.714 0H0V241.958H54.5703C70.9258 287.986 114.867 320.944 166.505 320.944C232.094 320.944 285.264 267.774 285.264 202.185V146.706C285.264 139.869 284.686 133.166 283.576 126.644L323 125.15L315.714 0Z" fill="#D9D9D9"/>
</mask>
<g mask="url(#mask1_1960_59007)">
<path d="M79.3505 294.82C64.8955 295.781 66.582 301.911 98.7449 302.032C130.908 302.154 136.329 299.147 119.099 297.464C101.869 295.781 79.3505 294.82 79.3505 294.82Z" fill="url(#paint39_linear_1960_59007)"/>
<path d="M86.6317 264.38L95.4825 266.06L95.9009 272.841L100.476 265.32L103.707 267.603L99.4003 278.348L104.38 280.228L103.572 282.378L124.838 295.675V298.227L103.707 301.853L89.4395 299.301L81.8252 286.116L81.0957 276.065L86.6317 264.38Z" fill="#7B170F"/>
<path d="M66.624 306.801C52.1689 307.764 53.8554 313.894 86.0183 314.014C118.181 314.134 123.602 311.13 106.372 309.447C89.1422 307.764 66.624 306.801 66.624 306.801Z" fill="url(#paint40_linear_1960_59007)"/>
<path d="M62.8641 304.179C62.1827 306.828 63.2964 308.935 70.4797 310.418C77.663 311.9 98.8412 317.091 110.606 310.291C111.102 309.797 111.845 307.202 109.368 306.707C106.892 306.213 62.8641 304.179 62.8641 304.179Z" fill="#F191A0"/>
<path d="M89.2063 272.609L83.2695 274.916L84.6437 282.952L88.7638 279.027L89.2063 272.609Z" fill="#7B170F"/>
<path d="M101.031 210.392C102.712 214.906 103.812 223.237 102.596 225.841C101.38 228.444 99.1751 240.475 99.2333 241C99.2915 241.525 94.9425 269.987 94.9425 269.987L94.3635 267.672L86.3623 265.592L92.5658 222.025L91.7542 216.588L94.074 210.628L101.031 210.392Z" fill="#7B170F"/>
<path d="M25.8271 223.091L33.9194 225.728L42.0104 229.025L51.7524 228.53L65.6234 238.252L70.4123 233.144L74.2113 234.297L103.769 214.359L107.128 206.342L95.512 207.931L78.009 221.114L60.3403 225.728L25.8271 223.091Z" fill="#7B170F"/>
<path d="M93.4134 216.39C95.2187 221.642 96.8723 223.443 95.5196 227.795C94.1669 232.146 84.9925 271.164 84.9925 273.264V280.018L82.4362 274.916L67.5488 276.866C67.5488 276.866 63.124 248.461 74.2087 234.301C74.3161 232.147 75.5197 226.144 74.0153 224.643C72.5108 223.142 93.4134 216.39 93.4134 216.39Z" fill="url(#paint41_linear_1960_59007)"/>
<path d="M32.2196 165.726C27.0009 175.567 17.1451 206.805 22.1311 223.237C25.6103 224.163 33.7265 224.163 33.7265 224.163L34.1905 228.675L47.6418 225.668L50.0767 228.791L76.8616 228.675L75.1221 224.626L95.7629 215.6L94.1397 212.244L107.126 206.342C107.126 206.342 83.3584 171.049 81.2687 167.925C79.1789 164.802 80.8047 159.825 80.8047 159.825L33.5015 162.371L32.2196 165.726Z" fill="#98150E"/>
<path d="M30.623 169.285L39.0351 174.252L39.6407 171.633L49.5332 175.059L50.1388 172.842L66.0211 173.917L65.2803 170.492L78.7392 172.371L82.3068 169.619C82.3068 169.619 79.413 165.589 80.6911 160.283C80.4888 159.273 43.2071 159.208 43.2071 159.208L33.9201 160.954L30.623 169.285Z" fill="#7B170F"/>
<path d="M114.743 102.128L119.858 104.68L110.437 130.2L101.015 124.155L103.169 110.456L113.262 100.113L114.743 102.128Z" fill="#98150E"/>
<path d="M126.866 33.9997C131.619 35.5238 144.352 42.4702 140.787 55.177C145.541 51.4502 147.235 40.7758 137.053 33.6604C126.871 26.5449 122.452 26.5449 122.452 26.5449L126.866 33.9997Z" fill="#98150E"/>
<path d="M137.556 76.7304C136.698 80.6414 137.066 88.2274 137.43 89.084C138.042 91.1631 132.65 93.487 130.197 87.4931C128.359 90.5513 121.986 84.6798 121.373 79.2927C120.76 73.9057 137.556 76.7304 137.556 76.7304Z" fill="#F191A0"/>
<path d="M136.842 77.6136C135.985 81.5246 136.351 89.1106 136.716 89.9672C137.329 92.0464 131.936 94.3703 129.484 88.3764C127.646 91.4345 121.267 85.5643 120.659 80.1823C120.051 74.8003 136.842 77.6136 136.842 77.6136Z" fill="#98150E"/>
<path d="M125.67 33.1622C130.044 33.5887 145.068 40.858 141.059 54.9993C141.995 59.5701 149.678 79.4744 127.912 84.4855C117.348 81.8235 106.673 75.9672 106.358 73.3052C106.25 71.1794 125.67 33.1622 125.67 33.1622Z" fill="url(#paint42_linear_1960_59007)"/>
<path d="M126.148 83.9214C123.177 84.5951 113.38 90.8603 110.82 96.3886C110.887 96.3886 98.7578 81.1535 98.7578 81.1535C98.7578 81.1535 103.989 80.4848 105.343 74.8568C108.658 76.6458 123.717 84.2608 126.148 83.9214Z" fill="url(#paint43_linear_1960_59007)"/>
<path d="M101.694 80.027C103.981 79.2322 116.124 79.2536 119.141 87.6622C121.28 86.3501 125.42 84.2975 126.065 83.9884C123.875 83.5519 111.178 78.508 105.845 74.703C105.148 75.9886 103.349 79.275 101.694 80.027Z" fill="#98150E"/>
<path d="M124.452 28.7061C127.927 33.0397 129.88 42.3566 117.07 57.9576C114.682 61.8572 111.859 88.2929 117.504 96.9601C110.773 92.8435 105.562 76.5928 105.344 74.8593C105.997 74.6423 103.389 78.6441 103.389 78.6441C103.389 78.6441 82.5467 67.4852 81.8969 64.4511C81.6807 64.4511 81.8969 68.786 81.8969 68.786C81.8969 68.786 58.6606 45.6065 94.9221 26.7556C114.03 17.4387 148.596 28.2519 144.289 43.7873C141.467 37.7227 132.27 30.6552 124.452 28.7061Z" fill="#F191A0"/>
<path d="M95.1701 28.691C95.1701 28.691 91.251 25.0222 87.4482 27.8356C89.5317 25.0222 96.2737 22.576 97.0095 26.8566C98.6087 21.2299 105.221 21.4721 105.221 21.4721C105.221 21.4721 99.9501 24.2855 100.441 26.7317C100.195 26.8566 95.1701 28.691 95.1701 28.691Z" fill="#F191A0"/>
<path d="M105.407 75.1971C105.558 75.8745 105.95 77.2081 106.545 78.9037L107.479 68.9849C107.479 68.9849 103.947 62.9418 101.524 60.3215C99.1003 57.7011 87.4834 53.7687 87.4834 53.7687L87.6856 60.8211C87.6856 60.8211 84.4556 56.0863 83.6477 54.0715C82.7539 52.3759 76.0763 51.4713 74.5643 51.2859C74.3431 61.2526 81.8892 68.7869 81.8892 68.7869C81.8892 68.7869 81.673 64.452 81.8892 64.452C82.5416 67.4798 103.381 78.645 103.381 78.645C103.381 78.645 105.118 76.1534 105.407 75.1971Z" fill="url(#paint44_linear_1960_59007)"/>
<path d="M101.301 58.6589C99.095 59.5156 99.7068 66.7332 102.403 69.4229C100.32 73.2141 100.565 77.2512 100.565 77.2512L103.389 78.6503L105.486 75.4509C105.486 75.4509 104.365 67.8321 106.449 63.7962C104.488 59.8814 101.301 58.6589 101.301 58.6589Z" fill="#98150E"/>
<path d="M108.898 57.3133C106.201 53.767 95.0472 54.9895 105.22 67.5878C106.573 62.6953 107.917 58.17 108.898 57.3133Z" fill="url(#paint45_linear_1960_59007)"/>
<path d="M107.846 59.0462C106.504 57.8124 103.169 57.116 102.26 58.6677C104.03 58.5075 105.429 58.9895 105.482 59.4726C104.681 59.7886 103.95 60.2603 103.333 60.8604L105.803 65.5283C105.803 65.5283 106.934 60.9765 107.846 59.0462Z" fill="#98150E"/>
<path d="M110.05 55.4C108.28 56.7411 98.3395 70.3576 112.146 90.8915C109.734 83.2777 110.05 55.4 110.05 55.4Z" fill="#F191A0"/>
<path opacity="0.64" d="M116.8 56.6912C115.01 58.7589 112.703 69.3337 113.126 73.849C112.514 71.9225 112.368 67.8803 112.368 67.8803L106.245 67.035C106.245 67.035 108.317 58.9986 109.259 58.0587C109.495 57.9641 114.628 58.3401 114.628 58.3401L116.8 56.6912Z" fill="#F8C7D4"/>
<path d="M123.221 42.864C126.898 37.3848 124.688 33.2417 122.543 29.9313L121.554 30.7866L117.929 30.1293L118.917 38.3512C118.917 38.3512 123.974 38.4774 124.126 38.4219C124.299 38.9151 123.723 41.9178 123.221 42.864Z" fill="url(#paint46_linear_1960_59007)"/>
<path d="M123.22 42.8639C123.171 42.9381 123.122 43.0123 123.07 43.0852C123.131 43.0196 123.182 42.9449 123.22 42.8639Z" fill="url(#paint47_linear_1960_59007)"/>
<path d="M94.3304 29.0768C93.539 29.2736 91.233 31.576 92.0889 33.7447C92.3253 34.3427 92.8892 34.8612 93.6932 35.3141L96.8221 29.1474C95.4302 29.0692 94.4909 29.0414 94.3304 29.0768Z" fill="url(#paint48_linear_1960_59007)"/>
<path d="M109.511 30.0509L108.527 38.1062C112.599 38.3586 115.818 38.3485 115.818 38.3485L114.631 30.4559C114.631 30.4559 112.446 30.2805 109.511 30.0509Z" fill="url(#paint49_linear_1960_59007)"/>
<path d="M96.8477 36.5107C98.8034 37.0368 101.146 37.4127 103.52 37.6802L106.468 29.8204C103.926 29.6286 101.21 29.4293 98.9905 29.283L96.8477 36.5107Z" fill="url(#paint50_linear_1960_59007)"/>
<path d="M125.706 25.2572C131.045 26.9667 143.568 31.1766 144.557 40.1214C143.7 36.57 138.756 32.8205 138.756 32.8205L124.724 26.7648L125.706 25.2572Z" fill="url(#paint51_linear_1960_59007)"/>
<path d="M104.996 78.1991C104.996 78.1991 104.48 88.1758 107.752 92.4451C109.685 94.9683 110.822 96.3914 110.822 96.3914C110.822 96.3914 112.7 93.3194 113.319 92.8299C111.515 89.7705 108.474 86.5824 105.563 76.3231C102.651 66.0637 104.996 78.1991 104.996 78.1991Z" fill="#98150E"/>
<path d="M135.26 58.389C135.26 58.389 133.743 63.3887 136.061 64.7235C137.578 65.8274 137.82 65.8085 137.82 65.8085C137.82 65.8085 142.235 64.5784 142.441 62.0072C142.647 59.4361 141.615 57.2131 140.84 56.3704C140.118 56.272 135.26 58.389 135.26 58.389Z" fill="#F191A0"/>
<path d="M142.44 62.0077C142.44 62.0077 140.279 64.8551 139.04 65.3497C140.431 65.2008 142.646 64.0881 142.697 63.2441C142.594 63.0952 142.44 62.0077 142.44 62.0077Z" fill="#79170E"/>
<path d="M139.939 63.4911C141.385 63.4911 142.558 61.8451 142.558 59.8147C142.558 57.7844 141.385 56.1384 139.939 56.1384C138.492 56.1384 137.319 57.7844 137.319 59.8147C137.319 61.8451 138.492 63.4911 139.939 63.4911Z" fill="#79170E"/>
<path d="M142.08 64.2152C142.53 63.3548 143.618 63.279 143.881 63.3547C143.806 62.8299 142.928 61.7739 142.479 61.7903C141.957 62.4804 142.08 64.2152 142.08 64.2152Z" fill="#79170E"/>
<path d="M127.077 33.9392C129.909 43.2751 127.249 51.719 125.074 53.8902C122.898 56.0614 114.96 75.2378 119.066 81.5105C119.066 81.9924 114.205 79.4062 114.205 79.4062C114.205 79.4062 114.498 63.2034 116.822 58.427C119.144 54.984 127.83 45.5611 127.077 33.9392Z" fill="#98150E"/>
<path d="M122.397 50.6149C121.457 52.805 128.054 50.63 129.296 51.146C130.537 51.662 132.102 52.2399 132.62 51.001C133.137 49.7621 131.896 48.3175 131.276 47.3877C130.655 46.4579 127.855 44.0609 124.647 46.4352C124.067 47.6438 122.929 49.7457 122.397 50.6149Z" fill="#79170E"/>
<path d="M127.162 56.246L126.803 60.813C126.803 60.813 129.091 61.3946 129.316 61.5699C129.27 60.8584 127.434 56.381 127.162 56.246Z" fill="#BE1622"/>
<path d="M134.942 70.0794C136.3 69.4625 138.195 67.5802 137.71 67.0125C138.892 66.3224 139.571 66.3224 139.571 66.3224C139.571 66.3224 141.73 69.5862 134.942 70.0794Z" fill="#98150E"/>
<path d="M131.055 68.2926C132.783 67.6151 137.287 66.8152 137.596 67.5533C137.225 68.4768 135.497 69.8935 134.941 70.0765C134.385 70.2594 131.672 70.0172 131.055 68.2926Z" fill="#BE1622"/>
<path d="M132.838 69.1801C133.461 69.5283 135.194 68.6313 134.734 68.2275C134.176 68.3751 132.653 68.8319 132.838 69.1801Z" fill="url(#paint52_linear_1960_59007)"/>
<path d="M132.419 68.7823C133.571 68.2083 134.377 68.2461 134.684 68.2083C134.377 68.4379 133.648 68.5867 133.648 68.7823C133.648 68.9778 132.841 69.5506 132.419 68.7823Z" fill="#79170E"/>
<path d="M129.986 67.1727C130.997 66.5684 132.61 66.3665 132.914 66.2656C133.217 66.1647 131.397 62.5388 131.5 60.9277C130.995 61.532 130.794 63.7474 130.794 63.7474C130.794 63.7474 128.265 65.2613 127.564 66.3665C126.862 67.4717 129.986 67.1727 129.986 67.1727Z" fill="url(#paint53_linear_1960_59007)"/>
<path d="M135 66.6391C135.466 66.6391 135.844 66.5053 135.844 66.3401C135.844 66.175 135.466 66.0411 135 66.0411C134.535 66.0411 134.157 66.175 134.157 66.3401C134.157 66.5053 134.535 66.6391 135 66.6391Z" fill="#F191A0"/>
<path d="M121.588 66.3122C122.054 66.3122 122.432 66.1784 122.432 66.0132C122.432 65.8481 122.054 65.7142 121.588 65.7142C121.123 65.7142 120.745 65.8481 120.745 66.0132C120.745 66.1784 121.123 66.3122 121.588 66.3122Z" fill="#F191A0"/>
<path d="M135.712 58.5782C135.218 60.511 137.977 65.7391 140.316 64.4144C139.355 65.459 137.824 65.8779 137.824 65.8779C137.824 65.8779 135.928 65.0704 135.422 63.9337C134.999 63.2222 134.208 61.789 135.17 58.6829C135.338 58.6011 135.525 58.565 135.712 58.5782Z" fill="url(#paint54_linear_1960_59007)"/>
<path d="M131.612 66.9591C131.761 66.9591 131.881 66.8591 131.881 66.7358C131.881 66.6124 131.761 66.5125 131.612 66.5125C131.463 66.5125 131.343 66.6124 131.343 66.7358C131.343 66.8591 131.463 66.9591 131.612 66.9591Z" fill="#F191A0"/>
<path d="M123.617 59.2205C123.781 59.2205 123.915 58.8466 123.915 58.3854C123.915 57.9241 123.781 57.5502 123.617 57.5502C123.452 57.5502 123.318 57.9241 123.318 58.3854C123.318 58.8466 123.452 59.2205 123.617 59.2205Z" fill="#F191A0"/>
<path d="M135.429 63.934C135.429 63.934 136.588 66.5127 137.704 67.0123C138.43 67.2003 139.565 66.3222 139.565 66.3222L139.034 65.3495C139.034 65.3495 137.072 66.0408 135.429 63.934Z" fill="#98150E"/>
<path d="M127.16 56.2456C126.384 55.5202 123.222 56.8638 122.817 57.535C124.298 54.6472 125.509 51.8944 126.384 51.2901C127.73 50.8863 130.221 50.9545 131.567 51.8275C132.913 52.7674 133.922 60.4228 130.02 62.102C130.018 62.237 127.16 56.2456 127.16 56.2456Z" fill="url(#paint55_linear_1960_59007)"/>
<path d="M120.836 61.7915L130.095 63.7558L129.204 62.3289L120.836 61.7915Z" fill="url(#paint56_linear_1960_59007)"/>
<path d="M119.454 61.9698C121.517 61.8348 129.821 62.1931 130.176 62.7747C130.042 61.5648 126.946 59.1476 119.454 61.9698Z" fill="#79170E"/>
<path d="M135.259 58.389C134.345 60.6599 141.42 53.5634 143.836 58.1367C142.982 55.1883 137.881 51.8577 135.259 58.389Z" fill="#79170E"/>
<path d="M140.719 57.0491L143.836 58.1454C143.836 58.1454 143.007 56.1761 140.965 56.2202C138.924 56.2644 140.719 57.0491 140.719 57.0491Z" fill="#79170E"/>
<path d="M137.108 61.1734C137.861 61.1734 138.471 60.7481 138.471 60.2234C138.471 59.6988 137.861 59.2734 137.108 59.2734C136.355 59.2734 135.745 59.6988 135.745 60.2234C135.745 60.7481 136.355 61.1734 137.108 61.1734Z" fill="#F8C7D4"/>
<path d="M139.04 65.3495C140.178 65.5362 143.289 65.6245 142.883 69.7777C143.117 67.8853 143.214 64.1106 142.809 63.5038C141.494 63.7763 139.568 65.2398 139.04 65.3495Z" fill="#A91A17"/>
<path d="M135.664 72.7954C136.261 74.0343 134.032 74.7446 133.572 74.9515L133.228 75.6391H130.492L131.734 73.1625L135.664 72.7954Z" fill="#98150E"/>
<path d="M125.42 74.9741C126.675 74.6852 129.865 75.3602 130.792 77.7131C129.497 78.0411 126.714 77.4872 125.42 74.9741Z" fill="url(#paint57_linear_1960_59007)"/>
<path d="M124.338 73.8169C126.018 75.9957 130.659 78.1555 131.585 77.8477C132.51 77.5399 132.217 79.5446 131.079 80.1426C129.941 80.7406 126.542 81.6565 124.744 78.7195C122.946 75.7825 124.338 73.8169 124.338 73.8169Z" fill="#BE1622"/>
<path d="M123.863 75.2263C123.863 75.2263 127.104 81.4549 131.56 79.7681C128.93 81.8926 123.388 81.494 123.863 75.2263Z" fill="#79170E"/>
<path d="M131.768 75.2566C131.768 75.2566 129.925 75.8874 130.327 76.8967C129.505 75.8092 127.086 74.5741 125.421 74.974C124.978 74.7217 123.687 73.8007 124.677 73.1321C126.118 73.1661 130.83 74.0859 130.83 74.0859L131.768 75.2566Z" fill="#79170E"/>
<path d="M133.092 74.2199L132.991 75.3074L131.348 75.2633L129.839 75.0703L126.747 73.3545C126.747 73.3545 129.865 72.4259 133.092 74.2199Z" fill="#F8C7D4"/>
<path d="M126.994 77.7407C127.215 77.7407 127.394 77.5328 127.394 77.2764C127.394 77.02 127.215 76.8121 126.994 76.8121C126.774 76.8121 126.595 77.02 126.595 77.2764C126.595 77.5328 126.774 77.7407 126.994 77.7407Z" fill="url(#paint58_linear_1960_59007)"/>
<path d="M126.065 77.1054C126.285 77.1054 126.464 76.8976 126.464 76.6411C126.464 76.3847 126.285 76.1769 126.065 76.1769C125.844 76.1769 125.665 76.3847 125.665 76.6411C125.665 76.8976 125.844 77.1054 126.065 77.1054Z" fill="#F8C7D4"/>
<path d="M127.991 78.3353C128.212 78.3353 128.391 78.1274 128.391 77.871C128.391 77.6146 128.212 77.4067 127.991 77.4067C127.771 77.4067 127.592 77.6146 127.592 77.871C127.592 78.1274 127.771 78.3353 127.991 78.3353Z" fill="url(#paint59_linear_1960_59007)"/>
<path d="M133.478 74.2069C132.995 74.1867 130.85 73.8208 130.348 73.4348C129.846 73.0487 125.014 73.8398 124.434 73.127C123.928 72.394 129.459 70.9091 131.333 71.0239C133.206 71.1387 136.377 71.796 135.875 73.0689C135.373 74.3419 133.478 74.2069 133.478 74.2069Z" fill="#BE1622"/>
<path d="M131.559 75.5345C131.321 75.807 130.939 77.2439 131.195 77.4269C131.068 77.3903 130.326 76.8983 130.326 76.8983C130.229 76.7002 130.138 75.9003 131.067 75.5181C131.03 75.5534 131.559 75.5345 131.559 75.5345Z" fill="#BE1622"/>
<path d="M137.319 39.7655C139.533 42.9107 142.969 50.1195 140.999 55.123C142.718 53.2281 143.154 45.849 137.319 39.7655Z" fill="#F191A0"/>
<path d="M136.549 51.6244C138.411 51.0049 141.617 50.798 141.927 51.83C142.651 49.9729 142.651 48.8375 141.513 47.5986C140.376 46.3597 136.239 46.771 136.549 51.6244Z" fill="#79170E"/>
<path d="M139.623 47.0132C141.244 46.8643 143.459 48.1285 141.926 51.8275C142.503 50.3539 141.958 47.861 139.623 47.0132Z" fill="#F191A0"/>
<path d="M141.751 57.283C142.651 57.9138 142.718 61.1132 142.54 61.8853C142.563 61.8853 142.064 62.482 142.064 62.482C142.064 62.482 142.604 59.8503 141.751 57.283Z" fill="#F191A0"/>
<path d="M142.896 63.4912C143.351 66.8193 144.079 72.928 139.229 78.5043C141.801 75.4638 143.661 69.8207 142.462 63.5896C142.603 63.5434 142.748 63.5105 142.896 63.4912Z" fill="#F191A0"/>
<path d="M134.697 61.9825C135.222 63.7034 136.183 65.862 137.712 67.0126C135.896 66.6442 135.071 64.0516 134.697 61.9825Z" fill="#F191A0"/>
<path d="M98.7564 81.1559C84.3329 86.8508 47.4292 97.9012 30.0234 165.078C35.2952 166.656 45.4899 167.533 47.4229 166.831C49.7073 164.376 50.7629 162.271 50.7629 162.271L54.4532 167.007C54.4532 167.007 79.2318 160.166 82.9259 160.166C83.2773 157.012 83.453 150.52 83.453 150.52C83.453 150.52 113.333 111.231 111.751 99.299C107.181 90.8854 102.986 80.8935 98.7564 81.1559Z" fill="url(#paint60_linear_1960_59007)"/>
<path d="M94.7021 81.5885L103.664 103.514L111.755 99.304C111.755 99.304 104.1 73.7868 94.7021 81.5885Z" fill="#BE1622"/>
<path d="M91.6367 83.943C93.4066 84.1739 98.0299 91.4395 99.9565 97.0511C101.883 102.663 101.035 108.89 101.347 108.89C101.659 108.89 111.757 99.3018 111.757 99.3018L104.968 102.275C104.968 102.275 103.89 102.891 103.042 100.888C102.195 98.8842 95.1083 82.5603 95.1083 82.5603L91.6367 83.943Z" fill="#98150E"/>
<path d="M104.847 100.51C105.251 100.51 105.579 100.183 105.579 99.7799C105.579 99.3765 105.251 99.0494 104.847 99.0494C104.443 99.0494 104.115 99.3765 104.115 99.7799C104.115 100.183 104.443 100.51 104.847 100.51Z" fill="url(#paint61_linear_1960_59007)"/>
<path d="M112.304 92.5219C114.122 94.9012 116.63 98.7744 116.404 99.3345C116.238 99.7471 114.99 101.899 114.323 103.041C114.283 103.11 114.224 103.167 114.154 103.206C114.084 103.244 114.005 103.263 113.925 103.26C113.845 103.257 113.767 103.232 113.7 103.188C113.633 103.144 113.58 103.083 113.545 103.011L111.717 101.692L111.755 99.2954L110.141 94.7284L112.304 92.5219Z" fill="#98150E"/>
<path d="M118.297 107.64L128.993 110.778C128.993 110.778 148.708 77.4999 149.338 76.4528C149.967 75.4056 145.981 69.9643 146.401 68.2902C146.821 66.616 149.966 58.4497 149.966 58.4497L170.521 56.7755C170.521 56.7755 164.649 75.8257 159.405 77.0772C156.888 78.9608 140.529 123.961 137.592 125.216C136.124 125.007 112.214 124.585 112.214 124.585L118.297 107.64Z" fill="url(#paint62_linear_1960_59007)"/>
<path d="M64.6248 115.724C68.5717 122.497 76.1481 129.429 76.1481 129.429C76.1481 129.429 71.5704 132.736 70.7815 135.257C73.6222 140.455 78.9888 171.646 78.9888 173.693C83.5666 179.364 89.2492 188.658 85.7764 196.377C85.6197 195.904 75.6741 183.775 74.2543 180.309C72.8346 176.843 70.6235 173.22 70.6235 173.22C70.6235 173.22 55.3113 140.455 53.8916 130.531C58.6261 123.442 62.5793 117.457 64.6248 115.724Z" fill="url(#paint63_linear_1960_59007)"/>
<path d="M98.0011 110.405L85.096 125.706L86.1187 126.344L81.3905 132.464L76.1478 129.429C76.1478 129.429 70.5208 133.459 70.7812 135.257C71.8078 138.202 76.7901 159.924 77.0062 161.256C77.1327 161.13 82.9278 160.166 82.9278 160.166C82.9278 160.166 83.1807 144.196 81.5182 140.498C79.8558 136.8 80.7521 136.034 80.7521 136.034L83.9443 138.202L88.0327 130.551L86.3716 129.021L98.0011 110.405Z" fill="#98150E"/>
<path d="M75.5489 182.782C76.0937 183.17 77.2619 184.413 77.8839 182.393C77.2619 185.733 82.9938 190.826 83.382 188.962C83.9268 191.836 87.1468 193.035 86.6803 189.928C87.1468 192.414 86.8168 195.836 85.6967 196.378C85.6247 196.299 75.5261 182.705 75.5489 182.782Z" fill="url(#paint64_linear_1960_59007)"/>
<path d="M79.7898 180.573C80.5294 182.359 80.0515 188.054 79.7178 189.578C79.9152 189.786 80.0852 190.019 80.2235 190.27C80.2235 190.27 81.9213 183.933 79.7898 180.573Z" fill="#98150E"/>
<path d="M82.9519 183.796C83.6915 185.583 83.2136 191.278 82.8799 192.803C83.0775 193.01 83.2474 193.242 83.3856 193.493C83.3856 193.493 85.0809 187.156 82.9519 183.796Z" fill="#98150E"/>
<path d="M77.7701 181.105C77.7941 182.821 77.8965 184.156 77.3643 185.204C77.5029 185.403 77.6296 185.61 77.7435 185.824C77.7435 185.824 78.4388 182.679 77.7701 181.105Z" fill="#98150E"/>
<path d="M74.2088 234.297L83.0381 232.294L81.5336 227.791C81.5336 227.791 89.6095 219.824 96.4514 224.105C96.7523 224.705 93.4173 216.386 93.4173 216.386L74.0191 224.64L76.8662 228.677H73.832C73.832 228.677 74.3605 231.917 74.2088 234.297Z" fill="#7B170F"/>
<path d="M74.9378 237.315C75.3651 237.315 75.7115 236.864 75.7115 236.308C75.7115 235.752 75.3651 235.302 74.9378 235.302C74.5105 235.302 74.1641 235.752 74.1641 236.308C74.1641 236.864 74.5105 237.315 74.9378 237.315Z" fill="#F191A0"/>
<path d="M62.975 277.56C62.975 277.56 81.162 273.38 81.9383 273.819C82.7145 274.258 85.0988 281.741 85.0988 281.741C85.0988 281.741 88.765 272.609 89.2088 272.609C89.6525 272.609 92.0748 275.14 91.7448 275.91C91.4148 276.679 88.7688 284.159 88.7688 284.159C88.7688 284.159 88.6576 292.079 91.4136 293.621C94.1696 295.164 110.593 306.711 110.262 307.261C109.931 307.811 79.8397 313.2 62.8663 304.181C60.8815 296.485 63.0863 282.402 63.1962 281.962C63.3062 281.521 62.975 277.56 62.975 277.56Z" fill="url(#paint65_linear_1960_59007)"/>
<path d="M82.3074 274.271L80.1582 281.416L81.559 287.326L88.8168 286.499C88.8168 286.499 88.1164 285.869 88.9432 283.704C89.77 281.539 91.9357 275.503 91.9357 275.503C91.9357 275.503 90.363 272.006 88.8813 272.666C88.6398 273.015 85.4325 280.769 85.4325 280.769L82.3074 274.271Z" fill="url(#paint66_linear_1960_59007)"/>
<path d="M62.9746 277.56C62.9746 277.56 81.4322 273.384 81.9379 273.819C73.6914 276.442 62.9746 277.56 62.9746 277.56Z" fill="#F191A0"/>
<path d="M88.8117 286.5C91.5487 288.85 92.1858 294.504 92.0582 294.759C91.9305 295.014 76.7144 303.969 76.0785 304.221C75.4426 304.474 69.2656 304.412 68.2479 303.522C67.2302 302.633 69.2024 297.677 70.2845 296.725C71.3667 295.772 88.8117 286.5 88.8117 286.5Z" fill="#7B170F"/>
<path d="M87.7358 284.216C90.4741 286.567 91.11 292.221 90.9836 292.476C90.8572 292.731 75.6398 301.686 75.0039 301.938C74.368 302.19 68.191 302.129 67.1721 301.239C66.1531 300.35 68.1278 295.394 69.21 294.442C70.2922 293.489 87.7358 284.216 87.7358 284.216Z" fill="#F191A0"/>
<path d="M88.1773 284.658C90.9144 287.008 91.5515 292.662 91.4239 292.916C91.2962 293.17 76.0813 302.126 75.4442 302.378C74.807 302.63 68.6326 302.569 67.6136 301.679C66.5946 300.79 68.5681 295.834 69.6515 294.88C70.7349 293.927 88.1773 284.658 88.1773 284.658Z" fill="url(#paint67_linear_1960_59007)"/>
<path d="M73.1512 299.969C74.0303 299.969 74.7429 299.258 74.7429 298.38C74.7429 297.503 74.0303 296.792 73.1512 296.792C72.2722 296.792 71.5596 297.503 71.5596 298.38C71.5596 299.258 72.2722 299.969 73.1512 299.969Z" fill="#7B170F"/>
<path d="M93.8555 268.141L99.9035 268.598L95.4307 275.394L93.8555 268.141Z" fill="#7B170F"/>
<path d="M97.1777 297.584C102.697 297.999 123.853 297.092 124.836 295.675C124.631 295.867 124.624 296.788 124.659 297.581C124.675 297.93 124.569 298.274 124.358 298.553C124.147 298.832 123.846 299.029 123.505 299.11C119.496 300.07 106.878 302.857 102.175 301.119C102.384 301.327 97.1777 297.584 97.1777 297.584Z" fill="url(#paint68_linear_1960_59007)"/>
<path d="M74.0163 224.639L57.8115 178.99L73.1553 225.328L76.8633 228.675L74.0163 224.639Z" fill="url(#paint69_linear_1960_59007)"/>
<path d="M47.6405 225.668C47.6405 225.668 46.3017 182.415 49.8339 178.687C48.6228 189.365 49.3055 226.513 50.0754 228.791L47.6405 225.668Z" fill="url(#paint70_linear_1960_59007)"/>
<path d="M146.203 67.9321L149.078 60.7233L152.815 60.0774L157.703 66.7488C157.703 66.7488 156.733 74.5316 154.936 75.6065C154.936 74.9971 156.122 68.327 154.253 68.1113C152.385 67.8956 147.174 69.3313 147.209 70.9448C146.382 69.5457 145.807 68.8998 146.31 67.8955L146.203 67.9321Z" fill="#98150E"/>
<path d="M156.697 69.7245C156.95 70.6568 161.44 69.6173 162.16 68.6484C162.879 67.6794 167.155 65.242 166.004 68.2901C166.041 68.362 169.203 61.8344 169.023 60.7583C168.844 59.6821 164.136 58.5707 164.136 58.5707L161.908 64.3816L156.625 65.0982L156.697 69.7245Z" fill="#98150E"/>
<path d="M253.913 150.952H184.06V154.981H253.913V150.952Z" fill="#79170E"/>
<path d="M236.073 91.7026L317.131 285.525C317.131 285.525 312.791 287.544 312.589 287.237C312.387 286.931 229.223 93.3187 229.223 93.3187C229.223 93.3187 234.559 89.3863 236.073 91.7026Z" fill="url(#paint71_linear_1960_59007)"/>
<path d="M259.022 146.762C258.147 148.172 253.611 149.149 252.211 146.888C250.68 146.888 250.174 148.311 250.946 150.326C251.381 151.472 252.561 153.759 253.496 155.517C254.317 157.059 255.013 158.381 257.888 158.014C260.763 157.647 264.744 157.446 264.95 154.86C264.731 152.746 262.216 146.399 262.216 146.399C262.216 146.399 259.949 145.011 258.198 144.906C258.405 145.109 259.022 146.762 259.022 146.762Z" fill="#79170E"/>
<path d="M276.106 187.542C275.231 188.952 271.073 189.722 269.673 187.466C268.141 187.466 267.131 189.215 267.903 191.23C268.339 192.376 269.518 194.662 270.453 196.421C271.274 197.963 271.97 199.285 274.846 198.918C277.722 198.551 281.702 198.35 281.907 195.764C281.688 193.649 279.173 187.302 279.173 187.302C279.173 187.302 277.124 185.763 275.38 185.662C275.495 186.056 276.106 187.542 276.106 187.542Z" fill="#79170E"/>
<path d="M316.355 294.263L318.763 293.394C320.218 292.869 320.971 291.266 320.445 289.814L319.518 287.257C318.992 285.805 317.385 285.054 315.93 285.579L313.523 286.448C312.068 286.973 311.315 288.576 311.841 290.028L312.768 292.585C313.294 294.037 314.9 294.789 316.355 294.263Z" fill="#79170E"/>
<path d="M201.353 93.6659L120.295 287.482C120.295 287.482 124.635 289.501 124.837 289.194C125.04 288.888 208.204 95.2757 208.204 95.2757C208.204 95.2757 202.867 91.3496 201.353 93.6659Z" fill="url(#paint72_linear_1960_59007)"/>
<path d="M204.471 49.834L175.04 68.459L175.938 70.0701L206.085 51.7138L204.471 49.834Z" fill="#79170E"/>
<path d="M167.273 44.2855C167.273 44.2855 169.177 58.0875 170.827 60.1136C170.827 60.2398 279.827 29.4692 279.827 29.4692C279.827 29.4692 273.229 21.6183 275.386 12.3745C275.513 12.6281 167.273 44.2855 167.273 44.2855Z" fill="url(#paint73_linear_1960_59007)"/>
<path d="M171.589 49.4795L274.021 20.0538C274.021 20.0538 274.697 25.8295 275.965 26.4628C275.712 26.3366 173.365 54.1651 173.365 54.1651C172.426 52.7571 171.819 51.1551 171.589 49.4795Z" fill="#F191A0"/>
<path d="M274.276 13.4973C273.653 17.9735 274.936 26.3745 278.459 29.0226C274.864 26.7896 271.892 22.1393 274.276 13.4973Z" fill="#F191A0"/>
<path d="M273.729 13.9368C273.105 18.4129 274.389 26.8152 277.912 29.4633C274.315 27.229 271.343 22.5788 273.729 13.9368Z" fill="url(#paint74_linear_1960_59007)"/>
<path d="M260.833 17.3298C260.21 21.8073 261.493 30.2083 265.016 32.8564C261.42 30.6221 258.448 25.9718 260.833 17.3298Z" fill="#F191A0"/>
<path d="M260.282 17.7701C259.658 22.2463 260.942 30.6473 264.464 33.2954C260.869 31.0599 257.899 26.4121 260.282 17.7701Z" fill="url(#paint75_linear_1960_59007)"/>
<path d="M247.388 21.1642C246.763 25.6404 248.048 34.0426 251.571 36.6907C247.974 34.4564 245.005 29.8062 247.388 21.1642Z" fill="#F191A0"/>
<path d="M246.836 21.5983C246.213 26.0744 247.498 34.4767 251.02 37.1248C247.424 34.8956 244.452 30.2453 246.836 21.5983Z" fill="url(#paint76_linear_1960_59007)"/>
<path d="M281.677 7.09949C281.551 11.4255 275.384 12.3743 275.384 12.3743C275.384 12.3743 272.896 23.2884 279.825 29.469C280.067 29.2167 284.154 27.863 286.012 30.9539C282.044 25.3915 279.323 17.2339 281.677 7.09949Z" fill="#79170E"/>
<path d="M281.68 7.09943C283.909 5.36977 289.359 2.15647 291.34 4.38068C293.074 2.27885 303.223 -0.563556 305.954 1.90919C308.685 4.38193 314.872 17.6048 310.289 24.2787C306.697 26.6278 298.153 28.7284 297.409 27.6169C296.914 31.4471 287.5 32.4362 286.015 30.9538C284.529 29.4715 277.469 16.863 281.68 7.09943Z" fill="url(#paint77_linear_1960_59007)"/>
<path d="M311.043 23.5687C312.578 23.1707 312.49 17.7333 310.846 11.424C309.203 5.11471 306.627 0.322709 305.092 0.720769C303.558 1.11883 303.646 6.55622 305.289 12.8655C306.932 19.1748 309.509 23.9668 311.043 23.5687Z" fill="#79170E"/>
<path d="M305.212 5.74084C308.556 7.59414 311.034 15.3807 309.299 20.0777C306.327 16.6171 305.191 7.89693 305.212 5.74084Z" fill="#F191A0"/>
<path d="M307.155 11.2322C307.735 11.1271 308.08 10.3489 307.925 9.49401C307.769 8.63909 307.173 8.03122 306.592 8.13629C306.012 8.24136 305.667 9.01958 305.822 9.8745C305.978 10.7294 306.574 11.3373 307.155 11.2322Z" fill="#FAD8E3"/>
<path d="M291.339 4.38151C290.802 9.41153 291.032 20.0809 297.407 27.6177C297.316 28.1165 297.121 28.5907 296.835 29.0096C296.549 29.4286 296.178 29.783 295.746 30.0501C295.746 30.0501 287.486 18.89 289.058 3.74692C289.903 3.24228 291.203 3.33312 291.339 4.38151Z" fill="url(#paint78_linear_1960_59007)"/>
<path d="M291.328 11.3525C291.734 15.0402 293.429 24.2095 297.41 27.6171C297.279 28.1755 297.06 28.7098 296.763 29.2004C296.763 29.2004 290.248 21.1022 291.328 11.3525Z" fill="#79170E"/>
<path d="M281.017 17.4273L288.728 15.5172L290.79 23.2571L283.426 25.1685C283.426 25.1685 281.999 22.7184 281.017 17.4273Z" fill="#F191A0"/>
<path d="M288.43 6.20679C287.807 10.683 290.688 26.5867 295.106 28.9876C290.836 27.1772 286.044 14.8513 288.43 6.20679Z" fill="#F191A0"/>
<path d="M293.732 12.9697L301.444 11.0583L303.505 18.7995L296.138 20.7147C296.138 20.7147 294.715 18.2608 293.732 12.9697Z" fill="#F191A0"/>
<path d="M301.146 1.75073C300.521 6.2269 303.404 22.1307 307.822 24.5315C303.55 22.7186 298.76 10.3927 301.146 1.75073Z" fill="#F191A0"/>
<path d="M293.634 3.61292C293.011 8.08908 295.892 23.9929 300.311 26.3937C296.04 24.5808 291.25 12.2549 293.634 3.61292Z" fill="#F191A0"/>
<path d="M194.003 46.6761C194.003 46.6761 198.243 51.9307 194.382 53.5128C194.382 53.3727 204.914 50.6287 204.914 50.6287L200.347 46.304L194.003 46.6761Z" fill="#98150E"/>
<path d="M205.4 44.0646L219.792 58.0444C219.792 58.0444 214.58 64.3133 212.975 62.3124C212.575 62.1787 201.079 49.2409 201.079 49.2409L205.4 44.0646Z" fill="url(#paint79_linear_1960_59007)"/>
<path d="M175.31 71.502C176.747 71.502 177.912 70.5 177.912 69.264C177.912 68.0279 176.747 67.0259 175.31 67.0259C173.873 67.0259 172.708 68.0279 172.708 69.264C172.708 70.5 173.873 71.502 175.31 71.502Z" fill="#79170E"/>
<path d="M213.22 63.1512C213.22 63.1512 218.901 59.3336 219.095 58.4833C218.862 60.1044 216.002 62.6504 213.22 63.1512Z" fill="url(#paint80_linear_1960_59007)"/>
<path d="M167.273 44.2853C167.273 44.2853 169.478 56.2251 172.228 60.0718C172.734 63.169 166.233 62.1648 165.185 60.3708C164.137 58.5768 163.541 60.3708 163.386 61.2678C163.23 62.1648 160.089 49.4541 160.089 49.4541C160.089 49.4541 162.491 46.1639 162.937 44.5187C163.383 42.8736 165.917 41.9577 167.273 44.2853Z" fill="#79170E"/>
<path d="M160.09 49.4545L146.902 52.4445C146.902 52.4445 144.055 57.829 147.501 61.118C147.501 60.9691 152.447 60.221 152.447 60.221C152.447 60.221 156.343 67.1005 158.291 66.9504C160.239 66.8002 163.237 65.1564 163.237 65.1564L164.285 59.7731C164.285 59.7731 163.687 50.5003 160.09 49.4545Z" fill="#79170E"/>
<path d="M147.866 53.138C147.866 53.138 147.042 58.0747 148.69 59.8573C149.034 59.1723 149.034 57.5259 149.034 57.5259L154.187 56.292L159.34 63.7658L161.058 63.2864L157.486 56.0864L162.501 54.4463L161.127 50.8116L147.866 53.138Z" fill="#98150E"/>
<path d="M164.632 44.3574L161.746 49.2941L163.258 54.1626L168.343 56.1509L164.632 44.3574Z" fill="#98150E"/>
<path d="M204.92 43.7343L212.858 51.372C209.52 50.4788 205.285 50.4788 207.402 56.2481C207.443 56.2481 200.114 48.406 200.114 48.406L204.92 43.7343Z" fill="#98150E"/>
<path d="M198.77 50.6806C202.432 50.6806 205.4 47.7185 205.4 44.0647C205.4 40.4109 202.432 37.4489 198.77 37.4489C195.109 37.4489 192.141 40.4109 192.141 44.0647C192.141 47.7185 195.109 50.6806 198.77 50.6806Z" fill="#79170E"/>
<path d="M198.77 47.5078C200.676 47.5078 202.22 45.9663 202.22 44.0649C202.22 42.1634 200.676 40.6219 198.77 40.6219C196.865 40.6219 195.32 42.1634 195.32 44.0649C195.32 45.9663 196.865 47.5078 198.77 47.5078Z" fill="url(#paint81_linear_1960_59007)"/>
<path d="M197.832 42.4913C198.377 42.4913 198.819 42.2106 198.819 41.8643C198.819 41.518 198.377 41.2373 197.832 41.2373C197.287 41.2373 196.845 41.518 196.845 41.8643C196.845 42.2106 197.287 42.4913 197.832 42.4913Z" fill="#F191A0"/>
<path d="M178.406 148.725C179.281 150.135 183.819 151.112 185.218 148.851C186.749 148.851 187.255 150.274 186.482 152.289C186.047 153.435 184.868 155.722 183.932 157.481C183.112 159.022 182.415 160.343 179.54 159.977C176.666 159.611 172.685 159.41 172.479 156.823C172.697 154.709 175.214 148.362 175.214 148.362C175.214 148.362 177.48 146.974 179.231 146.869C179.015 147.074 178.406 148.725 178.406 148.725Z" fill="#79170E"/>
<path d="M175.578 153.704L170.732 166.194C170.732 166.194 178 160.012 175.578 171.432C175.981 171.432 181.635 157.464 181.635 157.464L175.578 153.704Z" fill="#79170E"/>
<path d="M161.2 189.676C162.075 191.087 166.157 192.358 167.879 189.136C169.411 189.136 170.295 191.177 169.522 193.192C169.086 194.339 167.908 196.625 166.972 198.384C166.152 199.925 165.455 201.248 162.579 200.881C159.703 200.513 155.723 200.313 155.519 197.727C155.737 195.612 158.253 189.265 158.253 189.265C158.253 189.265 160.29 187.751 162.046 187.653L161.2 189.676Z" fill="#79170E"/>
<path d="M158.621 194.603L153.776 207.093C153.776 207.093 160.573 200.814 158.151 212.23C158.554 212.23 164.678 198.362 164.678 198.362L158.621 194.603Z" fill="#79170E"/>
<path d="M262.657 153.704L267.502 166.194C267.502 166.194 260.234 160.012 262.657 171.432C262.253 171.432 256.601 157.464 256.601 157.464L262.657 153.704Z" fill="#79170E"/>
<path d="M279.613 194.603L284.459 207.093C284.459 207.093 277.662 200.814 280.085 212.23C279.68 212.23 273.557 198.362 273.557 198.362L279.613 194.603Z" fill="#79170E"/>
<path d="M179.752 155.921L215.891 163.979L215.284 158.54L182.376 152.898L179.752 155.921Z" fill="#98150E"/>
<path d="M190.498 154.299C190.498 154.299 187.41 156.354 191.41 158.528C191.449 158.448 179.055 155.878 179.055 155.878L181.787 152.678L190.498 154.299Z" fill="#79170E"/>
<path d="M123.85 287.942L121.441 287.074C119.985 286.55 118.379 287.303 117.853 288.756L116.928 291.315C116.403 292.768 117.157 294.37 118.614 294.895L121.023 295.762C122.479 296.287 124.085 295.534 124.61 294.081L125.536 291.522C126.061 290.069 125.306 288.466 123.85 287.942Z" fill="#79170E"/>
<path d="M214.485 92.207L219.313 323.666C219.313 323.666 222.89 328.128 224.857 323.488C224.857 323.845 221.281 92.0292 221.281 92.0292L214.485 92.207Z" fill="url(#paint82_linear_1960_59007)"/>
<path d="M223.208 199.791H215.265C213.895 199.791 212.784 200.899 212.784 202.266V208.977C212.784 210.344 213.895 211.452 215.265 211.452H223.208C224.578 211.452 225.688 210.344 225.688 208.977V202.266C225.688 200.899 224.578 199.791 223.208 199.791Z" fill="#79170E"/>
<path d="M225.713 315.912H218.273C216.937 315.912 215.854 316.994 215.854 318.327V325.159C215.854 326.492 216.937 327.573 218.273 327.573H225.713C227.05 327.573 228.133 326.492 228.133 325.159V318.327C228.133 316.994 227.05 315.912 225.713 315.912Z" fill="#79170E"/>
<path d="M215.888 163.98L215.956 176.538C215.956 176.538 220.666 169.957 222.685 176.27C222.819 175.867 222.147 163.375 222.147 163.375L215.888 163.98Z" fill="#79170E"/>
<path d="M216.821 208.014L217.299 226.772C217.299 226.772 222.034 210.643 223.514 227.835C223.379 227.568 223.087 205.55 223.087 205.55L216.821 208.014Z" fill="#79170E"/>
<path d="M187.019 153.771L212.996 158.136C212.996 158.136 195.767 153.1 187.019 153.771Z" fill="url(#paint83_linear_1960_59007)"/>
<path d="M258.665 155.921L222.526 163.979L223.132 158.54L256.041 152.898L258.665 155.921Z" fill="#98150E"/>
<path d="M247.92 154.298C247.92 154.298 251.009 156.354 247.009 158.527C246.97 158.448 259.364 155.878 259.364 155.878L256.637 152.679L247.92 154.298Z" fill="#79170E"/>
<path d="M251.397 153.771L225.42 158.136C225.42 158.136 242.647 153.1 251.397 153.771Z" fill="url(#paint84_linear_1960_59007)"/>
<path d="M222.598 149.819H215.874C214.167 149.819 212.784 151.199 212.784 152.902V164.826C212.784 166.529 214.167 167.909 215.874 167.909H222.598C224.305 167.909 225.688 166.529 225.688 164.826V152.902C225.688 151.199 224.305 149.819 222.598 149.819Z" fill="#79170E"/>
<path d="M232.166 76.002C230.82 72.332 226.098 75.1959 223.845 76.8385C223.83 75.8822 223.821 75.288 223.821 75.288L222.536 75.7018C222.601 74.8979 222.604 74.0901 222.544 73.2858C222.975 73.4302 223.426 73.5039 223.881 73.5041C226.409 73.5041 228.47 71.2332 228.47 68.4476C228.47 65.6619 226.415 63.3911 223.881 63.3911C223.423 63.3913 222.969 63.4659 222.536 63.6118V62.1496C222.536 62.1496 222.915 58.1049 219.791 58.0444C220.255 57.2508 219.134 56.9089 219.134 56.9089C219.134 56.9089 213.95 61.6147 212.37 61.9616C210.79 62.3086 211.791 64.5076 212.95 64.8924V73.147H210.112C210.112 73.147 205.343 72.5566 205.105 80.2902C205.168 80.3949 205.7 80.4618 206.534 80.5022L200.812 92.5442C200.812 92.5442 203.675 97.5414 208.204 95.2806C208.204 95.3538 210.843 88.5272 212.86 83.2954L213.092 91.4718C213.092 91.4718 212.735 94.3281 215.241 94.2082C217.747 94.0884 221.321 94.2082 221.321 94.2082C221.321 94.2082 224.063 92.3045 224.063 91.2346C224.063 90.7085 224.006 86.8657 223.948 83.0834C225.568 87.1937 228.271 94.0417 228.355 94.2082C231.694 97.3017 236.939 92.0635 236.939 92.0635C236.939 92.0635 233.954 80.8794 232.166 76.002Z" fill="#79170E"/>
<path d="M221.221 68.5224C221.221 66.1568 222.18 64.1812 223.462 63.6892C223.264 63.6116 223.052 63.5713 222.839 63.5706C221.258 63.5706 219.976 65.7872 219.976 68.5224C219.976 71.2575 221.258 73.4741 222.839 73.4741C223.052 73.4734 223.264 73.4332 223.462 73.3556C222.18 72.8635 221.221 70.8879 221.221 68.5224Z" fill="url(#paint85_linear_1960_59007)"/>
<path d="M224.672 70.7085C225.585 70.7085 226.326 69.5099 226.326 68.0314C226.326 66.5528 225.585 65.3542 224.672 65.3542C223.759 65.3542 223.019 66.5528 223.019 68.0314C223.019 69.5099 223.759 70.7085 224.672 70.7085Z" fill="url(#paint86_linear_1960_59007)"/>
<path d="M223.499 70.7085C224.413 70.7085 225.153 69.5099 225.153 68.0314C225.153 66.5528 224.413 65.3542 223.499 65.3542C222.586 65.3542 221.846 66.5528 221.846 68.0314C221.846 69.5099 222.586 70.7085 223.499 70.7085Z" fill="#79170E"/>
<path d="M207.993 79.7201C208.529 77.4 209.96 75.5265 215.146 75.9732C220.332 76.4198 221.495 76.0615 221.495 76.0615C221.495 76.0615 215.236 74.9916 211.57 74.8125C207.904 74.6333 207.993 79.7201 207.993 79.7201Z" fill="url(#paint87_linear_1960_59007)"/>
<path d="M206.296 82.2192L212.377 82.3971L212.823 80.8806L206.654 81.0585L206.296 82.2192Z" fill="url(#paint88_linear_1960_59007)"/>
<path d="M207.546 83.558L211.212 83.915L210.676 85.164C210.676 85.164 208.887 84.807 208.262 86.2338C207.636 87.6607 204.865 93.9082 204.865 93.9082L203.348 93.0162L207.282 85.3419L207.546 83.558Z" fill="url(#paint89_linear_1960_59007)"/>
<path d="M228.917 75.5264C225.966 76.9546 226.145 79.72 229.006 86.2337C230.257 88.5726 231.362 90.9865 232.315 93.4614C232.315 93.4614 230.798 94.3546 230.616 93.8184C230.434 93.2823 224.982 80.1666 224.982 80.1666C224.982 80.1666 224.178 74.902 228.917 75.5264Z" fill="url(#paint90_linear_1960_59007)"/>
<path d="M229.947 81.6845C230.86 81.6845 231.6 80.7655 231.6 79.6318C231.6 78.4982 230.86 77.5792 229.947 77.5792C229.033 77.5792 228.293 78.4982 228.293 79.6318C228.293 80.7655 229.033 81.6845 229.947 81.6845Z" fill="url(#paint91_linear_1960_59007)"/>
<path d="M218.368 79.5423C220.837 79.5423 222.838 79.3226 222.838 79.0516C222.838 78.7805 220.837 78.5608 218.368 78.5608C215.899 78.5608 213.897 78.7805 213.897 79.0516C213.897 79.3226 215.899 79.5423 218.368 79.5423Z" fill="url(#paint92_linear_1960_59007)"/>
<path d="M213.716 64.3993L219.702 58.9921C219.702 58.9921 221.026 59.3062 220.713 60.8782C220.401 62.4501 213.716 64.3993 213.716 64.3993Z" fill="url(#paint93_linear_1960_59007)"/>
</g>
<defs>
<linearGradient id="paint0_linear_1960_59007" x1="168.811" y1="-6.29731" x2="168.811" y2="530.306" gradientUnits="userSpaceOnUse">
<stop offset="0.14" stop-color="#16304D"/>
<stop offset="0.29" stop-color="#093C66"/>
<stop offset="0.41" stop-color="#004477"/>
<stop offset="0.44" stop-color="#004D7F"/>
<stop offset="0.58" stop-color="#00709C"/>
<stop offset="0.72" stop-color="#0089B2"/>
<stop offset="0.84" stop-color="#0098BF"/>
<stop offset="0.94" stop-color="#009DC3"/>
</linearGradient>
<linearGradient id="paint1_linear_1960_59007" x1="197.282" y1="232.766" x2="358.436" y2="301.525" gradientUnits="userSpaceOnUse">
<stop offset="0.1" stop-color="#90D1DE"/>
<stop offset="1" stop-color="#009DC3"/>
</linearGradient>
<linearGradient id="paint2_linear_1960_59007" x1="274.266" y1="201.47" x2="277.579" y2="202.882" gradientUnits="userSpaceOnUse">
<stop offset="0.1" stop-color="#90D1DE"/>
<stop offset="1" stop-color="#009DC3"/>
</linearGradient>
<linearGradient id="paint3_linear_1960_59007" x1="274.444" y1="214.696" x2="277.756" y2="216.11" gradientUnits="userSpaceOnUse">
<stop offset="0.1" stop-color="#90D1DE"/>
<stop offset="1" stop-color="#009DC3"/>
</linearGradient>
<linearGradient id="paint4_linear_1960_59007" x1="234.922" y1="196.705" x2="238.233" y2="198.118" gradientUnits="userSpaceOnUse">
<stop offset="0.1" stop-color="#90D1DE"/>
<stop offset="1" stop-color="#009DC3"/>
</linearGradient>
<linearGradient id="paint5_linear_1960_59007" x1="161.124" y1="208.308" x2="164.436" y2="209.721" gradientUnits="userSpaceOnUse">
<stop offset="0.1" stop-color="#90D1DE"/>
<stop offset="1" stop-color="#009DC3"/>
</linearGradient>
<linearGradient id="paint6_linear_1960_59007" x1="173.278" y1="-46.2738" x2="173.278" y2="251.24" gradientUnits="userSpaceOnUse">
<stop offset="0.14" stop-color="#16304D"/>
<stop offset="0.29" stop-color="#093C66"/>
<stop offset="0.41" stop-color="#004477"/>
<stop offset="0.5" stop-color="#005787"/>
<stop offset="0.69" stop-color="#007DA8"/>
<stop offset="0.84" stop-color="#0094BC"/>
<stop offset="0.94" stop-color="#009DC3"/>
</linearGradient>
<linearGradient id="paint7_linear_1960_59007" x1="182.874" y1="9.24069" x2="361.368" y2="85.3985" gradientUnits="userSpaceOnUse">
<stop offset="0.1" stop-color="#90D1DE"/>
<stop offset="1" stop-color="#009DC3"/>
</linearGradient>
<linearGradient id="paint8_linear_1960_59007" x1="228.576" y1="124.134" x2="228.576" y2="140.571" gradientUnits="userSpaceOnUse">
<stop offset="0.14" stop-color="#18222D"/>
<stop offset="1" stop-color="#16304D"/>
</linearGradient>
<linearGradient id="paint9_linear_1960_59007" x1="100.099" y1="-8.71279" x2="103.412" y2="138.475" gradientUnits="userSpaceOnUse">
<stop offset="0.14" stop-color="#18222D"/>
<stop offset="1" stop-color="#16304D"/>
</linearGradient>
<linearGradient id="paint10_linear_1960_59007" x1="245.936" y1="41.1151" x2="245.936" y2="143.028" gradientUnits="userSpaceOnUse">
<stop offset="0.14" stop-color="#18222D"/>
<stop offset="1" stop-color="#16304D"/>
</linearGradient>
<linearGradient id="paint11_linear_1960_59007" x1="63.8393" y1="24.5672" x2="63.8393" y2="146.773" gradientUnits="userSpaceOnUse">
<stop offset="0.14" stop-color="#18222D"/>
<stop offset="1" stop-color="#16304D"/>
</linearGradient>
<linearGradient id="paint12_linear_1960_59007" x1="90.339" y1="52.4391" x2="90.339" y2="144.498" gradientUnits="userSpaceOnUse">
<stop offset="0.14" stop-color="#18222D"/>
<stop offset="1" stop-color="#16304D"/>
</linearGradient>
<linearGradient id="paint13_linear_1960_59007" x1="214.266" y1="70.203" x2="214.266" y2="153.413" gradientUnits="userSpaceOnUse">
<stop offset="0.28" stop-color="#18222D"/>
<stop offset="1" stop-color="#16304D"/>
</linearGradient>
<linearGradient id="paint14_linear_1960_59007" x1="178.062" y1="28.9744" x2="178.062" y2="138.791" gradientUnits="userSpaceOnUse">
<stop offset="0.14" stop-color="#18222D"/>
<stop offset="1" stop-color="#16304D"/>
</linearGradient>
<linearGradient id="paint15_linear_1960_59007" x1="218.534" y1="61.1951" x2="226.36" y2="140.92" gradientUnits="userSpaceOnUse">
<stop offset="0.14" stop-color="#18222D"/>
<stop offset="1" stop-color="#16304D"/>
</linearGradient>
<linearGradient id="paint16_linear_1960_59007" x1="218.221" y1="244.006" x2="225.962" y2="165.142" gradientUnits="userSpaceOnUse">
<stop offset="0.14" stop-color="#18222D"/>
<stop offset="1" stop-color="#16304D"/>
</linearGradient>
<linearGradient id="paint17_linear_1960_59007" x1="161.603" y1="143.856" x2="161.603" y2="292.913" gradientUnits="userSpaceOnUse">
<stop offset="0.14" stop-color="#18222D"/>
<stop offset="1" stop-color="#16304D"/>
</linearGradient>
<linearGradient id="paint18_linear_1960_59007" x1="169.494" y1="274.97" x2="169.494" y2="129.804" gradientUnits="userSpaceOnUse">
<stop offset="0.14" stop-color="#16304D"/>
<stop offset="0.29" stop-color="#093C66"/>
<stop offset="0.41" stop-color="#004477"/>
<stop offset="0.44" stop-color="#004D7F"/>
<stop offset="0.58" stop-color="#00709C"/>
<stop offset="0.72" stop-color="#0089B2"/>
<stop offset="0.84" stop-color="#0098BF"/>
<stop offset="0.94" stop-color="#009DC3"/>
</linearGradient>
<linearGradient id="paint19_linear_1960_59007" x1="167.048" y1="95.5471" x2="169.267" y2="200.722" gradientUnits="userSpaceOnUse">
<stop offset="0.14" stop-color="#18222D"/>
<stop offset="1" stop-color="#16304D"/>
</linearGradient>
<linearGradient id="paint20_linear_1960_59007" x1="166.343" y1="110.636" x2="171.807" y2="369.649" gradientUnits="userSpaceOnUse">
<stop offset="0.14" stop-color="#18222D"/>
<stop offset="1" stop-color="#16304D"/>
</linearGradient>
<linearGradient id="paint21_linear_1960_59007" x1="109.769" y1="257.819" x2="337.982" y2="257.819" gradientUnits="userSpaceOnUse">
<stop offset="0.14" stop-color="#16304D"/>
<stop offset="0.29" stop-color="#093C66"/>
<stop offset="0.41" stop-color="#004477"/>
<stop offset="0.44" stop-color="#004D7F"/>
<stop offset="0.58" stop-color="#00709C"/>
<stop offset="0.72" stop-color="#0089B2"/>
<stop offset="0.84" stop-color="#0098BF"/>
<stop offset="0.94" stop-color="#009DC3"/>
</linearGradient>
<linearGradient id="paint22_linear_1960_59007" x1="109.769" y1="273.527" x2="337.982" y2="273.527" gradientUnits="userSpaceOnUse">
<stop offset="0.14" stop-color="#16304D"/>
<stop offset="0.29" stop-color="#093C66"/>
<stop offset="0.41" stop-color="#004477"/>
<stop offset="0.44" stop-color="#004D7F"/>
<stop offset="0.58" stop-color="#00709C"/>
<stop offset="0.72" stop-color="#0089B2"/>
<stop offset="0.84" stop-color="#0098BF"/>
<stop offset="0.94" stop-color="#009DC3"/>
</linearGradient>
<linearGradient id="paint23_linear_1960_59007" x1="274.266" y1="96.2099" x2="277.579" y2="97.6233" gradientUnits="userSpaceOnUse">
<stop offset="0.1" stop-color="#90D1DE"/>
<stop offset="1" stop-color="#009DC3"/>
</linearGradient>
<linearGradient id="paint24_linear_1960_59007" x1="235.506" y1="106.689" x2="238.818" y2="108.102" gradientUnits="userSpaceOnUse">
<stop offset="0.1" stop-color="#90D1DE"/>
<stop offset="1" stop-color="#009DC3"/>
</linearGradient>
<linearGradient id="paint25_linear_1960_59007" x1="159.684" y1="89.8742" x2="162.997" y2="91.2877" gradientUnits="userSpaceOnUse">
<stop offset="0.1" stop-color="#90D1DE"/>
<stop offset="1" stop-color="#009DC3"/>
</linearGradient>
<linearGradient id="paint26_linear_1960_59007" x1="274.444" y1="66.0188" x2="277.756" y2="67.4313" gradientUnits="userSpaceOnUse">
<stop offset="0.1" stop-color="#90D1DE"/>
<stop offset="1" stop-color="#009DC3"/>
</linearGradient>
<linearGradient id="paint27_linear_1960_59007" x1="227.061" y1="163.441" x2="261.87" y2="178.293" gradientUnits="userSpaceOnUse">
<stop offset="0.1" stop-color="#90D1DE"/>
<stop offset="1" stop-color="#009DC3"/>
</linearGradient>
<linearGradient id="paint28_linear_1960_59007" x1="86.4673" y1="154.067" x2="121.277" y2="168.919" gradientUnits="userSpaceOnUse">
<stop offset="0.1" stop-color="#90D1DE"/>
<stop offset="1" stop-color="#009DC3"/>
</linearGradient>
<linearGradient id="paint29_linear_1960_59007" x1="138.605" y1="154.067" x2="173.415" y2="168.919" gradientUnits="userSpaceOnUse">
<stop offset="0.1" stop-color="#90D1DE"/>
<stop offset="1" stop-color="#009DC3"/>
</linearGradient>
<linearGradient id="paint30_linear_1960_59007" x1="190.741" y1="154.067" x2="225.55" y2="168.919" gradientUnits="userSpaceOnUse">
<stop offset="0.1" stop-color="#90D1DE"/>
<stop offset="1" stop-color="#009DC3"/>
</linearGradient>
<linearGradient id="paint31_linear_1960_59007" x1="210.922" y1="168.777" x2="245.731" y2="183.629" gradientUnits="userSpaceOnUse">
<stop offset="0.1" stop-color="#90D1DE"/>
<stop offset="1" stop-color="#009DC3"/>
</linearGradient>
<linearGradient id="paint32_linear_1960_59007" x1="236.303" y1="174.245" x2="271.113" y2="189.097" gradientUnits="userSpaceOnUse">
<stop offset="0.1" stop-color="#90D1DE"/>
<stop offset="1" stop-color="#009DC3"/>
</linearGradient>
<linearGradient id="paint33_linear_1960_59007" x1="96.7554" y1="192.73" x2="131.565" y2="207.582" gradientUnits="userSpaceOnUse">
<stop offset="0.1" stop-color="#90D1DE"/>
<stop offset="1" stop-color="#009DC3"/>
</linearGradient>
<linearGradient id="paint34_linear_1960_59007" x1="109.255" y1="198.978" x2="144.064" y2="213.83" gradientUnits="userSpaceOnUse">
<stop offset="0.1" stop-color="#90D1DE"/>
<stop offset="1" stop-color="#009DC3"/>
</linearGradient>
<linearGradient id="paint35_linear_1960_59007" x1="76.3189" y1="217.203" x2="111.129" y2="232.055" gradientUnits="userSpaceOnUse">
<stop offset="0.1" stop-color="#90D1DE"/>
<stop offset="1" stop-color="#009DC3"/>
</linearGradient>
<linearGradient id="paint36_linear_1960_59007" x1="102.369" y1="277.12" x2="343.248" y2="277.12" gradientUnits="userSpaceOnUse">
<stop offset="0.1" stop-color="#90D1DE"/>
<stop offset="1" stop-color="#009DC3"/>
</linearGradient>
<linearGradient id="paint37_linear_1960_59007" x1="137.002" y1="39.5513" x2="137.002" y2="147.327" gradientUnits="userSpaceOnUse">
<stop offset="0.14" stop-color="#18222D"/>
<stop offset="1" stop-color="#16304D"/>
</linearGradient>
<linearGradient id="paint38_linear_1960_59007" x1="157.997" y1="100.747" x2="157.997" y2="191.615" gradientUnits="userSpaceOnUse">
<stop offset="0.14" stop-color="#18222D"/>
<stop offset="1" stop-color="#16304D"/>
</linearGradient>
<linearGradient id="paint39_linear_1960_59007" x1="70.6502" y1="298.428" x2="128.714" y2="298.428" gradientUnits="userSpaceOnUse">
<stop offset="0.14" stop-color="#18222D"/>
<stop offset="1" stop-color="#16304D"/>
</linearGradient>
<linearGradient id="paint40_linear_1960_59007" x1="57.9224" y1="310.409" x2="115.987" y2="310.409" gradientUnits="userSpaceOnUse">
<stop offset="0.14" stop-color="#18222D"/>
<stop offset="1" stop-color="#16304D"/>
</linearGradient>
<linearGradient id="paint41_linear_1960_59007" x1="66.6777" y1="248.2" x2="96.0152" y2="248.2" gradientUnits="userSpaceOnUse">
<stop offset="0.2" stop-color="#E73047"/>
<stop offset="0.69" stop-color="#BE1622"/>
</linearGradient>
<linearGradient id="paint42_linear_1960_59007" x1="98.6588" y1="59.4225" x2="158.073" y2="58.1531" gradientUnits="userSpaceOnUse">
<stop offset="0.44" stop-color="#E73047"/>
<stop offset="0.69" stop-color="#BE1622"/>
</linearGradient>
<linearGradient id="paint43_linear_1960_59007" x1="118.08" y1="76.4729" x2="104.81" y2="90.841" gradientUnits="userSpaceOnUse">
<stop offset="0.08" stop-color="#E73047"/>
<stop offset="1" stop-color="#BE1622"/>
</linearGradient>
<linearGradient id="paint44_linear_1960_59007" x1="68.3305" y1="65.571" x2="120.716" y2="64.4511" gradientUnits="userSpaceOnUse">
<stop stop-color="#F191A0"/>
<stop offset="0.19" stop-color="#ED6F81" stop-opacity="0.75"/>
<stop offset="0.36" stop-color="#EB5468" stop-opacity="0.56"/>
<stop offset="0.51" stop-color="#E94056" stop-opacity="0.42"/>
<stop offset="0.63" stop-color="#E7344B" stop-opacity="0.33"/>
<stop offset="0.71" stop-color="#E73047" stop-opacity="0.3"/>
</linearGradient>
<linearGradient id="paint45_linear_1960_59007" x1="98.649" y1="49.0713" x2="108.425" y2="64.9906" gradientUnits="userSpaceOnUse">
<stop offset="0.08" stop-color="#E73047"/>
<stop offset="1" stop-color="#BE1622"/>
</linearGradient>
<linearGradient id="paint46_linear_1960_59007" x1="130.944" y1="25.3163" x2="99.1149" y2="59.7809" gradientUnits="userSpaceOnUse">
<stop offset="0.19" stop-color="#F8C7D4"/>
<stop offset="1" stop-color="#F8C7D4" stop-opacity="0"/>
</linearGradient>
<linearGradient id="paint47_linear_1960_59007" x1="135.524" y1="29.628" x2="103.8" y2="63.9811" gradientUnits="userSpaceOnUse">
<stop offset="0.19" stop-color="#F8C7D4"/>
<stop offset="1" stop-color="#F8C7D4" stop-opacity="0"/>
</linearGradient>
<linearGradient id="paint48_linear_1960_59007" x1="114.386" y1="10.0278" x2="82.5571" y2="44.4924" gradientUnits="userSpaceOnUse">
<stop offset="0.19" stop-color="#F8C7D4"/>
<stop offset="1" stop-color="#F8C7D4" stop-opacity="0"/>
</linearGradient>
<linearGradient id="paint49_linear_1960_59007" x1="125.535" y1="20.3227" x2="93.706" y2="54.7885" gradientUnits="userSpaceOnUse">
<stop offset="0.19" stop-color="#F8C7D4"/>
<stop offset="1" stop-color="#F8C7D4" stop-opacity="0"/>
</linearGradient>
<linearGradient id="paint50_linear_1960_59007" x1="119.03" y1="14.3153" x2="87.1995" y2="48.7811" gradientUnits="userSpaceOnUse">
<stop offset="0.19" stop-color="#F8C7D4"/>
<stop offset="1" stop-color="#F8C7D4" stop-opacity="0"/>
</linearGradient>
<linearGradient id="paint51_linear_1960_59007" x1="137.578" y1="30.0563" x2="133.293" y2="34.6953" gradientUnits="userSpaceOnUse">
<stop offset="0.19" stop-color="#F8C7D4"/>
<stop offset="1" stop-color="#F8C7D4" stop-opacity="0"/>
</linearGradient>
<linearGradient id="paint52_linear_1960_59007" x1="131.781" y1="68.5442" x2="136.753" y2="69.004" gradientUnits="userSpaceOnUse">
<stop offset="0.44" stop-color="#E73047"/>
<stop offset="0.69" stop-color="#BE1622"/>
</linearGradient>
<linearGradient id="paint53_linear_1960_59007" x1="127.792" y1="58.5319" x2="132.607" y2="73.6795" gradientUnits="userSpaceOnUse">
<stop stop-color="#F191A0"/>
<stop offset="0.15" stop-color="#EE7587" stop-opacity="0.72"/>
<stop offset="0.3" stop-color="#EC5D70" stop-opacity="0.46"/>
<stop offset="0.43" stop-color="#EA495E" stop-opacity="0.26"/>
<stop offset="0.55" stop-color="#E83C52" stop-opacity="0.12"/>
<stop offset="0.65" stop-color="#E7334A" stop-opacity="0.03"/>
<stop offset="0.71" stop-color="#E73047" stop-opacity="0"/>
</linearGradient>
<linearGradient id="paint54_linear_1960_59007" x1="135.646" y1="61.789" x2="142.525" y2="64.4897" gradientUnits="userSpaceOnUse">
<stop stop-color="#F191A0"/>
<stop offset="0.19" stop-color="#ED6F81" stop-opacity="0.75"/>
<stop offset="0.36" stop-color="#EB5468" stop-opacity="0.56"/>
<stop offset="0.51" stop-color="#E94056" stop-opacity="0.42"/>
<stop offset="0.63" stop-color="#E7344B" stop-opacity="0.33"/>
<stop offset="0.71" stop-color="#E73047" stop-opacity="0.3"/>
</linearGradient>
<linearGradient id="paint55_linear_1960_59007" x1="122.889" y1="63.3258" x2="132.891" y2="51.2836" gradientUnits="userSpaceOnUse">
<stop offset="0.16" stop-color="#E73047"/>
<stop offset="0.74" stop-color="#BE1622"/>
</linearGradient>
<linearGradient id="paint56_linear_1960_59007" x1="122.659" y1="66.1377" x2="127.603" y2="60.1868" gradientUnits="userSpaceOnUse">
<stop offset="0.16" stop-color="#E73047"/>
<stop offset="0.74" stop-color="#BE1622"/>
</linearGradient>
<linearGradient id="paint57_linear_1960_59007" x1="125.554" y1="74.9514" x2="133.934" y2="79.5368" gradientUnits="userSpaceOnUse">
<stop stop-color="#F191A0"/>
<stop offset="0.15" stop-color="#EE7587" stop-opacity="0.72"/>
<stop offset="0.3" stop-color="#EC5D70" stop-opacity="0.46"/>
<stop offset="0.43" stop-color="#EA495E" stop-opacity="0.26"/>
<stop offset="0.55" stop-color="#E83C52" stop-opacity="0.12"/>
<stop offset="0.65" stop-color="#E7334A" stop-opacity="0.03"/>
<stop offset="0.71" stop-color="#E73047" stop-opacity="0"/>
</linearGradient>
<linearGradient id="paint58_linear_1960_59007" x1="124.396" y1="75.389" x2="132.969" y2="81.642" gradientUnits="userSpaceOnUse">
<stop offset="0.44" stop-color="#E73047"/>
<stop offset="0.69" stop-color="#BE1622"/>
</linearGradient>
<linearGradient id="paint59_linear_1960_59007" x1="125.393" y1="75.9837" x2="133.966" y2="82.2367" gradientUnits="userSpaceOnUse">
<stop offset="0.44" stop-color="#E73047"/>
<stop offset="0.69" stop-color="#BE1622"/>
</linearGradient>
<linearGradient id="paint60_linear_1960_59007" x1="53.6504" y1="115.386" x2="101.043" y2="147.926" gradientUnits="userSpaceOnUse">
<stop offset="0.2" stop-color="#E73047"/>
<stop offset="0.69" stop-color="#BE1622"/>
</linearGradient>
<linearGradient id="paint61_linear_1960_59007" x1="101.879" y1="95.927" x2="115.171" y2="113.25" gradientUnits="userSpaceOnUse">
<stop offset="0.44" stop-color="#E73047"/>
<stop offset="0.69" stop-color="#BE1622"/>
</linearGradient>
<linearGradient id="paint62_linear_1960_59007" x1="160.537" y1="42.3705" x2="124.591" y2="132.421" gradientUnits="userSpaceOnUse">
<stop offset="0.44" stop-color="#E73047"/>
<stop offset="0.69" stop-color="#BE1622"/>
</linearGradient>
<linearGradient id="paint63_linear_1960_59007" x1="67.4794" y1="170.537" x2="93.2707" y2="93.6324" gradientUnits="userSpaceOnUse">
<stop offset="0.2" stop-color="#E73047"/>
<stop offset="0.69" stop-color="#BE1622"/>
</linearGradient>
<linearGradient id="paint64_linear_1960_59007" x1="86.0406" y1="176.63" x2="75.4602" y2="202.826" gradientUnits="userSpaceOnUse">
<stop offset="0.2" stop-color="#E73047"/>
<stop offset="0.69" stop-color="#BE1622"/>
</linearGradient>
<linearGradient id="paint65_linear_1960_59007" x1="66.5224" y1="292.552" x2="111.382" y2="289.68" gradientUnits="userSpaceOnUse">
<stop offset="0.2" stop-color="#E73047"/>
<stop offset="0.69" stop-color="#BE1622"/>
</linearGradient>
<linearGradient id="paint66_linear_1960_59007" x1="87.6891" y1="261.563" x2="86.3319" y2="275.568" gradientUnits="userSpaceOnUse">
<stop offset="0.2" stop-color="#E73047"/>
<stop offset="0.69" stop-color="#BE1622"/>
</linearGradient>
<linearGradient id="paint67_linear_1960_59007" x1="74.0333" y1="289.288" x2="87.2484" y2="302.593" gradientUnits="userSpaceOnUse">
<stop offset="0.2" stop-color="#E73047"/>
<stop offset="0.69" stop-color="#BE1622"/>
</linearGradient>
<linearGradient id="paint68_linear_1960_59007" x1="149.166" y1="284.484" x2="120.957" y2="294.602" gradientUnits="userSpaceOnUse">
<stop offset="0.2" stop-color="#E73047"/>
<stop offset="0.69" stop-color="#BE1622"/>
</linearGradient>
<linearGradient id="paint69_linear_1960_59007" x1="57.8115" y1="203.832" x2="76.8633" y2="203.832" gradientUnits="userSpaceOnUse">
<stop offset="0.2" stop-color="#E73047"/>
<stop offset="0.69" stop-color="#BE1622"/>
</linearGradient>
<linearGradient id="paint70_linear_1960_59007" x1="47.3915" y1="203.74" x2="50.0754" y2="203.74" gradientUnits="userSpaceOnUse">
<stop offset="0.2" stop-color="#E73047"/>
<stop offset="0.69" stop-color="#BE1622"/>
</linearGradient>
<linearGradient id="paint71_linear_1960_59007" x1="317.131" y1="189.116" x2="229.223" y2="189.116" gradientUnits="userSpaceOnUse">
<stop offset="0.44" stop-color="#E73047"/>
<stop offset="0.69" stop-color="#BE1622"/>
</linearGradient>
<linearGradient id="paint72_linear_1960_59007" x1="120.295" y1="191.079" x2="208.204" y2="191.079" gradientUnits="userSpaceOnUse">
<stop offset="0.44" stop-color="#E73047"/>
<stop offset="0.69" stop-color="#BE1622"/>
</linearGradient>
<linearGradient id="paint73_linear_1960_59007" x1="219.894" y1="26.4906" x2="226.535" y2="47.5294" gradientUnits="userSpaceOnUse">
<stop offset="0.13" stop-color="#E73047"/>
<stop offset="0.84" stop-color="#BE1622"/>
</linearGradient>
<linearGradient id="paint74_linear_1960_59007" x1="272.128" y1="15.0558" x2="277.538" y2="29.197" gradientUnits="userSpaceOnUse">
<stop offset="0.13" stop-color="#E73047"/>
<stop offset="0.84" stop-color="#BE1622"/>
</linearGradient>
<linearGradient id="paint75_linear_1960_59007" x1="258.681" y1="18.8879" x2="264.092" y2="33.0304" gradientUnits="userSpaceOnUse">
<stop offset="0.13" stop-color="#E73047"/>
<stop offset="0.84" stop-color="#BE1622"/>
</linearGradient>
<linearGradient id="paint76_linear_1960_59007" x1="245.236" y1="22.7224" x2="250.647" y2="36.8648" gradientUnits="userSpaceOnUse">
<stop offset="0.13" stop-color="#E73047"/>
<stop offset="0.84" stop-color="#BE1622"/>
</linearGradient>
<linearGradient id="paint77_linear_1960_59007" x1="292.441" y1="0.305691" x2="299.596" y2="31.3338" gradientUnits="userSpaceOnUse">
<stop offset="0.19" stop-color="#E73047"/>
<stop offset="0.84" stop-color="#BE1622"/>
</linearGradient>
<linearGradient id="paint78_linear_1960_59007" x1="300.449" y1="14.135" x2="293.371" y2="16.5548" gradientUnits="userSpaceOnUse">
<stop offset="0.19" stop-color="#E73047"/>
<stop offset="0.84" stop-color="#BE1622"/>
</linearGradient>
<linearGradient id="paint79_linear_1960_59007" x1="205.006" y1="59.5508" x2="212.74" y2="50.8651" gradientUnits="userSpaceOnUse">
<stop offset="0.13" stop-color="#E73047"/>
<stop offset="0.84" stop-color="#BE1622"/>
</linearGradient>
<linearGradient id="paint80_linear_1960_59007" x1="213.22" y1="60.8185" x2="219.095" y2="60.8185" gradientUnits="userSpaceOnUse">
<stop offset="0.13" stop-color="#E73047"/>
<stop offset="0.84" stop-color="#BE1622"/>
</linearGradient>
<linearGradient id="paint81_linear_1960_59007" x1="192.961" y1="38.0798" x2="205.628" y2="51.1825" gradientUnits="userSpaceOnUse">
<stop offset="0.13" stop-color="#E73047"/>
<stop offset="0.84" stop-color="#BE1622"/>
</linearGradient>
<linearGradient id="paint82_linear_1960_59007" x1="220.878" y1="214.087" x2="211.262" y2="110.579" gradientUnits="userSpaceOnUse">
<stop offset="0.44" stop-color="#E73047"/>
<stop offset="0.69" stop-color="#BE1622"/>
</linearGradient>
<linearGradient id="paint83_linear_1960_59007" x1="187.019" y1="155.924" x2="212.996" y2="155.924" gradientUnits="userSpaceOnUse">
<stop offset="0.44" stop-color="#E73047"/>
<stop offset="0.69" stop-color="#BE1622"/>
</linearGradient>
<linearGradient id="paint84_linear_1960_59007" x1="251.396" y1="155.924" x2="225.42" y2="155.924" gradientUnits="userSpaceOnUse">
<stop offset="0.44" stop-color="#E73047"/>
<stop offset="0.69" stop-color="#BE1622"/>
</linearGradient>
<linearGradient id="paint85_linear_1960_59007" x1="219.976" y1="68.5224" x2="223.462" y2="68.5224" gradientUnits="userSpaceOnUse">
<stop offset="0.19" stop-color="#E73047"/>
<stop offset="0.84" stop-color="#BE1622"/>
</linearGradient>
<linearGradient id="paint86_linear_1960_59007" x1="223.019" y1="68.0314" x2="226.326" y2="68.0314" gradientUnits="userSpaceOnUse">
<stop offset="0.19" stop-color="#E73047"/>
<stop offset="0.84" stop-color="#BE1622"/>
</linearGradient>
<linearGradient id="paint87_linear_1960_59007" x1="207.993" y1="77.2638" x2="221.495" y2="77.2638" gradientUnits="userSpaceOnUse">
<stop offset="0.19" stop-color="#E73047"/>
<stop offset="0.84" stop-color="#BE1622"/>
</linearGradient>
<linearGradient id="paint88_linear_1960_59007" x1="206.296" y1="81.6388" x2="212.824" y2="81.6388" gradientUnits="userSpaceOnUse">
<stop offset="0.19" stop-color="#E73047"/>
<stop offset="0.84" stop-color="#BE1622"/>
</linearGradient>
<linearGradient id="paint89_linear_1960_59007" x1="203.344" y1="88.7331" x2="211.212" y2="88.7331" gradientUnits="userSpaceOnUse">
<stop offset="0.19" stop-color="#E73047"/>
<stop offset="0.84" stop-color="#BE1622"/>
</linearGradient>
<linearGradient id="paint90_linear_1960_59007" x1="224.932" y1="84.7324" x2="232.315" y2="84.7324" gradientUnits="userSpaceOnUse">
<stop offset="0.19" stop-color="#E73047"/>
<stop offset="0.84" stop-color="#BE1622"/>
</linearGradient>
<linearGradient id="paint91_linear_1960_59007" x1="228.293" y1="79.6319" x2="231.6" y2="79.6319" gradientUnits="userSpaceOnUse">
<stop offset="0.19" stop-color="#E73047"/>
<stop offset="0.84" stop-color="#BE1622"/>
</linearGradient>
<linearGradient id="paint92_linear_1960_59007" x1="213.896" y1="79.0516" x2="222.838" y2="79.0516" gradientUnits="userSpaceOnUse">
<stop offset="0.19" stop-color="#E73047"/>
<stop offset="0.84" stop-color="#BE1622"/>
</linearGradient>
<linearGradient id="paint93_linear_1960_59007" x1="215.454" y1="60.2587" x2="220.033" y2="64.9942" gradientUnits="userSpaceOnUse">
<stop offset="0.13" stop-color="#E73047"/>
<stop offset="0.84" stop-color="#BE1622"/>
</linearGradient>
</defs>
</svg>
